<?xml version="1.0" standalone="no"?>
<!DOCTYPE svg PUBLIC "-//W3C//DTD SVG 20010904//EN"
 "http://www.w3.org/TR/2001/REC-SVG-20010904/DTD/svg10.dtd">
<svg version="1.0" xmlns="http://www.w3.org/2000/svg"
 width="2048.000000pt" height="1360.000000pt" viewBox="0 0 2048.000000 1360.000000"
 preserveAspectRatio="xMidYMid meet">

<g transform="translate(0.000000,1360.000000) scale(0.100000,-0.100000)"
fill="#000000" stroke="none">
<path d="M0 12120 l0 -1480 40 0 40 0 0 40 0 40 80 0 80 0 0 40 0 40 40 0 40
0 0 -120 0 -120 40 0 40 0 0 80 0 80 40 0 40 0 0 40 0 40 80 0 80 0 0 33 c0
17 -4 37 -8 42 -4 6 -38 11 -77 10 l-70 0 -3 38 -3 37 120 0 121 0 0 39 0 40
123 3 c67 2 157 2 200 0 l77 -3 0 -39 0 -40 120 0 120 0 0 -40 0 -40 160 0
160 0 0 40 0 40 40 0 40 0 0 40 0 40 120 0 120 0 0 40 0 40 160 0 160 0 0 -40
0 -40 80 0 80 0 0 -40 0 -40 40 0 40 0 0 -40 0 -40 240 0 240 0 0 40 0 40 160
0 160 0 0 40 0 40 140 0 140 0 0 -40 c0 -33 3 -40 20 -40 15 0 20 -7 20 -29 0
-16 4 -31 9 -33 6 -2 5 -22 -1 -50 -9 -36 -16 -48 -30 -48 -23 0 -23 -11 2
-43 11 -14 20 -37 20 -52 0 -14 4 -34 9 -43 7 -12 2 -33 -17 -70 -20 -41 -23
-55 -13 -65 9 -9 14 -9 21 2 6 11 10 5 15 -22 5 -24 3 -42 -5 -52 -9 -10 -9
-19 -2 -27 10 -13 10 -42 0 -68 -9 -22 -8 -52 4 -83 8 -20 8 -34 0 -50 -15
-31 -21 -77 -11 -83 15 -9 10 -23 -16 -46 -30 -26 -32 -48 -5 -48 15 0 20 -7
20 -25 0 -14 -4 -25 -8 -25 -5 0 -14 -18 -21 -40 -6 -22 -16 -40 -21 -40 -6 0
-10 -5 -10 -12 0 -9 3 -9 12 0 7 7 18 12 25 12 11 0 10 -6 -2 -30 -20 -39 -19
-50 5 -50 11 0 20 5 20 10 0 6 5 10 10 10 27 0 3 -81 -33 -108 -13 -10 -15
-18 -8 -31 7 -12 6 -22 -1 -29 -15 -15 -1 -45 17 -38 18 7 18 3 15 -135 -1
-69 2 -109 9 -113 6 -4 10 -30 9 -59 -1 -41 -2 -45 -5 -17 l-5 35 -12 -36 c-8
-22 -10 -54 -6 -85 7 -45 7 -46 9 -11 0 20 5 37 9 37 5 0 21 -13 37 -30 27
-28 28 -33 26 -115 -2 -83 -2 -85 21 -85 17 0 28 -10 40 -38 28 -61 53 -98 86
-132 18 -17 32 -40 32 -50 0 -10 5 -20 11 -22 8 -3 11 -37 11 -103 -2 -139 13
-222 62 -350 56 -143 62 -169 81 -300 24 -164 48 -236 117 -345 9 -14 21 -43
28 -65 11 -35 45 -89 75 -120 6 -6 31 -26 57 -43 37 -25 48 -39 49 -60 0 -15
3 -21 6 -14 8 21 20 13 27 -19 3 -18 17 -41 30 -53 16 -14 25 -37 30 -70 3
-28 10 -52 15 -55 5 -4 12 -23 16 -44 4 -21 10 -35 13 -32 3 3 18 -46 33 -107
16 -62 34 -121 40 -132 10 -17 8 -18 -18 -11 -88 22 -449 33 -511 16 -18 -6
-70 -11 -115 -12 -45 -1 -95 -6 -112 -11 -24 -8 -140 -15 -290 -18 -32 -1 -62
-26 -68 -57 -3 -15 -8 -38 -12 -50 -8 -24 -13 -19 115 -92 72 -41 83 -70 18
-45 -62 23 -91 37 -108 51 -19 15 -43 2 -35 -19 3 -8 38 -30 76 -49 82 -39
102 -63 80 -97 -6 -10 -14 -11 -27 -4 -44 22 -126 44 -135 35 -5 -5 -13 -44
-19 -88 -6 -44 -15 -107 -20 -140 -26 -166 -41 -269 -51 -355 -14 -123 -25
-202 -38 -270 -6 -30 -10 -129 -8 -220 2 -160 1 -167 -27 -247 -16 -46 -33
-83 -38 -83 -4 0 -8 -6 -8 -13 0 -8 -11 -19 -25 -25 -14 -7 -28 -19 -31 -27
-4 -8 -16 -15 -28 -15 -12 0 -27 -9 -34 -20 -7 -11 -19 -20 -27 -20 -8 0 -15
-7 -15 -15 0 -11 11 -15 42 -15 39 0 40 -1 22 -15 -10 -8 -29 -15 -41 -15 -12
0 -38 -13 -56 -30 -19 -16 -43 -30 -52 -30 -17 0 -17 -1 -1 -19 16 -17 15 -19
-13 -31 -17 -7 -37 -10 -45 -7 -9 4 -16 -2 -19 -15 -5 -17 -12 -20 -41 -16
-20 2 -36 1 -36 -2 0 -4 -18 -12 -39 -19 -21 -6 -50 -20 -63 -31 l-23 -19 23
-1 c13 0 22 6 22 15 0 12 5 12 23 4 19 -9 22 -16 19 -50 -3 -23 1 -46 7 -52 6
-6 11 -26 11 -44 l0 -33 80 0 80 0 0 80 c0 79 0 80 25 80 18 0 25 -5 25 -19 0
-10 -7 -21 -15 -25 -10 -4 -15 -20 -15 -51 l0 -45 40 0 c22 0 40 -4 40 -10 0
-5 -18 -10 -40 -10 -38 0 -40 -1 -40 -31 l0 -32 51 5 c37 4 52 2 56 -8 3 -8
16 -14 29 -14 21 0 24 -4 24 -40 0 -36 2 -40 26 -40 23 0 25 -2 14 -15 -15
-18 -13 -20 18 -29 13 -5 22 -3 22 3 0 7 30 11 80 11 64 0 80 -3 80 -15 0 -11
11 -15 40 -15 22 0 40 -4 40 -10 0 -5 7 -10 15 -10 19 0 19 10 -1 38 -11 16
-25 22 -55 22 l-39 0 0 90 c0 89 0 90 25 90 23 0 25 -4 25 -40 0 -29 4 -40 15
-40 8 0 15 -7 15 -15 0 -11 11 -15 40 -15 29 0 40 -4 40 -15 0 -11 11 -15 36
-15 28 0 43 -8 70 -35 18 -19 38 -35 44 -35 5 0 10 -9 10 -20 0 -13 7 -20 20
-20 11 0 19 6 18 12 -2 7 8 14 21 16 21 3 23 1 19 -23 -5 -22 -2 -26 12 -22
20 5 44 -7 46 -23 1 -5 2 -14 3 -20 2 -16 21 -12 21 5 0 20 79 20 135 0 40
-14 54 -9 55 22 0 17 21 19 144 12 135 -7 134 -7 165 -41 14 -16 35 -28 46
-28 34 -1 200 -61 288 -106 16 -8 42 -14 58 -14 17 0 32 -6 35 -15 4 -8 12
-15 20 -15 8 0 14 -4 14 -10 0 -5 7 -10 16 -10 10 0 14 6 10 15 -3 9 0 15 10
15 8 0 17 -7 19 -15 16 -50 16 -50 24 -36 10 16 51 5 51 -14 0 -12 40 -29 49
-20 2 3 -1 5 -7 5 -7 0 -12 13 -12 29 0 29 0 29 78 36 79 7 162 -6 162 -25 0
-6 18 -10 40 -10 29 0 40 -4 40 -15 0 -12 14 -15 70 -15 39 0 70 4 70 8 0 5
-9 17 -20 27 -11 10 -20 24 -20 31 0 7 -8 18 -18 23 -10 5 -33 40 -52 78 -19
37 -47 79 -62 91 -16 13 -28 34 -28 47 0 12 -9 34 -20 48 -11 14 -20 30 -20
35 0 6 -4 12 -9 14 -5 2 -18 25 -28 52 -14 38 -27 53 -58 70 -22 11 -42 23
-45 26 -5 5 -40 26 -75 44 -12 6 -37 27 -56 47 -42 42 -88 70 -146 88 -24 8
-43 18 -43 22 0 4 -24 15 -52 25 -29 9 -62 22 -73 28 -21 12 -27 13 -62 15
-13 0 -31 9 -41 18 -24 25 -138 70 -196 78 -27 4 -61 14 -75 23 -14 9 -39 18
-55 18 -19 1 -36 10 -44 23 -8 12 -21 21 -28 21 -8 0 -14 3 -14 8 0 4 -10 12
-22 17 -12 6 -31 28 -43 50 -11 22 -26 45 -33 51 -11 8 -11 12 2 23 19 16 21
51 4 51 -9 0 -9 3 0 12 7 7 12 27 12 44 0 18 5 36 11 39 6 4 8 14 5 22 -4 9
-1 22 5 29 8 10 9 14 0 14 -8 0 -8 6 -1 20 5 11 14 28 18 38 9 20 8 104 -2
121 -4 6 -1 11 6 11 20 0 118 -103 118 -123 0 -9 6 -17 14 -17 7 0 21 -11 29
-23 9 -13 38 -47 66 -75 28 -28 51 -56 51 -62 0 -12 264 -280 276 -280 5 0 24
-16 43 -35 19 -19 37 -35 41 -35 5 0 28 -16 52 -36 23 -19 51 -42 61 -50 9 -8
26 -14 36 -14 11 0 28 -11 39 -25 11 -14 26 -25 34 -25 7 0 25 -13 39 -29 14
-16 40 -32 58 -36 20 -4 35 -15 38 -26 3 -10 11 -19 17 -19 6 0 19 -8 27 -18
9 -11 25 -25 35 -33 10 -8 26 -27 34 -43 8 -16 23 -31 33 -34 14 -4 17 -11 12
-36 -4 -22 -3 -27 4 -17 7 11 11 6 16 -22 4 -20 10 -37 14 -37 4 0 12 -12 19
-27 21 -48 39 -74 61 -89 11 -8 21 -22 21 -30 0 -8 7 -14 15 -14 11 0 14 -7
10 -27 -3 -16 -2 -22 1 -15 7 14 84 17 84 2 0 -6 33 -10 80 -10 79 0 80 0 80
25 0 23 4 25 40 25 l40 0 0 40 c0 38 -2 40 -30 40 -28 0 -30 2 -30 40 0 22 -4
40 -10 40 -5 0 -10 18 -10 40 l0 40 -55 0 -55 0 0 40 c0 36 -2 40 -25 40 -19
0 -25 5 -25 22 0 12 -7 30 -17 40 -15 17 -15 18 0 18 13 0 17 9 17 40 0 38 -2
40 -30 40 -28 0 -30 2 -30 40 0 22 -4 40 -10 40 -6 0 -10 33 -10 80 0 64 -3
80 -15 80 -11 0 -15 11 -15 40 0 36 3 40 25 40 23 0 25 4 25 40 0 22 -4 40
-10 40 -5 0 -10 18 -10 40 l0 40 40 0 40 0 0 40 0 40 40 0 c29 0 40 4 40 15 0
11 11 15 40 15 29 0 40 4 40 15 0 11 11 15 40 15 22 0 40 5 40 10 0 6 7 10 15
10 8 0 15 -4 15 -10 0 -5 11 -10 25 -10 14 0 25 -4 25 -10 0 -5 18 -10 40 -10
28 0 47 -7 62 -22 17 -17 33 -21 80 -21 32 0 58 -4 58 -9 0 -4 -5 -8 -11 -8
-5 0 -7 -4 -4 -10 3 -5 26 -10 51 -10 24 0 44 -4 44 -10 0 -5 18 -10 40 -10
22 0 40 -4 40 -10 0 -5 18 -10 39 -10 22 0 41 -4 43 -9 5 -14 78 -26 78 -13 0
6 -10 13 -22 15 l-23 4 23 2 c12 0 22 6 22 11 0 6 18 10 40 10 38 0 40 2 40
30 0 28 2 30 40 30 22 0 40 -4 40 -10 0 -13 77 -13 85 1 5 6 31 8 77 3 42 -4
73 -3 77 3 3 5 47 15 96 21 50 6 104 18 120 26 17 9 45 16 63 16 20 0 42 8 55
21 12 11 32 25 45 30 13 5 22 17 22 29 0 15 7 20 25 20 23 0 25 4 25 40 l0 40
40 0 40 0 0 80 c0 64 3 80 15 80 11 0 15 -11 15 -40 0 -22 4 -40 9 -40 17 0
21 16 11 49 -8 29 -7 31 15 31 22 0 24 3 15 26 -16 42 -12 54 18 54 26 0 27 2
24 40 -4 40 -4 40 31 40 19 0 37 -6 40 -12 2 -7 8 -9 13 -5 5 4 4 11 -2 15 -6
4 -14 25 -17 47 -3 22 -3 32 0 22 7 -28 38 -16 41 16 2 15 -1 27 -7 27 -13 0
-34 69 -29 100 3 26 20 32 86 31 21 -1 32 4 32 13 0 7 10 21 23 30 22 16 22
16 -8 10 -16 -4 -35 -13 -41 -20 -17 -21 -24 -17 -15 9 4 12 6 43 3 70 l-4 47
-119 0 c-99 0 -119 -3 -119 -15 0 -12 -20 -15 -120 -15 -107 0 -120 2 -120 18
-1 12 -5 9 -16 -10 -18 -34 -29 -35 -45 -7 -8 17 -8 23 1 29 7 4 9 13 6 19
-10 16 -36 13 -36 -4 0 -10 -10 -15 -30 -15 -20 0 -30 5 -30 15 0 8 -4 15 -10
15 -5 0 -10 -7 -10 -15 0 -10 -10 -15 -30 -15 -17 0 -30 5 -30 13 0 8 -14 11
-45 9 -25 -2 -45 -8 -45 -13 0 -5 -7 -9 -15 -9 -8 0 -15 7 -15 15 0 21 -33 35
-84 35 -37 0 -46 3 -46 18 -1 16 -1 16 -14 0 -16 -22 -42 -23 -50 -3 -3 8 -18
15 -33 15 -15 0 -37 7 -47 15 -27 20 -96 20 -96 0 0 -8 -7 -15 -15 -15 -11 0
-15 11 -15 40 0 29 4 40 15 40 8 0 15 7 15 15 0 11 -11 15 -40 15 -36 0 -40 3
-40 25 0 23 -4 25 -40 25 -30 0 -40 -4 -40 -16 0 -14 -3 -14 -15 -4 -9 8 -15
30 -15 56 0 32 4 44 15 44 9 0 15 9 15 25 0 23 4 25 40 25 29 0 40 4 40 15 0
11 12 15 46 15 26 0 43 -4 39 -10 -7 -11 29 -35 66 -44 22 -5 28 -2 32 15 5
17 12 21 37 17 18 -3 35 1 41 9 18 21 29 15 29 -16 0 -24 4 -28 26 -28 15 0
30 -6 34 -13 11 -17 41 -5 47 20 4 14 17 21 52 25 92 12 111 16 111 26 0 5 11
7 24 3 16 -4 25 -1 29 10 4 9 27 21 52 27 26 7 49 18 52 25 3 8 18 14 34 14
27 0 29 3 29 40 0 22 5 40 10 40 6 0 10 7 10 15 0 11 -11 15 -40 15 -22 0 -40
4 -40 9 0 9 -106 21 -210 23 -83 1 -116 11 -146 43 -16 18 -30 24 -43 20 -35
-11 -82 16 -107 60 -6 11 -21 21 -33 23 -15 2 -21 10 -21 28 0 20 4 24 18 20
21 -7 47 8 38 22 -5 8 -15 8 -31 2 -22 -9 -25 -7 -25 16 0 21 3 23 19 14 11
-5 31 -10 45 -10 18 0 24 -4 20 -15 -4 -10 0 -15 16 -15 11 0 19 4 15 9 -3 5
8 16 25 24 27 14 30 14 35 -4 5 -14 11 -17 23 -11 20 10 122 3 122 -8 0 -7 61
10 105 29 32 15 135 21 135 9 0 -7 15 -9 38 -6 47 7 73 -10 65 -40 -8 -32 20
-38 63 -13 26 16 40 19 47 12 6 -6 19 -11 29 -11 10 0 18 -4 18 -10 0 -5 7
-10 15 -10 8 0 15 -4 15 -10 0 -5 7 -10 16 -10 9 0 21 -13 27 -30 7 -18 19
-30 29 -30 20 0 22 -20 12 -107 -6 -47 -9 -53 -30 -53 -19 0 -24 -5 -24 -25 0
-22 -4 -25 -40 -25 -29 0 -40 -4 -40 -15 0 -12 20 -15 120 -15 l120 0 0 39 c0
22 -4 41 -9 43 -6 2 -13 38 -17 81 -6 67 -5 77 10 77 12 0 16 9 16 36 0 21 6
42 15 48 18 14 23 172 6 204 -6 11 -8 27 -5 35 3 8 1 18 -5 22 -6 3 -11 -2
-12 -12 0 -10 -7 1 -15 23 -11 29 -25 47 -50 60 -23 12 -44 35 -57 63 -37 74
-41 81 -49 81 -5 0 -8 -18 -8 -40 0 -22 -4 -40 -10 -40 -5 0 -10 18 -10 40 0
29 -4 40 -15 40 -11 0 -15 -11 -15 -42 0 -53 -8 -46 -11 10 -2 31 -7 41 -16
37 -18 -6 -63 23 -63 41 0 8 -7 14 -15 14 -8 0 -15 5 -15 10 0 6 -11 10 -25
10 -14 0 -25 4 -25 9 0 5 11 11 25 13 16 3 25 1 25 -7 0 -13 35 -27 44 -17 3
3 6 22 6 43 0 21 5 39 13 42 9 3 9 8 -2 21 -8 9 -21 14 -31 11 -12 -4 -25 3
-38 20 -11 14 -25 25 -31 25 -6 0 -11 5 -11 10 0 6 -35 10 -85 10 -83 0 -121
-10 -138 -37 -11 -18 -92 -16 -111 2 -8 8 -19 15 -24 15 -6 0 -12 7 -16 15 -3
8 -10 15 -16 15 -5 0 -10 -7 -10 -15 0 -31 -19 -13 -36 36 -14 39 -26 54 -50
64 -17 7 -34 17 -37 21 -2 5 -8 48 -12 97 -7 85 -6 87 15 87 20 0 22 4 18 40
-2 28 0 40 9 40 7 0 13 -7 13 -15 0 -8 5 -15 10 -15 6 0 10 7 10 15 0 8 5 15
11 15 8 0 10 18 6 57 -3 32 -3 93 0 135 5 67 9 78 24 78 14 0 19 7 19 25 0 18
5 25 20 25 17 0 20 7 20 40 0 33 3 40 19 40 11 0 21 -6 24 -12 2 -7 2 -1 0 15
-5 31 7 35 30 9 12 -13 14 -26 8 -55 -9 -39 2 -50 27 -25 9 9 13 5 18 -20 4
-17 13 -37 20 -43 8 -6 14 -19 14 -29 0 -9 8 -28 19 -41 10 -13 33 -51 50 -84
18 -32 38 -66 45 -75 8 -8 24 -35 36 -59 23 -46 91 -117 120 -126 42 -13 83
-173 61 -235 -10 -30 -8 -35 15 -56 14 -13 28 -24 32 -24 4 0 18 -9 32 -20 14
-11 33 -20 44 -20 13 0 17 -5 13 -20 -4 -15 0 -20 13 -20 12 0 22 -12 29 -32
6 -18 20 -44 31 -58 59 -74 120 -163 120 -175 0 -21 18 -27 23 -8 3 10 5 -1 6
-24 1 -40 3 -43 30 -43 27 0 29 3 34 53 3 32 0 58 -7 67 -6 8 -20 31 -30 50
-11 19 -22 37 -26 40 -3 3 -14 25 -24 50 -10 25 -25 57 -33 73 -23 43 -10 51
71 41 39 -5 123 -8 186 -8 105 1 123 3 202 33 49 18 88 37 88 43 0 11 -27 4
-97 -28 -30 -14 -70 -24 -95 -23 l-43 0 50 15 c28 8 61 17 75 20 14 3 39 12
56 20 19 8 45 11 63 8 30 -6 46 10 19 19 -7 2 -3 3 8 1 12 -2 27 3 34 11 7 8
19 15 26 15 8 0 14 5 14 10 0 6 7 10 15 10 8 0 15 5 15 10 0 6 6 10 14 10 8 0
17 9 21 20 3 10 19 30 36 44 16 14 29 27 29 30 0 15 83 125 90 121 16 -10 -2
-226 -23 -272 -12 -30 -63 -83 -78 -83 -5 0 -9 -9 -9 -20 0 -26 17 -26 25 0 9
29 39 27 31 -2 -3 -13 -9 -49 -13 -80 -3 -32 -10 -58 -14 -58 -5 0 -9 -17 -9
-37 0 -21 -5 -45 -10 -53 -6 -10 -10 -11 -10 -2 0 6 -5 12 -11 12 -8 0 -10
-23 -5 -80 l7 -80 -25 0 c-24 0 -26 -4 -26 -40 0 -30 4 -40 16 -40 23 0 11
-24 -14 -28 -16 -2 -22 -10 -22 -28 0 -13 -4 -24 -10 -24 -5 0 -10 -18 -10
-40 0 -22 5 -40 10 -40 6 0 10 8 10 18 0 23 29 64 41 57 5 -4 9 3 9 15 0 27
68 100 92 100 10 0 18 4 18 10 0 5 -7 7 -15 4 -8 -4 -27 -3 -43 1 l-27 7 25
20 c24 20 24 20 3 14 -14 -5 -23 -3 -23 3 0 6 4 11 9 11 5 0 12 8 15 18 4 11
18 25 31 32 14 7 25 18 25 23 0 5 9 16 19 25 11 10 22 28 26 42 5 19 4 21 -4
10 -15 -22 -21 -8 -14 33 5 33 23 53 23 26 0 -5 4 -8 9 -5 5 3 7 14 4 25 -3
10 2 32 10 47 20 40 29 96 17 114 -8 12 -10 10 -10 -10 0 -20 -2 -22 -10 -10
-13 20 -12 26 4 43 23 22 72 207 55 207 -4 0 -11 -16 -15 -35 -8 -42 -24 -46
-24 -6 0 16 -3 36 -6 45 -4 11 -1 16 10 16 13 0 16 11 16 49 0 27 4 51 9 53 5
2 11 32 12 68 3 73 9 93 20 64 7 -16 8 -16 8 7 1 14 -8 45 -20 68 -11 24 -17
46 -14 49 9 9 35 -28 35 -50 0 -11 5 -15 15 -12 8 4 12 10 9 15 -3 5 2 12 11
15 14 6 14 8 -2 19 -16 12 -17 14 -2 20 9 3 19 20 23 36 7 34 52 82 114 119
37 22 42 29 42 65 1 39 1 39 14 16 13 -24 13 -24 20 12 4 20 4 48 1 64 -5 24
-5 26 6 9 9 -15 13 -16 20 -5 5 8 3 16 -4 21 -8 5 -5 14 11 31 12 13 22 31 22
40 0 21 17 31 24 15 6 -12 3 11 -11 82 -3 18 -2 21 5 11 17 -23 20 12 21 223
0 161 3 203 16 222 11 17 15 50 15 119 0 89 9 118 25 78 3 -10 9 -48 12 -85 3
-38 10 -68 14 -68 12 0 11 63 0 131 -13 75 -21 169 -12 139 11 -40 19 -11 16
62 -1 45 2 66 9 65 7 -1 11 24 11 74 0 76 0 76 19 55 13 -14 17 -16 13 -5 -3
9 -9 37 -12 63 -4 25 -11 49 -16 51 -4 3 -6 11 -3 18 2 7 -2 29 -10 49 -16 38
-13 50 10 41 8 -3 14 1 14 11 0 9 -4 16 -9 16 -5 0 -15 16 -22 35 -7 19 -17
35 -21 35 -4 0 -8 9 -8 20 0 11 5 20 10 20 6 0 10 5 10 10 0 6 -7 10 -15 10
-16 0 -35 30 -35 54 0 10 6 13 15 10 8 -4 15 -1 15 6 0 6 -7 18 -15 26 -15 16
-21 54 -7 54 4 0 21 -9 37 -20 54 -36 62 -19 15 28 -35 35 -39 48 -10 30 17
-11 22 -10 31 2 8 11 9 9 4 -9 l-7 -24 25 19 c30 22 42 55 24 69 -13 10 -47
61 -47 69 0 3 7 3 15 0 22 -9 18 4 -10 38 -28 33 -32 58 -10 58 8 0 16 8 17
18 0 9 2 22 2 29 1 6 4 15 8 18 4 4 -9 23 -28 42 -26 26 -33 40 -28 55 5 16 3
20 -8 15 -8 -3 -15 0 -16 6 0 7 -4 22 -7 34 -6 20 -4 21 33 20 53 -2 73 16 65
56 -3 18 -10 37 -15 44 -6 7 -5 19 3 31 10 16 10 23 -4 36 -8 9 -22 16 -29 16
-8 0 -19 5 -26 12 -9 9 -12 6 -12 -15 0 -15 -4 -27 -8 -27 -19 0 -21 14 -5 40
9 15 13 35 10 44 -9 22 -5 31 11 28 10 -3 10 1 0 17 -10 17 -10 25 0 41 10 16
10 20 0 20 -7 0 -24 3 -37 7 -18 5 -22 3 -16 -7 5 -9 4 -11 -3 -6 -19 11 -14
37 8 43 25 7 27 21 3 19 -13 -1 -17 5 -15 23 1 13 -5 29 -15 36 -11 8 -16 25
-15 50 1 25 -4 42 -15 50 -13 10 -16 25 -14 59 2 38 -2 50 -23 71 -14 14 -26
30 -26 35 0 4 -6 11 -12 13 -10 4 -10 6 0 6 20 2 14 29 -8 33 -28 4 -28 20 1
35 23 12 21 13 -18 13 l-43 0 0 68 c0 40 -5 73 -12 80 -9 9 44 12 240 12 l252
0 0 50 0 50 40 0 40 0 0 -50 0 -50 400 0 400 0 0 -40 0 -40 159 0 c114 0 160
3 163 12 3 9 50 9 204 0 109 -7 252 -12 317 -12 l117 0 0 -40 0 -40 40 0 40 0
0 40 c0 39 1 40 35 40 33 0 35 2 35 35 l0 35 -75 0 c-50 0 -75 4 -75 11 0 8
18 10 61 5 34 -3 220 -6 413 -7 193 0 345 -3 339 -6 -7 -2 -13 -20 -13 -39 0
-33 1 -34 41 -34 41 0 41 0 39 38 -1 20 -2 56 -1 80 l1 42 80 0 80 0 0 40 0
40 53 -1 c28 0 46 -3 40 -6 -7 -2 -13 -20 -13 -39 l0 -34 75 0 75 0 0 40 0 40
45 0 45 0 0 40 0 40 120 0 120 0 0 -40 c0 -22 -4 -41 -10 -41 -5 -1 -37 -3
-70 -4 -33 -1 -64 -3 -70 -4 -5 0 -10 -17 -10 -36 l0 -35 361 0 360 0 -3 38
c-3 36 -4 37 -43 36 l-40 0 4 43 3 43 319 0 319 0 0 -40 0 -40 80 0 c73 0 80
-2 80 -20 0 -17 7 -20 40 -20 32 0 40 -4 40 -19 0 -15 11 -19 61 -25 34 -3 86
-6 115 -6 l54 0 0 40 0 39 -117 4 -118 3 123 2 122 2 0 -40 0 -40 280 0 280 0
0 40 0 40 120 0 120 0 0 40 0 40 40 0 c22 0 40 5 40 10 0 6 33 10 80 10 47 0
80 -4 80 -10 0 -5 18 -10 40 -10 l40 0 0 -46 0 -47 61 7 c34 3 69 6 78 6 13 0
16 8 13 40 l-4 40 46 0 46 0 0 -39 0 -39 516 0 c284 -1 519 -3 522 -6 3 -3
-31 -6 -76 -6 l-82 0 0 -35 0 -35 1000 0 1000 0 0 40 0 40 80 0 80 0 0 40 0
40 120 0 120 0 0 38 0 39 -302 6 c-340 8 -529 8 -511 0 14 -5 19 -162 6 -164
-5 -1 -24 -2 -43 -3 l-35 -2 4 43 3 43 -41 0 c-30 0 -41 4 -41 15 0 11 -11 15
-40 15 -29 0 -40 -4 -40 -15 0 -11 11 -15 40 -15 l40 0 0 -43 0 -42 -202 0
-203 0 3 82 3 83 -40 0 -41 0 0 120 0 120 -40 0 -40 0 0 40 c0 40 0 40 -39 40
l-39 0 -7 80 c-5 58 -11 80 -21 80 -11 0 -14 18 -14 80 0 73 -2 80 -19 80 -16
0 -21 -8 -24 -42 -2 -24 -4 12 -5 80 -2 101 -5 122 -17 122 -13 0 -15 42 -15
320 l0 320 -3780 0 -3780 0 0 -40 0 -40 -40 0 -40 0 0 -40 0 -40 -40 0 -40 0
0 -40 0 -40 -40 0 -40 0 0 40 0 40 -120 0 -120 0 0 40 0 40 -40 0 -40 0 0 40
0 40 -1080 0 -1080 0 0 -40 0 -40 -40 0 -40 0 0 -40 0 -40 -40 0 -40 0 0 -40
0 -40 -40 0 -40 0 0 -40 0 -40 -40 0 -40 0 0 -40 0 -40 -80 0 -80 0 0 -40 0
-40 -120 0 -120 0 0 40 0 40 -120 0 -120 0 0 40 0 40 -40 0 -40 0 0 40 0 40
-40 0 -40 0 0 -80 0 -80 -240 0 -240 0 0 -40 0 -40 -200 0 -200 0 0 40 0 40
-40 0 -40 0 0 40 0 40 -40 0 -40 0 0 40 0 40 -40 0 -40 0 0 40 c0 36 -2 40
-25 40 -25 0 -25 1 -25 80 l0 80 -2295 0 -2295 0 0 -1480z m12880 -83 c0 -42
-1 -43 -32 -42 -46 1 -58 11 -58 51 0 34 0 34 45 34 l45 0 0 -43z m160 0 l0
-43 -42 0 -43 0 4 43 c3 43 3 43 42 43 l39 0 0 -43z m4320 0 l0 -42 -162 0
-163 0 4 42 3 43 159 0 159 0 0 -43z m-13655 -797 c-3 -5 -10 -10 -16 -10 -5
0 -9 5 -9 10 0 6 7 10 16 10 8 0 12 -4 9 -10z m-9 -143 c19 -11 18 -27 -2 -27
-13 0 -15 -6 -10 -27 5 -21 4 -24 -4 -13 -5 8 -9 51 -8 95 1 58 3 66 5 30 3
-30 10 -53 19 -58z m3174 -522 c5 -3 10 -2 10 2 0 5 18 7 40 5 27 -3 40 0 40
8 0 8 7 9 18 5 9 -4 61 -9 116 -10 54 -2 103 -8 109 -14 6 -6 26 -11 44 -11
30 0 33 -3 33 -30 0 -28 2 -30 40 -30 25 0 40 -5 40 -12 0 -7 9 -2 20 12 20
25 20 25 35 5 10 -12 12 -21 5 -23 -5 -2 -10 -21 -10 -42 0 -28 -5 -40 -17
-43 -17 -4 -17 -4 -1 -11 21 -9 48 14 48 41 1 22 27 59 37 50 3 -4 14 -24 24
-45 17 -36 17 -36 18 -9 1 25 4 27 41 27 36 0 40 -3 40 -24 0 -13 -6 -26 -12
-29 -10 -4 -10 -7 0 -18 10 -11 12 -10 12 4 0 9 5 17 10 17 6 0 10 18 10 40 0
34 3 40 21 40 19 0 21 5 17 40 -2 28 0 40 9 40 8 0 13 -14 13 -40 0 -22 5 -40
10 -40 6 0 10 -18 10 -40 0 -22 -4 -40 -10 -40 -5 0 -10 -7 -10 -15 0 -23 77
-21 84 3 3 9 4 -9 1 -40 l-4 -58 40 0 c21 0 39 -5 39 -11 0 -5 5 -7 10 -4 6 3
10 33 10 66 0 56 1 59 24 59 13 0 27 6 29 13 3 6 6 2 6 -10 1 -13 6 -23 12
-23 6 0 9 6 6 13 -4 10 2 13 18 9 29 -5 25 -19 -22 -83 -32 -45 -43 -89 -23
-89 6 0 10 6 10 14 0 18 80 71 81 54 0 -9 2 -10 5 -1 3 6 21 28 40 48 19 20
34 41 34 46 0 5 7 9 15 9 8 0 15 7 15 16 0 9 6 14 13 11 8 -3 11 -21 9 -55 -3
-42 -1 -52 12 -52 12 0 16 -10 16 -40 0 -30 -4 -40 -16 -40 -9 0 -14 -6 -12
-12 3 -8 26 -14 56 -16 48 -3 52 -5 52 -28 0 -13 5 -24 10 -24 6 0 10 -18 10
-40 0 -33 3 -40 20 -40 19 0 20 -7 20 -119 0 -66 4 -121 8 -123 5 -1 12 -20
15 -40 5 -33 3 -38 -14 -38 -17 0 -19 -8 -19 -79 0 -44 -4 -81 -9 -83 -5 -1
-12 -38 -16 -80 l-7 -78 31 0 c31 0 31 0 31 -56 0 -36 5 -61 15 -70 12 -12 15
-43 15 -144 0 -71 4 -130 9 -132 4 -1 11 -37 14 -78 3 -41 11 -76 16 -78 6 -2
11 -21 11 -43 0 -21 5 -39 10 -39 6 0 10 -5 10 -11 0 -8 -5 -8 -15 1 -8 7 -15
17 -15 22 0 12 -42 58 -52 58 -4 0 -19 11 -34 25 -26 24 -26 25 -5 25 30 0 26
14 -9 27 -27 10 -30 16 -30 52 0 23 -4 41 -10 41 -5 0 -10 7 -10 16 0 14 -8
16 -50 11 -46 -6 -96 5 -110 24 -3 4 -14 8 -25 10 -11 3 -20 9 -20 14 -2 35
-35 78 -35 45 0 -14 -231 -13 -267 1 -15 6 -68 13 -117 15 -56 2 -93 8 -97 16
-11 18 -115 12 -305 -18 -28 -4 -50 -1 -72 10 -34 18 -102 22 -102 6 0 -5 -18
-10 -40 -10 -22 0 -40 -4 -40 -10 0 -5 -12 -21 -26 -35 -22 -22 -42 -28 -123
-39 l-96 -13 83 -1 c45 0 82 4 82 9 0 5 10 9 23 8 l22 0 -22 -9 c-13 -5 -23
-14 -23 -19 0 -10 -93 -6 -180 9 -303 51 -321 48 -205 -28 36 -24 65 -48 65
-53 0 -6 7 -17 15 -25 8 -9 15 -21 15 -27 -1 -7 -9 -2 -19 11 -11 12 -24 22
-29 22 -5 0 -12 6 -15 14 -9 22 -115 90 -182 116 -33 12 -73 29 -90 37 l-30
14 30 -6 c17 -3 56 -9 88 -12 40 -4 57 -10 57 -20 0 -11 4 -11 20 -3 18 10
215 -9 278 -26 13 -4 22 -2 22 5 0 6 -10 11 -22 12 -13 0 -17 3 -11 6 20 7 -2
38 -37 53 -16 7 -30 16 -30 21 0 5 -13 9 -30 9 -20 0 -30 5 -30 15 0 11 -11
15 -40 15 -29 0 -40 4 -40 15 0 11 -14 15 -57 17 -106 4 -112 4 -119 11 -4 4
-2 7 4 7 7 0 12 7 12 15 0 11 -11 15 -40 15 -36 0 -40 3 -40 25 0 20 -5 25
-25 25 -22 0 -25 4 -25 40 0 29 -4 40 -15 40 -11 0 -15 -11 -15 -40 l0 -40
-40 0 -40 0 0 40 0 40 -40 0 c-29 0 -40 -4 -40 -15 0 -11 -11 -15 -40 -15 -22
0 -40 -4 -40 -10 0 -5 -18 -10 -40 -10 -29 0 -40 4 -40 15 0 11 -11 15 -40 15
-29 0 -40 -4 -40 -15 0 -22 -13 -18 -40 10 l-23 25 31 0 c31 0 32 2 32 40 l0
40 -40 0 c-29 0 -40 4 -40 15 0 12 16 15 80 15 l80 0 0 -55 0 -55 80 0 80 0 0
80 c0 47 -4 80 -10 80 -5 0 -10 18 -10 40 0 22 5 40 10 40 6 0 10 -18 10 -40
0 -29 4 -40 15 -40 12 0 15 16 15 80 0 79 0 80 -25 80 -22 0 -25 4 -25 40 0
22 5 40 10 40 6 0 10 18 10 40 l0 40 40 0 40 0 0 40 0 40 40 0 c29 0 40 4 40
15 0 11 -11 15 -40 15 l-40 0 0 65 c0 51 3 65 15 65 12 0 15 16 15 80 0 64 -3
80 -15 80 -11 0 -15 -11 -15 -40 0 -22 -4 -40 -10 -40 -5 0 -10 18 -10 40 0
22 5 40 10 40 6 0 10 33 10 80 l0 80 40 0 c29 0 40 -4 40 -15 0 -11 11 -15 40
-15 l40 0 0 55 0 55 40 0 c22 0 40 5 40 10 0 6 60 10 160 10 100 0 160 -4 160
-10 0 -16 47 -12 54 5 7 20 26 19 26 -2 0 -14 3 -14 19 4 17 18 26 19 70 12
28 -4 55 -11 61 -14z m647 -37 c-3 -8 -6 -5 -6 6 -1 11 2 17 5 13 3 -3 4 -12
1 -19z m83 -18 c0 -38 -2 -40 -30 -40 -28 0 -30 2 -30 40 0 38 2 40 30 40 28
0 30 -2 30 -40z m130 -31 c0 -5 -7 -9 -15 -9 -15 0 -20 12 -9 23 8 8 24 -1 24
-14z m108 -121 c-1 -51 -2 -51 -5 -10 -2 23 -9 42 -14 42 -6 0 -7 5 -4 10 15
24 25 6 23 -42z m169 -10 c-3 -8 -6 -5 -6 6 -1 11 2 17 5 13 3 -3 4 -12 1 -19z
m-2090 -1004 c-3 -3 -12 -4 -19 -1 -8 3 -5 6 6 6 11 1 17 -2 13 -5z m98 -144
c13 -5 14 -9 5 -9 -8 0 -24 4 -35 9 -13 5 -14 9 -5 9 8 0 24 -4 35 -9z m1825
-106 c0 -9 -7 -14 -17 -12 -25 5 -28 28 -4 28 12 0 21 -6 21 -16z m-4067 -7
c3 -8 1 -20 -4 -28 -6 -10 -9 -7 -9 14 0 29 5 35 13 14z m3187 -37 c0 -5 -9
-10 -21 -10 -11 0 -17 5 -14 10 3 6 13 10 21 10 8 0 14 -4 14 -10z m316 -24
c126 -8 292 -15 369 -15 142 0 400 -31 434 -51 12 -8 7 -9 -19 -5 -112 16
-258 25 -425 26 -155 1 -209 -3 -294 -20 -58 -11 -107 -19 -109 -16 -2 2 31
15 74 28 l79 24 -45 6 c-25 3 -119 12 -210 19 -102 8 -152 15 -130 18 19 4 38
5 41 3 4 -1 109 -9 235 -17z m561 -2 c-3 -3 -12 -4 -19 -1 -8 3 -5 6 6 6 11 1
17 -2 13 -5z m403 -10 c0 -14 -3 -14 -15 -4 -8 7 -15 14 -15 16 0 2 7 4 15 4
8 0 15 -7 15 -16z m-481 -60 c3 -3 -15 -4 -41 -3 -26 2 -50 0 -54 -4 -4 -4 -1
-7 7 -8 8 0 4 -4 -9 -9 -26 -11 -61 -2 -41 11 8 5 0 9 -22 13 -19 3 -45 8 -59
10 -14 2 29 2 94 0 66 -2 122 -7 125 -10z m-322 0 c-3 -3 -12 -4 -19 -1 -8 3
-5 6 6 6 11 1 17 -2 13 -5z m-644 -11 c-7 -2 -19 -2 -25 0 -7 3 -2 5 12 5 14
0 19 -2 13 -5z m1360 0 c-7 -2 -21 -2 -30 0 -10 3 -4 5 12 5 17 0 24 -2 18 -5z
m-1240 -27 c90 -23 117 -43 117 -86 -1 -24 -1 -24 -12 -5 -34 60 -99 84 -231
86 -50 0 -66 3 -52 9 31 13 119 11 178 -4z m-303 -6 c0 -5 -2 -10 -4 -10 -3 0
-8 5 -11 10 -3 6 -1 10 4 10 6 0 11 -4 11 -10z m1226 -17 c-10 -10 -19 5 -10
18 6 11 8 11 12 0 2 -7 1 -15 -2 -18z m-186 -3 c-20 -13 -50 -13 -50 0 0 6 15
10 33 10 24 0 28 -3 17 -10z m2 -31 c15 -8 22 -8 28 1 5 9 22 11 50 7 48 -6
60 -14 41 -26 -7 -5 -11 -13 -7 -19 3 -5 -13 -12 -37 -16 l-42 -7 35 -16 c47
-22 47 -23 27 -34 -9 -6 -17 -15 -17 -21 0 -6 -8 -16 -17 -23 -14 -10 -15 -16
-5 -28 15 -17 -2 -27 -45 -27 -18 0 -24 -4 -19 -15 3 -8 1 -15 -4 -15 -6 0
-10 -4 -10 -10 0 -15 26 -12 40 5 7 8 16 12 22 9 17 -11 -14 -34 -47 -34 -40
0 -63 23 -46 44 10 11 8 16 -5 24 -23 13 -11 42 18 42 13 0 30 5 38 10 13 9
13 11 0 20 -8 5 -25 10 -37 10 -25 0 -31 24 -11 36 7 4 28 11 48 15 31 6 32 7
8 8 -17 1 -28 7 -28 15 0 7 -7 19 -15 26 -32 27 -5 41 37 19z m-935 -31 c-3
-8 -6 -5 -6 6 -1 11 2 17 5 13 3 -3 4 -12 1 -19z m-67 -13 c0 -8 -4 -17 -10
-20 -6 -4 -10 5 -10 20 0 15 4 24 10 20 6 -3 10 -12 10 -20z m158 -5 c11 -24
11 -36 1 -65 -12 -32 -29 -48 -29 -27 0 5 -11 14 -24 22 -18 9 -24 21 -24 44
1 38 14 56 42 56 14 0 26 -10 34 -30z m235 -40 c-3 -11 -9 -20 -14 -20 -5 0
-9 9 -9 20 0 11 6 20 14 20 9 0 12 -7 9 -20z m-2033 -25 c0 -8 -4 -15 -9 -15
-13 0 -22 16 -14 24 11 11 23 6 23 -9z m2810 -20 c0 -8 -4 -15 -9 -15 -5 0
-11 7 -15 15 -3 9 0 15 9 15 8 0 15 -7 15 -15z m-51 -57 c-1 -24 -4 -34 -6
-23 -3 11 -10 23 -17 27 -8 6 -7 8 2 8 6 0 12 7 12 15 0 8 2 15 5 15 3 0 4
-19 4 -42z m-1017 -5 c20 -18 24 -33 8 -33 -5 0 -10 7 -10 15 0 7 -8 19 -17
24 -10 6 -14 11 -9 11 5 0 18 -7 28 -17z m1873 -89 c16 -12 17 -17 7 -32 -7
-9 -18 -28 -24 -42 -19 -39 -56 -71 -65 -57 -15 23 -33 82 -33 107 l0 25 21
-25 c11 -14 18 -18 16 -10 -6 19 21 50 42 50 9 0 25 -7 36 -16z m-980 -4 c3
-5 -1 -10 -10 -10 -9 0 -13 5 -10 10 3 6 8 10 10 10 2 0 7 -4 10 -10z m-1023
-72 c-9 -9 -12 -7 -12 12 0 19 3 21 12 12 9 -9 9 -15 0 -24z m2128 -18 c0 -5
-5 -10 -11 -10 -5 0 -7 5 -4 10 3 6 8 10 11 10 2 0 4 -4 4 -10z m-195 -110
c15 0 24 -4 20 -10 -3 -5 -17 -10 -31 -10 -13 0 -24 -4 -24 -10 0 -19 -17 -10
-28 14 -13 29 -6 39 19 26 10 -6 29 -10 44 -10z m-3449 -183 c29 -34 55 -77
47 -77 -16 1 -49 36 -65 68 -19 37 -10 42 18 9z m3401 -139 c-3 -8 -6 -5 -6 6
-1 11 2 17 5 13 3 -3 4 -12 1 -19z m-1947 -73 c0 -11 -11 -15 -40 -15 -29 0
-40 4 -40 15 0 11 11 15 40 15 29 0 40 -4 40 -15z m-510 -15 c-8 -5 -19 -10
-25 -10 -5 0 -3 5 5 10 8 5 20 10 25 10 6 0 3 -5 -5 -10z m-53 -29 c-3 -15 0
-17 17 -13 20 5 20 5 3 -21 -9 -14 -17 -35 -17 -47 0 -11 -4 -20 -10 -20 -5 0
-14 -18 -20 -40 -6 -22 -15 -40 -20 -40 -6 0 -10 -24 -10 -53 0 -50 -17 -107
-32 -107 -4 0 -18 -11 -32 -25 -19 -19 -35 -25 -71 -25 -32 0 -45 -4 -45 -14
0 -8 6 -17 13 -20 10 -5 10 -7 0 -12 -7 -3 -13 -19 -13 -35 0 -26 -4 -29 -30
-29 -16 0 -30 -4 -30 -10 0 -5 -22 -10 -50 -10 -27 0 -50 5 -50 10 0 6 18 10
40 10 29 0 40 4 40 15 0 12 -16 15 -80 15 -79 0 -80 0 -80 25 0 23 -4 25 -40
25 l-40 0 0 40 c0 29 4 40 15 40 11 0 15 11 15 40 l0 40 -40 0 -40 0 0 89 c0
100 9 112 65 91 16 -6 48 -8 73 -4 32 5 43 4 38 -5 -5 -7 1 -11 13 -11 12 0
21 4 21 9 0 4 33 11 73 13 68 5 278 66 302 89 15 15 28 10 22 -10z m1123 -207
c0 -8 -4 -12 -10 -9 -5 3 -10 10 -10 16 0 5 5 9 10 9 6 0 10 -7 10 -16z m696
-72 c-27 -2 -52 0 -57 5 -4 4 18 6 49 3 l57 -5 -49 -3z m-654 -129 c3 -45 5
-48 31 -48 29 0 43 -18 68 -92 l14 -38 5 40 6 40 13 -44 c12 -43 11 -51 -11
-84 -11 -14 -10 -19 1 -27 12 -7 12 -13 4 -32 l-12 -23 0 28 c-1 28 -25 38
-34 13 -6 -15 -47 -29 -47 -15 0 5 -18 9 -40 9 -29 0 -40 4 -40 15 0 11 -11
15 -40 15 -33 0 -40 -4 -40 -19 0 -13 -13 -24 -40 -35 -46 -18 -120 -21 -120
-5 0 8 -24 9 -80 4 -76 -7 -80 -6 -80 13 0 43 -66 92 -124 92 -35 0 -49 14
-23 23 6 2 3 3 -7 1 -10 -2 -33 4 -50 13 l-31 16 30 13 c17 7 40 10 52 7 31
-7 48 6 28 21 -15 11 -15 15 0 47 15 32 23 37 78 49 46 10 62 10 65 2 2 -7 15
-12 29 -12 23 0 24 -2 18 -40 -6 -33 -4 -40 10 -40 38 0 1 -18 -50 -25 -30 -3
-55 -10 -55 -15 0 -11 31 -28 45 -25 6 2 36 8 68 15 54 13 57 15 57 44 0 17
-4 45 -8 61 -10 35 -6 55 13 55 7 0 15 5 17 10 2 6 13 4 26 -6 16 -11 21 -22
17 -37 -5 -17 -4 -19 4 -7 7 11 29 15 78 15 37 0 60 1 51 3 -10 2 -18 10 -18
17 0 8 -10 16 -22 18 -15 3 -9 5 14 6 20 0 48 -3 62 -9 21 -7 26 -6 26 5 0 8
9 15 19 15 17 0 20 -8 23 -47z m274 -185 c-3 -7 -9 -21 -12 -30 -7 -20 -44
-25 -44 -6 0 17 31 48 47 48 8 0 12 -6 9 -12z m-616 -237 c0 -6 -4 -13 -10
-16 -5 -3 -10 -2 -10 4 0 5 -8 12 -17 14 -11 3 -7 5 10 6 15 0 27 -3 27 -8z
m-1200 -56 c10 -12 10 -15 -4 -15 -9 0 -16 7 -16 15 0 8 2 15 4 15 2 0 9 -7
16 -15z m-1747 -362 c-7 -2 -21 -2 -30 0 -10 3 -4 5 12 5 17 0 24 -2 18 -5z
m-33 -93 c0 -5 -4 -10 -9 -10 -6 0 -13 5 -16 10 -3 6 1 10 9 10 9 0 16 -4 16
-10z m-40 -172 c0 -17 -19 -87 -29 -113 -24 -55 -41 -113 -41 -135 1 -26 0
-28 61 106 11 22 19 50 19 62 0 29 20 28 21 0 2 -40 -1 -61 -28 -172 l-26
-109 18 -73 c10 -41 21 -74 24 -74 3 0 15 -18 25 -40 11 -22 23 -40 28 -40 4
0 8 -7 8 -15 0 -8 9 -20 20 -27 11 -7 20 -18 20 -25 0 -7 3 -13 8 -13 4 0 18
-18 32 -40 13 -22 28 -40 32 -40 4 0 8 -6 8 -14 0 -8 7 -16 15 -20 8 -3 20
-16 26 -30 6 -13 22 -29 36 -35 34 -16 18 -34 -23 -26 -42 7 -60 -1 -43 -21
10 -12 2 -14 -45 -14 -40 0 -58 4 -62 15 -4 10 -15 12 -35 8 -23 -4 -34 1 -59
26 -18 17 -35 29 -40 26 -9 -5 -34 22 -43 48 -4 9 -16 17 -27 17 -15 0 -20 7
-20 25 0 14 -4 25 -9 25 -6 0 -22 16 -37 36 -20 25 -28 49 -30 84 -1 27 -9 56
-17 64 -32 33 -32 186 1 186 13 0 13 2 -2 13 -13 9 -16 20 -11 40 4 15 11 27
16 27 5 0 9 12 9 28 0 34 31 162 39 162 8 0 41 -76 41 -95 0 -8 7 -15 15 -15
8 0 15 1 15 3 0 1 16 41 35 87 19 46 35 90 35 97 0 7 5 13 10 13 6 0 10 -6 10
-12z m120 -1033 c0 -18 -3 -17 37 -6 18 5 45 6 60 1 25 -7 22 -8 -19 -9 -26
-1 -50 -5 -53 -11 -3 -5 1 -10 9 -10 9 0 16 -4 16 -8 0 -5 23 -15 51 -22 56
-15 67 -25 43 -34 -24 -9 -54 3 -92 35 -18 16 -36 29 -40 29 -4 0 -15 12 -25
25 -15 22 -16 25 -2 25 8 0 15 -7 15 -15z m2303 -142 c-13 -2 -33 -2 -45 0
-13 2 -3 4 22 4 25 0 35 -2 23 -4z m-2163 -143 c0 -5 -4 -10 -10 -10 -5 0 -10
5 -10 10 0 6 5 10 10 10 6 0 10 -4 10 -10z m1300 -30 c0 -29 -4 -40 -15 -40
-11 0 -15 11 -15 40 0 29 4 40 15 40 11 0 15 -11 15 -40z m-2140 -161 c0 -5
-4 -9 -10 -9 -5 0 -10 7 -10 16 0 8 5 12 10 9 6 -3 10 -10 10 -16z m-20 -56
c0 -8 -4 -12 -10 -8 -5 3 -19 -4 -31 -16 -17 -17 -19 -23 -8 -30 10 -6 8 -9
-8 -9 -13 0 -23 -4 -23 -10 0 -5 -18 -10 -40 -10 -22 0 -40 5 -40 10 0 10 27
14 63 10 13 -1 18 4 17 17 -5 45 0 62 23 65 33 5 57 -3 57 -19z m29 -37 c9
-11 10 -20 1 -35 -16 -32 -30 -25 -30 14 0 37 10 44 29 21z m161 -30 c0 -13
-35 -46 -50 -46 -6 0 -10 -7 -10 -15 0 -19 -37 -20 -56 -1 -24 25 -18 47 11
40 19 -5 25 -2 25 10 0 10 9 16 25 16 14 0 25 4 25 10 0 5 7 7 15 4 8 -4 15
-11 15 -18z m-446 -45 c8 -12 -20 -22 -39 -15 -19 8 -9 24 15 24 10 0 21 -4
24 -9z m523 -22 c13 -13 6 -40 -14 -52 -7 -4 -13 -15 -13 -22 0 -18 -16 -20
-17 -2 0 6 -4 24 -8 40 -6 21 -4 27 9 27 9 0 16 5 16 10 0 13 13 13 27 -1z
m-267 -25 c0 -8 -4 -12 -10 -9 -5 3 -10 10 -10 16 0 5 5 9 10 9 6 0 10 -7 10
-16z m-273 -50 c3 -8 11 -14 19 -14 8 0 14 -4 14 -10 0 -5 -18 -10 -40 -10
-39 0 -40 1 -40 35 0 33 2 35 21 25 11 -6 23 -18 26 -26z m619 1 c4 -10 21
-15 53 -15 45 -1 45 -1 21 -15 -14 -8 -42 -14 -62 -15 -36 0 -38 2 -38 30 0
31 16 41 26 15z m1734 -25 c0 -5 -4 -10 -10 -10 -5 0 -10 5 -10 10 0 6 5 10
10 10 6 0 10 -4 10 -10z m-1935 -30 c0 -18 -33 -26 -47 -12 -6 6 -7 15 -3 22
10 16 50 8 50 -10z m285 -30 c12 -8 11 -10 -7 -10 -13 0 -23 5 -23 10 0 13 11
13 30 0z m-430 -26 c0 -17 -22 -14 -28 4 -2 7 3 12 12 12 9 0 16 -7 16 -16z
m2060 6 c0 -5 -4 -10 -9 -10 -6 0 -13 5 -16 10 -3 6 1 10 9 10 9 0 16 -4 16
-10z m-1580 -25 c0 -8 -4 -15 -10 -15 -5 0 -10 7 -10 15 0 8 5 15 10 15 6 0
10 -7 10 -15z m100 -36 c0 -5 -12 -9 -27 -9 -27 1 -27 1 -9 15 19 14 36 12 36
-6z m-160 1 c0 -5 -4 -10 -10 -10 -5 0 -10 5 -10 10 0 6 5 10 10 10 6 0 10 -4
10 -10z m-260 -50 l0 -40 -40 0 -40 0 0 40 0 40 40 0 40 0 0 -40z m560 -5 c0
-11 -11 -15 -40 -15 -29 0 -40 4 -40 15 0 11 11 15 40 15 29 0 40 -4 40 -15z
m-80 -45 c0 -5 -9 -10 -19 -10 -11 0 -23 5 -26 10 -4 6 5 10 19 10 14 0 26 -4
26 -10z m107 4 c-3 -3 -12 -4 -19 -1 -8 3 -5 6 6 6 11 1 17 -2 13 -5z m1413
-10 c0 -8 -4 -12 -10 -9 -5 3 -10 10 -10 16 0 5 5 9 10 9 6 0 10 -7 10 -16z
m-1360 -24 c0 -5 -7 -10 -15 -10 -8 0 -15 5 -15 10 0 6 7 10 15 10 8 0 15 -4
15 -10z m100 -21 c0 -20 -26 -38 -41 -28 -8 5 -24 9 -36 9 -13 0 -23 5 -23 10
0 6 18 10 40 10 22 0 40 5 40 11 0 5 5 7 10 4 6 -3 10 -11 10 -16z m-153 -15
c-3 -3 -12 -4 -19 -1 -8 3 -5 6 6 6 11 1 17 -2 13 -5z m290 0 c-3 -3 -12 -4
-19 -1 -8 3 -5 6 6 6 11 1 17 -2 13 -5z m643 -214 c0 -5 -5 -10 -11 -10 -5 0
-7 5 -4 10 3 6 8 10 11 10 2 0 4 -4 4 -10z"/>
<path d="M6400 10545 c0 -11 11 -15 40 -15 29 0 40 4 40 15 0 11 -11 15 -40
15 -29 0 -40 -4 -40 -15z"/>
<path d="M6617 10553 c-4 -3 -7 -21 -7 -40 0 -23 5 -33 15 -33 11 0 15 11 15
40 0 38 -8 49 -23 33z"/>
<path d="M7172 10548 c6 -18 28 -21 28 -4 0 9 -7 16 -16 16 -9 0 -14 -5 -12
-12z"/>
<path d="M7555 10330 c-3 -5 -1 -10 4 -10 6 0 11 5 11 10 0 6 -2 10 -4 10 -3
0 -8 -4 -11 -10z"/>
<path d="M8040 10313 c0 -5 5 -15 10 -23 8 -12 10 -11 10 8 0 12 -4 22 -10 22
-5 0 -10 -3 -10 -7z"/>
<path d="M7788 10233 c6 -2 18 -2 25 0 6 3 1 5 -13 5 -14 0 -19 -2 -12 -5z"/>
<path d="M7837 10216 c-3 -8 -22 -20 -41 -27 -23 -8 -36 -19 -36 -31 0 -23 3
-23 48 5 20 13 45 27 55 30 10 4 17 13 15 20 -7 18 -35 20 -41 3z"/>
<path d="M6240 9960 c0 -13 5 -18 15 -14 8 4 15 10 15 14 0 4 -7 10 -15 14
-10 4 -15 -1 -15 -14z"/>
<path d="M7634 8681 c3 -5 15 -7 26 -4 28 7 25 13 -6 13 -14 0 -23 -4 -20 -9z"/>
<path d="M8555 8480 c-3 -6 1 -7 9 -4 18 7 21 14 7 14 -6 0 -13 -4 -16 -10z"/>
<path d="M6951 7454 c0 -11 3 -14 6 -6 3 7 2 16 -1 19 -3 4 -6 -2 -5 -13z"/>
<path d="M7200 7429 c0 -5 5 -7 10 -4 6 3 10 8 10 11 0 2 -4 4 -10 4 -5 0 -10
-5 -10 -11z"/>
<path d="M20000 12760 l0 -40 -80 0 -80 0 0 -38 0 -37 -72 -2 c-40 -2 -111 -4
-158 -6 l-85 -3 -3 -68 c-2 -49 1 -72 10 -77 10 -7 10 -9 1 -9 -8 0 -13 -15
-13 -40 l0 -40 -40 0 -40 0 0 -80 0 -80 -39 0 c-39 0 -40 -1 -44 -37 -2 -21
-4 -4 -5 37 l-2 76 -35 0 c-34 0 -35 -1 -35 -39 l0 -39 -80 7 -80 7 0 -46 0
-46 -40 0 -40 0 0 -40 0 -40 80 0 80 0 0 -40 0 -40 80 0 80 0 0 -40 0 -40 120
0 120 0 0 -40 0 -40 40 0 40 0 0 -120 0 -120 40 0 40 0 0 -41 0 -40 38 3 37 3
3 78 3 77 279 0 280 0 0 -80 0 -80 40 0 40 0 0 640 0 640 -240 0 -240 0 0 -40z"/>
<path d="M14880 11955 l0 -35 80 0 80 0 0 35 0 35 -80 0 -80 0 0 -35z"/>
<path d="M15600 11955 l0 -35 355 0 355 0 0 35 0 35 -355 0 -355 0 0 -35z"/>
<path d="M11520 11795 l0 -35 75 0 75 0 0 35 0 35 -75 0 -75 0 0 -35z"/>
<path d="M20240 11323 l0 -43 45 0 c44 0 45 1 45 31 0 38 -16 54 -57 55 -32 1
-33 0 -33 -43z"/>
<path d="M0 10523 l0 -43 161 0 160 0 -3 42 -3 43 -157 0 -158 0 0 -42z"/>
<path d="M20080 10198 c0 -38 0 -38 -40 -38 l-40 0 0 -40 0 -40 80 0 80 0 0
-40 0 -40 75 0 75 0 0 33 c0 48 15 57 97 57 l73 0 0 75 0 75 -80 0 -80 0 0
-40 0 -40 -40 0 -40 0 0 40 0 40 -80 -2 -80 -3 0 -37z"/>
<path d="M3600 9850 c0 -5 5 -10 11 -10 5 0 7 5 4 10 -3 6 -8 10 -11 10 -2 0
-4 -4 -4 -10z"/>
<path d="M3637 9623 c-13 -12 -7 -21 18 -25 21 -4 23 -3 14 13 -10 20 -21 24
-32 12z"/>
<path d="M17042 9360 l3 -75 318 0 317 0 0 37 c0 38 0 38 41 38 l40 0 -3 38
-3 37 -358 0 -358 0 3 -75z"/>
<path d="M310 9280 l0 -80 -35 0 c-34 0 -35 1 -35 39 l0 38 -61 7 c-34 3 -88
6 -120 6 l-59 0 0 -1245 0 -1245 160 0 160 0 0 -40 0 -40 120 0 120 0 0 40 0
40 40 0 40 0 0 40 0 40 40 0 40 0 0 80 0 80 40 0 40 0 0 80 0 80 -40 0 -40 0
0 79 0 80 -42 3 c-52 4 -53 9 -43 145 l7 93 39 0 c39 0 39 0 39 39 0 39 1 40
38 43 l37 3 3 60 c4 72 -5 116 -19 94 -7 -12 -9 -12 -9 1 0 13 -1 13 -10 0 -9
-13 -10 -13 -10 0 0 13 -1 13 -10 0 -9 -13 -10 -13 -10 0 0 13 -1 13 -10 0 -9
-13 -10 -13 -10 0 0 13 -1 13 -10 0 -9 -13 -10 -13 -10 0 0 13 -1 13 -10 0 -9
-13 -10 -13 -10 0 0 13 -1 13 -10 0 -5 -8 -10 -13 -10 -10 -1 3 -2 42 -3 88
l-2 82 38 0 c37 0 37 0 37 40 l0 40 120 0 120 0 0 80 0 80 80 0 80 0 0 80 0
80 -40 0 -40 0 0 40 0 40 40 0 40 0 0 40 0 40 -40 0 c-40 0 -40 0 -40 40 l0
39 121 -2 122 -2 -2 88 -2 87 40 0 c40 0 41 1 41 35 0 34 1 35 40 35 l40 0 0
40 0 40 -74 0 -74 0 -4 78 -3 78 185 -1 c102 0 209 1 238 3 l52 4 0 39 0 39
-80 0 -80 0 0 39 0 39 -82 7 c-46 4 -117 5 -158 3 l-75 -3 3 38 4 37 -172 0
-172 0 3 -37 4 -38 -155 0 -155 0 4 38 3 37 -171 0 -171 0 0 -80z"/>
<path d="M10518 9203 c34 -3 42 -8 42 -24 0 -16 -7 -19 -40 -19 -33 0 -40 -3
-40 -19 0 -16 8 -21 43 -24 l42 -4 -42 -1 c-31 -1 -43 -6 -43 -17 0 -11 -11
-15 -40 -15 l-40 0 7 -60 6 -60 -42 0 -41 0 0 -44 c0 -41 -1 -43 -25 -38 -23
4 -25 2 -25 -37 0 -29 -4 -41 -14 -41 -11 0 -16 -22 -21 -89 -7 -83 -9 -91
-36 -110 -33 -25 -37 -38 -11 -43 14 -3 13 -7 -10 -29 -16 -15 -28 -31 -28
-38 0 -6 -7 -11 -15 -11 -11 0 -15 -11 -15 -40 0 -29 -4 -40 -15 -40 -11 0
-15 -11 -15 -40 0 -38 -2 -40 -30 -40 l-30 0 0 -80 c0 -66 -3 -80 -16 -80 -13
0 -15 -12 -12 -80 2 -44 0 -80 -4 -80 -5 0 -8 18 -8 40 0 33 -3 40 -20 40 -19
0 -20 -5 -13 -120 l6 -120 -41 0 -42 0 0 -40 c0 -36 -2 -40 -25 -40 -22 0 -25
-4 -25 -40 0 -29 -4 -40 -15 -40 -11 0 -15 -11 -15 -40 0 -29 -4 -40 -15 -40
-11 0 -15 -11 -15 -40 0 -22 -4 -40 -10 -40 -5 0 -10 18 -10 40 0 29 -4 40
-15 40 -11 0 -15 -11 -15 -40 0 -29 -4 -40 -15 -40 -11 0 -15 -11 -15 -40 0
-36 -2 -40 -25 -40 -22 0 -25 -4 -25 -40 0 -29 -4 -40 -15 -40 -11 0 -15 -11
-15 -40 0 -36 -2 -40 -25 -40 -25 0 -25 -1 -25 -80 0 -58 -3 -80 -13 -80 -20
0 -37 -179 -37 -382 0 -163 -1 -178 -17 -178 -16 0 -18 -9 -15 -80 3 -68 1
-80 -12 -80 -14 0 -16 -32 -16 -280 0 -242 2 -280 15 -280 13 0 15 -20 15
-120 0 -100 3 -120 15 -120 11 0 15 -11 15 -40 0 -22 5 -40 10 -40 6 0 10 -22
10 -50 0 -43 4 -52 30 -72 26 -19 30 -28 30 -70 0 -26 5 -48 10 -48 6 0 10
-18 10 -40 0 -38 2 -40 30 -40 28 0 30 -2 30 -40 0 -22 5 -40 10 -40 6 0 10
-18 10 -40 0 -29 4 -40 15 -40 11 0 15 -11 15 -40 0 -29 4 -40 15 -40 11 0 15
-11 15 -40 0 -22 5 -40 10 -40 6 0 10 -113 10 -320 0 -278 2 -320 15 -320 11
0 15 -11 15 -40 0 -31 4 -40 18 -40 14 0 15 -2 2 -10 -13 -8 -11 -12 9 -26 29
-21 124 -117 166 -169 17 -20 40 -48 53 -61 12 -14 22 -31 22 -39 0 -8 4 -15
9 -15 9 0 171 -234 171 -246 0 -3 14 -26 30 -51 17 -24 30 -50 30 -57 0 -7 11
-36 25 -64 14 -29 25 -55 25 -58 0 -3 14 -35 30 -71 17 -35 30 -68 30 -73 0
-10 39 -97 71 -161 11 -20 19 -42 19 -48 0 -6 9 -30 19 -54 11 -23 22 -61 25
-85 4 -23 13 -62 21 -85 8 -23 20 -73 25 -112 6 -38 19 -95 30 -125 32 -92 51
-293 55 -582 2 -148 7 -273 11 -280 4 -7 9 -45 11 -86 1 -49 7 -78 18 -88 8
-9 15 -25 15 -37 0 -43 33 -117 52 -117 16 0 18 -12 18 -132 1 -120 20 -324
33 -345 3 -4 8 -35 11 -68 13 -127 19 -162 37 -232 11 -40 19 -83 19 -96 0
-12 9 -48 20 -80 11 -31 20 -79 20 -107 0 -28 4 -59 10 -69 10 -19 29 -117 37
-189 l5 -42 94 0 94 0 0 160 0 160 40 0 40 0 0 240 c0 153 -4 240 -10 240 -5
0 -10 18 -10 40 0 22 5 40 10 40 6 0 10 18 10 40 0 29 4 40 15 40 13 0 15 29
15 200 0 171 2 200 15 200 13 0 15 20 15 120 0 73 4 120 10 120 6 0 10 18 10
40 0 38 2 40 30 40 l30 0 0 80 c0 47 4 80 10 80 6 0 10 -18 10 -40 0 -29 4
-40 15 -40 11 0 15 11 15 40 0 29 4 40 15 40 13 0 15 20 15 120 l0 120 50 0
50 0 0 80 c0 64 3 80 15 80 11 0 15 11 15 40 0 29 -4 40 -15 40 -11 0 -15 11
-15 40 l0 40 40 0 40 0 0 40 c0 22 -4 40 -10 40 -5 0 -10 18 -10 40 l0 40 50
0 50 0 0 120 c0 73 -4 120 -10 120 -5 0 -10 18 -10 40 0 22 5 40 10 40 6 0 10
47 10 120 l0 120 -80 0 -80 0 0 40 0 40 -40 0 -40 0 0 159 0 160 -47 3 c-48 3
-48 3 -51 41 -2 21 1 37 7 37 6 0 11 20 11 43 0 42 1 44 28 42 48 -3 52 3 52
75 0 45 -4 70 -12 73 -10 4 -10 6 0 6 8 1 12 24 12 81 l0 80 48 1 c26 1 62 2
80 1 31 0 32 2 32 39 0 39 0 39 40 39 l40 0 0 40 c0 45 -16 41 160 44 l85 1
-3 -84 -3 -83 80 7 81 7 0 -46 0 -46 80 0 80 0 0 -40 0 -40 80 0 80 0 0 -40 0
-40 44 0 44 0 4 -40 c2 -22 0 -40 -4 -40 -5 0 -8 -18 -8 -40 0 -22 5 -40 10
-40 6 0 10 -18 10 -39 0 -36 -3 -40 -27 -43 -24 -3 -28 -8 -31 -40 -3 -30 -7
-38 -23 -38 -16 0 -19 -7 -19 -40 0 -33 -3 -40 -20 -40 -17 0 -20 -7 -20 -40
0 -33 3 -40 20 -40 19 0 20 -7 20 -120 l0 -120 -40 0 -40 0 0 -120 0 -120 -30
0 c-28 0 -30 -2 -30 -40 l0 -40 -51 0 -51 0 7 -80 7 -80 -46 0 -46 0 0 -40 0
-40 -40 0 -40 0 0 -80 c0 -73 -2 -80 -20 -80 -17 0 -20 -7 -20 -40 0 -29 -4
-40 -15 -40 -12 0 -15 -17 -17 -82 -1 -46 -3 -64 -5 -40 -3 34 -8 42 -24 42
-16 0 -19 -7 -19 -40 0 -29 -4 -40 -15 -40 -12 0 -15 -16 -15 -80 0 -79 0 -80
-25 -80 -22 0 -25 -4 -25 -40 0 -30 -4 -40 -16 -40 -13 0 -15 -17 -12 -120 l3
-120 -27 0 -28 0 0 -80 0 -80 28 0 c26 0 27 -2 24 -40 -3 -32 -1 -40 12 -40
12 0 16 -10 16 -40 0 -33 3 -40 20 -40 12 0 20 -7 20 -18 0 -9 9 -23 20 -30
16 -9 20 -23 20 -62 0 -47 2 -50 25 -50 23 0 25 -4 25 -40 l0 -40 40 0 40 0 0
-80 0 -80 35 0 c34 0 35 -1 35 -40 0 -33 -3 -40 -20 -40 -19 0 -20 -7 -20
-160 0 -153 1 -160 20 -160 19 0 20 -7 20 -240 l0 -240 335 0 335 0 0 50 c0
45 -3 51 -30 65 -16 8 -36 28 -44 44 -9 16 -27 32 -41 35 -17 4 -31 18 -40 39
-8 18 -25 38 -39 45 -14 6 -32 25 -41 42 -18 35 -35 39 -35 9 0 -11 -4 -17
-10 -14 -5 3 -10 24 -10 46 0 28 -4 39 -15 39 -11 0 -15 11 -15 40 0 36 -2 40
-25 40 -24 0 -25 2 -24 68 1 37 5 110 9 162 l7 95 3 -80 c2 -46 5 -64 7 -43 3
25 9 38 19 38 10 0 14 12 14 40 0 33 3 40 19 40 16 0 21 -8 24 -42 l4 -43 1
43 c2 40 4 42 33 42 l31 0 -4 80 c-2 44 0 80 5 80 4 0 7 18 7 40 l0 40 40 0
40 0 0 40 0 40 120 0 120 0 0 -30 c0 -16 3 -30 8 -30 10 1 72 58 73 67 0 15
81 73 100 73 15 0 19 7 19 40 0 33 3 40 20 40 17 0 20 7 20 40 0 33 3 40 20
40 17 0 20 7 20 40 0 33 3 40 20 40 17 0 20 7 20 40 0 33 3 40 20 40 18 0 20
7 20 80 0 73 -2 80 -20 80 -18 0 -20 7 -20 80 0 73 2 80 20 80 17 0 20 7 20
40 0 33 -3 40 -20 40 -17 0 -20 -7 -20 -40 l0 -40 -40 0 -40 0 0 -40 0 -40
-120 0 -120 0 0 40 0 40 40 0 40 0 0 40 0 40 40 0 40 0 0 40 0 40 40 0 40 0 0
200 c0 193 1 200 20 200 18 0 20 7 20 80 0 64 3 80 15 80 12 0 15 16 15 80 0
79 0 80 25 80 23 0 25 4 25 40 0 28 4 40 14 40 10 0 16 14 18 43 l3 42 63 -2
62 -1 0 39 c0 29 4 39 16 39 8 0 32 16 52 35 20 19 40 35 45 35 4 0 7 20 7 45
0 45 0 45 35 45 34 0 35 1 35 40 0 29 -4 40 -15 40 -12 0 -15 16 -15 80 0 73
-2 80 -20 80 -17 0 -20 7 -20 45 0 25 -3 45 -7 45 -5 0 -25 16 -45 35 -27 26
-45 35 -71 35 l-35 0 -7 80 -7 80 -39 0 c-39 0 -39 0 -39 40 0 29 -4 40 -15
40 -11 0 -15 11 -15 40 0 32 -4 40 -19 40 -15 0 -19 11 -25 61 -3 34 -6 88 -6
120 0 46 -3 59 -15 59 -11 0 -15 11 -15 40 0 33 -3 40 -20 40 -17 0 -20 7 -20
40 0 22 5 40 10 40 6 0 10 33 10 80 0 47 4 80 10 80 6 0 10 18 10 40 0 28 4
40 14 40 10 0 16 22 21 80 5 57 11 80 21 80 7 0 25 11 39 25 23 24 25 32 25
120 l0 95 35 0 35 0 0 118 c1 201 12 437 21 440 5 2 9 21 9 43 0 21 4 39 9 39
5 0 13 40 17 90 4 56 12 94 20 101 8 6 14 20 14 30 0 11 5 19 10 19 6 0 10 18
10 39 0 22 4 41 10 43 5 2 14 73 20 158 6 85 15 157 20 158 13 5 13 162 0 162
-5 0 -10 18 -10 40 0 22 -4 40 -9 40 -6 0 -11 24 -13 52 -3 48 -6 54 -33 67
-16 8 -33 18 -36 23 -3 5 -19 16 -36 26 -37 21 -93 68 -93 79 -1 4 -19 22 -40
38 -34 26 -39 35 -40 73 0 35 -3 42 -20 42 -18 0 -20 7 -20 80 0 64 -3 80 -15
80 -11 0 -15 11 -15 40 0 29 4 40 15 40 11 0 15 11 15 40 0 33 4 40 19 40 16
0 20 11 26 80 5 58 11 80 21 80 10 0 14 12 14 40 0 33 3 40 20 40 16 0 20 7
20 35 0 48 -1 46 41 80 45 36 48 45 14 45 -22 0 -24 3 -16 19 6 10 24 24 41
29 28 10 30 14 30 61 0 48 2 51 25 51 23 0 25 4 25 40 l0 40 -40 0 -40 0 0 40
c0 29 4 40 15 40 11 0 15 11 15 40 0 47 -27 58 -32 13 l-3 -28 -22 23 c-20 19
-23 32 -23 107 0 69 -3 85 -15 85 -11 0 -15 -11 -15 -40 0 -22 -4 -40 -10 -40
-6 0 -10 33 -10 80 0 64 -3 80 -15 80 -11 0 -15 11 -15 40 0 36 -2 40 -25 40
-22 0 -25 4 -25 40 0 22 5 40 10 40 6 0 10 7 10 15 0 11 -11 15 -40 15 -29 0
-40 -4 -40 -15 0 -8 -4 -15 -10 -15 -5 0 -10 18 -10 40 0 38 -2 40 -30 40 -27
0 -30 3 -30 30 0 28 -2 30 -40 30 -22 0 -40 5 -40 10 0 6 14 10 30 10 37 0 38
12 4 39 -22 17 -41 21 -110 21 -83 0 -84 0 -84 25 l0 25 -200 0 -200 0 0 -55
0 -55 -40 0 c-22 0 -40 -4 -40 -10 0 -5 -18 -10 -40 -10 -38 0 -40 -2 -40 -29
0 -16 5 -31 12 -33 9 -3 9 -6 0 -12 -7 -4 -12 -2 -12 3 0 6 -13 11 -30 11 -28
0 -30 -2 -30 -40 0 -22 -4 -40 -10 -40 -5 0 -10 7 -10 15 0 11 -11 15 -41 15
-32 0 -40 -3 -38 -17 5 -56 1 -63 -41 -63 -29 0 -40 -4 -40 -15 0 -8 5 -15 12
-15 9 0 9 -3 0 -12 -7 -7 -12 -25 -12 -40 0 -24 -4 -28 -28 -28 -15 0 -33 -5
-40 -12 -9 -9 -12 -9 -12 0 0 7 -7 12 -15 12 -11 0 -15 -12 -15 -45 0 -33 -6
-51 -22 -67 l-23 -23 -3 28 c-5 45 -32 34 -32 -13 0 -29 -4 -40 -15 -40 -11 0
-15 -11 -15 -40 0 -22 -4 -40 -10 -40 -5 0 -10 -18 -10 -40 0 -33 -3 -40 -20
-40 -19 0 -20 -7 -20 -120 l0 -120 30 0 c28 0 30 -2 30 -40 0 -22 5 -40 10
-40 6 0 10 -20 10 -44 0 -45 18 -76 46 -76 7 0 19 -9 26 -20 7 -11 21 -20 30
-20 13 0 18 -8 18 -29 0 -17 5 -33 10 -36 6 -3 10 -26 10 -51 0 -32 4 -44 14
-44 11 0 16 -15 18 -52 2 -30 8 -53 16 -56 6 -2 12 3 12 12 0 9 5 16 10 16 6
0 10 -18 10 -40 0 -31 4 -40 17 -40 14 0 15 -12 10 -112 -4 -62 -7 -134 -7
-160 0 -34 -4 -48 -14 -48 -9 0 -15 -17 -18 -55 -5 -55 -29 -93 -70 -108 -13
-5 -18 -18 -19 -49 0 -38 -5 -47 -42 -77 -23 -18 -42 -36 -42 -40 1 -3 -15
-20 -35 -36 -19 -17 -36 -39 -38 -50 -2 -11 -10 -25 -17 -31 -8 -6 -19 -23
-25 -38 -6 -16 -22 -31 -40 -37 -16 -6 -30 -15 -30 -20 0 -5 -10 -13 -23 -18
-12 -5 -42 -25 -66 -45 -23 -20 -50 -36 -60 -36 -9 0 -22 -9 -29 -20 -10 -16
-23 -20 -63 -20 -49 0 -51 -1 -47 -25 5 -24 3 -25 -38 -25 -32 0 -44 -4 -44
-15 0 -11 -11 -15 -39 -15 -29 0 -40 -4 -43 -17 -3 -15 -22 -17 -161 -19
l-157 -3 0 40 0 39 -160 0 -160 0 0 -40 0 -40 -37 4 -38 3 -9 151 -8 151 -37
4 c-36 4 -35 4 7 5 l42 2 0 80 0 80 40 0 c40 0 40 0 40 39 0 23 5 41 13 43 9
4 13 95 15 401 3 336 6 397 18 397 10 0 14 12 14 40 0 22 5 40 10 40 6 0 10
-9 10 -21 0 -36 29 -14 44 34 3 9 18 22 33 28 39 15 43 24 43 117 0 75 2 82
20 82 17 0 20 7 20 39 0 34 3 39 20 36 18 -3 20 2 20 41 l0 44 60 0 60 0 0 34
c0 36 9 44 53 41 26 -2 27 0 27 42 l0 43 40 0 40 0 0 160 c0 153 1 160 20 160
17 0 20 7 20 40 0 44 1 44 93 42 l37 -1 -2 77 c-1 42 -3 60 -5 40 -3 -30 -9
-38 -24 -38 -15 0 -19 7 -19 39 0 31 4 40 21 44 19 5 20 12 18 81 -1 42 1 79
4 83 10 9 9 153 0 152 -35 -6 -43 2 -43 41 0 33 -3 40 -20 40 -17 0 -20 7 -20
40 l0 40 -40 0 -40 0 0 60 0 60 -40 0 c-28 0 -40 4 -40 15 0 11 -18 15 -82 18
l-83 3 83 2 c75 2 82 4 82 22 0 18 -7 20 -80 20 -73 0 -80 2 -80 19 0 16 8 21
43 24 23 2 -86 4 -243 4 -157 0 -266 -2 -242 -4z m279 -1745 c-2 -13 -4 -5 -4
17 -1 22 1 32 4 23 2 -10 2 -28 0 -40z m-8 -5983 c15 -50 11 -82 -6 -50 -16
29 -27 95 -16 95 5 0 15 -20 22 -45z m2011 5 c0 -22 -4 -40 -10 -40 -5 0 -10
18 -10 40 0 22 5 40 10 40 6 0 10 -18 10 -40z m-1520 -240 c0 -22 -4 -40 -10
-40 -5 0 -10 18 -10 40 0 22 5 40 10 40 6 0 10 -18 10 -40z m0 -160 c0 -22 -4
-40 -10 -40 -5 0 -10 18 -10 40 0 22 5 40 10 40 6 0 10 -18 10 -40z m887 -502
c-2 -13 -4 -3 -4 22 0 25 2 35 4 23 2 -13 2 -33 0 -45z m-1237 -3 c0 -8 -4
-15 -10 -15 -5 0 -10 7 -10 15 0 8 5 15 10 15 6 0 10 -7 10 -15z"/>
<path d="M20400 9000 l0 -40 -40 0 -40 0 0 -40 0 -40 -40 0 -40 0 0 -40 0 -40
-40 0 -40 0 0 -80 0 -80 -40 0 -40 0 0 -40 0 -40 40 0 40 0 0 -40 0 -40 -40 0
-40 0 0 -40 0 -40 -40 0 -40 0 0 -40 0 -40 -80 0 -80 0 0 -40 0 -40 -160 0
-160 0 0 40 0 40 -40 0 -40 0 0 -40 0 -40 -160 0 -160 0 0 -40 0 -40 -40 0
-40 0 0 -40 0 -40 -40 0 -40 0 0 -40 0 -40 40 0 40 0 0 -40 0 -40 160 0 160 0
0 -40 0 -40 200 0 200 0 0 -40 0 -40 80 0 80 0 0 -39 c0 -22 3 -41 8 -43 4 -1
4 -21 1 -43 l-6 -40 -2 43 c-1 35 -4 42 -21 42 -20 0 -20 -7 -20 -280 0 -229
-2 -280 -14 -280 -14 0 -26 -79 -26 -181 0 -59 0 -59 -30 -59 -28 0 -30 -3
-30 -37 0 -30 -7 -43 -42 -74 -24 -21 -45 -39 -48 -39 -3 0 -4 -24 -3 -52 0
-29 -1 -40 -4 -25 -5 34 -23 31 -42 -9 -8 -16 -20 -33 -28 -37 -7 -4 -13 -19
-13 -32 0 -22 -4 -25 -40 -25 -29 0 -40 -4 -40 -15 0 -12 -16 -15 -80 -15 -73
0 -80 -2 -80 -19 0 -16 8 -21 43 -24 23 -2 5 -4 -40 -5 -66 -2 -83 -5 -83 -17
0 -11 -11 -15 -40 -15 l-40 0 0 -60 0 -60 -34 0 c-34 0 -35 -1 -39 -42 l-4
-43 -1 43 c-2 35 -5 42 -22 42 -19 0 -20 -7 -20 -200 0 -171 -2 -200 -15 -200
-11 0 -15 -11 -15 -40 0 -39 1 -40 34 -40 33 0 35 -2 38 -37 3 -35 6 -38 33
-38 27 0 31 4 36 40 l6 40 2 -42 1 -43 40 0 40 0 0 -40 0 -40 40 0 40 0 0 -41
c0 -33 3 -40 16 -35 8 3 13 2 10 -3 -3 -4 45 -7 106 -5 119 4 128 0 120 -42
-4 -21 -10 -24 -47 -24 -40 0 -44 -2 -50 -29 -3 -17 -1 -39 5 -51 8 -15 9 -45
5 -92 -6 -55 -4 -72 6 -79 10 -6 11 -9 2 -9 -8 0 -13 -14 -13 -35 0 -28 4 -35
20 -35 17 0 20 -7 20 -40 l0 -40 60 0 60 0 0 -160 0 -160 -40 0 -40 0 0 -40 0
-40 -40 0 -40 0 0 -40 0 -40 -120 0 -120 0 0 -40 0 -40 -40 0 -40 0 0 -40 0
-40 80 0 80 0 0 -80 0 -80 40 0 40 0 0 -40 0 -40 120 0 120 0 0 -40 0 -40 40
0 40 0 0 -120 0 -120 25 0 c23 0 25 -4 25 -40 0 -36 -2 -40 -25 -40 l-25 0 0
-120 c0 -73 4 -120 10 -120 6 0 10 -18 10 -40 0 -22 -4 -40 -10 -40 -5 0 -10
-18 -10 -40 l0 -40 45 0 45 0 0 -99 c0 -54 3 -126 6 -160 7 -61 7 -61 -20 -61
-24 0 -26 -3 -26 -40 0 -29 -4 -40 -15 -40 -11 0 -15 -12 -15 -44 0 -25 -4
-48 -10 -51 -5 -3 -10 -1 -10 4 0 6 -18 11 -40 11 l-40 0 0 -40 0 -40 -40 0
-40 0 0 -40 0 -40 -80 0 -80 0 0 40 0 40 -40 0 -40 0 0 40 0 40 -280 0 -280 0
0 -40 0 -40 -80 0 -80 0 0 -200 0 -200 40 0 40 0 0 -40 0 -40 120 0 120 0 0
-40 0 -40 80 0 80 0 0 -40 0 -40 40 0 40 0 0 -40 0 -40 40 0 40 0 0 -40 0 -40
80 0 80 0 0 -40 0 -40 80 0 80 0 0 -40 0 -40 -40 0 -40 0 0 -40 0 -40 80 0 80
0 0 -40 0 -40 -40 0 -40 0 0 -80 0 -80 -40 0 -40 0 0 -80 0 -80 40 0 40 0 0
-80 0 -80 40 0 40 0 0 -160 0 -160 80 0 80 0 0 -40 0 -40 -80 0 -80 0 0 -40 0
-40 -80 0 -80 0 0 -40 0 -40 -80 0 -80 0 0 -40 0 -40 -40 0 -40 0 0 40 0 40
-120 0 -120 0 0 40 0 40 -40 0 -40 0 0 -40 0 -40 -200 0 -200 0 0 -40 0 -40
-120 0 -120 0 0 -40 0 -40 -120 0 -120 0 0 -40 0 -40 -80 0 -80 0 0 -40 0 -40
-160 0 -160 0 0 -40 0 -40 -160 0 -160 0 0 -40 0 -40 -440 0 -440 0 0 -40 0
-40 -80 0 -80 0 0 -40 0 -40 80 0 80 0 0 -40 0 -40 280 0 280 0 0 40 0 40 40
0 40 0 0 -40 0 -40 1720 0 1720 0 0 2965 0 2965 -40 0 c-33 0 -40 -3 -40 -20
0 -16 -7 -20 -35 -20 -24 0 -35 5 -35 15 0 11 -12 15 -45 15 l-45 0 0 46 0 47
-61 -7 c-34 -3 -70 -6 -80 -6 -15 0 -19 -8 -19 -40 l0 -40 -80 0 -80 0 0 -40
0 -40 -40 0 -40 0 0 -40 0 -40 -120 0 -120 0 0 80 c0 73 -2 80 -20 80 -17 0
-20 7 -20 40 0 36 3 40 25 40 23 0 25 4 25 40 0 39 1 40 35 40 34 0 35 1 35
40 l0 40 160 0 160 0 0 40 0 40 40 0 40 0 0 80 0 80 40 0 c38 0 40 2 40 30 0
28 2 30 40 30 l40 0 0 50 c0 39 -3 50 -16 50 -17 0 -14 22 4 28 7 2 12 -3 12
-12 0 -12 10 -16 40 -16 l40 0 0 40 0 40 40 0 c33 0 40 3 40 20 0 17 7 20 40
20 l40 0 0 1180 0 1180 -40 0 -40 0 0 -40z m-80 -400 l0 -40 -80 0 -80 0 0 40
0 40 80 0 80 0 0 -40z m-800 -2880 c0 -29 -4 -40 -15 -40 -11 0 -15 11 -15 40
0 29 4 40 15 40 11 0 15 -11 15 -40z"/>
<path d="M7060 8090 c0 -5 5 -10 10 -10 6 0 10 5 10 10 0 6 -4 10 -10 10 -5 0
-10 -4 -10 -10z"/>
<path d="M6683 8083 c-57 -5 -60 -33 -4 -33 30 0 40 4 44 20 3 11 4 19 4 18
-1 -1 -21 -3 -44 -5z"/>
<path d="M8531 7998 c-1 -21 4 -38 9 -38 12 0 12 27 0 55 -7 16 -9 13 -9 -17z"/>
<path d="M8551 7934 c0 -11 3 -14 6 -6 3 7 2 16 -1 19 -3 4 -6 -2 -5 -13z"/>
<path d="M8526 7691 c-4 -5 -2 -12 3 -15 5 -4 12 -2 15 3 4 5 2 12 -3 15 -5 4
-12 2 -15 -3z"/>
<path d="M8128 7286 c-19 -14 -26 -86 -8 -86 6 0 10 18 10 40 0 29 4 40 15 40
8 0 15 5 15 10 0 13 -11 12 -32 -4z"/>
<path d="M8220 7240 c0 -22 5 -40 10 -40 6 0 10 18 10 40 0 22 -4 40 -10 40
-5 0 -10 -18 -10 -40z"/>
<path d="M7587 7223 c-11 -10 -8 -103 3 -103 6 0 10 25 10 55 0 56 -1 60 -13
48z"/>
<path d="M7045 7080 c3 -5 22 -10 41 -10 21 0 33 4 29 10 -3 6 -22 10 -41 10
-21 0 -33 -4 -29 -10z"/>
<path d="M7073 7044 c9 -3 17 -12 17 -20 0 -16 45 -19 55 -3 10 16 1 20 -47
25 -24 2 -35 1 -25 -2z"/>
<path d="M8195 7030 c3 -5 8 -10 11 -10 2 0 4 5 4 10 0 6 -5 10 -11 10 -5 0
-7 -4 -4 -10z"/>
<path d="M7017 6983 c-15 -14 -6 -23 23 -23 20 0 30 5 30 15 0 15 -40 21 -53
8z"/>
<path d="M8180 6944 c0 -8 5 -12 10 -9 6 3 10 10 10 16 0 5 -4 9 -10 9 -5 0
-10 -7 -10 -16z"/>
<path d="M8161 6894 c0 -11 3 -14 6 -6 3 7 2 16 -1 19 -3 4 -6 -2 -5 -13z"/>
<path d="M7520 6865 c0 -11 11 -15 40 -15 29 0 40 4 40 15 0 11 -11 15 -40 15
-29 0 -40 -4 -40 -15z"/>
<path d="M8100 6790 c0 -5 5 -10 10 -10 6 0 10 5 10 10 0 6 -4 10 -10 10 -5 0
-10 -4 -10 -10z"/>
<path d="M8000 6710 c0 -5 5 -10 10 -10 6 0 10 5 10 10 0 6 -4 10 -10 10 -5 0
-10 -4 -10 -10z"/>
<path d="M8020 6650 c0 -5 5 -10 10 -10 6 0 10 5 10 10 0 6 -4 10 -10 10 -5 0
-10 -4 -10 -10z"/>
<path d="M8000 6598 c0 -19 2 -20 10 -8 13 19 13 30 0 30 -5 0 -10 -10 -10
-22z"/>
<path d="M7932 6520 c-19 -63 -14 -69 18 -18 35 56 35 58 12 58 -11 0 -21 -13
-30 -40z"/>
<path d="M7869 6438 c-16 -42 -16 -42 -62 -39 l-47 3 0 -41 c0 -29 4 -41 14
-41 13 0 13 -4 0 -27 -7 -16 -14 -33 -14 -40 0 -6 -6 -14 -12 -16 -10 -4 -10
-6 0 -6 7 -1 16 7 19 17 4 9 12 21 20 25 7 4 13 15 13 23 0 8 16 28 35 45 19
17 38 43 41 58 4 14 13 38 21 54 11 22 11 27 0 27 -7 0 -20 -19 -28 -42z"/>
<path d="M7200 6253 c0 -8 14 -13 40 -13 22 0 40 4 40 9 0 5 -18 11 -40 13
-28 2 -40 0 -40 -9z"/>
<path d="M7704 6224 c3 -9 6 -20 6 -25 0 -5 7 -9 15 -9 18 0 20 21 3 38 -17
17 -31 15 -24 -4z"/>
<path d="M7680 6185 c0 -8 5 -15 10 -15 6 0 10 7 10 15 0 8 -4 15 -10 15 -5 0
-10 -7 -10 -15z"/>
<path d="M19033 6005 c0 -44 2 -61 4 -37 2 23 2 59 0 80 -2 20 -4 1 -4 -43z"/>
<path d="M7699 5891 c13 -12 28 -21 35 -21 12 0 -5 14 -39 31 -16 8 -15 6 4
-10z"/>
<path d="M7670 5861 c0 -5 7 -12 16 -15 24 -9 27 -7 10 9 -17 17 -26 19 -26 6z"/>
<path d="M7626 5838 c5 -8 2 -9 -9 -5 -11 4 -17 1 -17 -8 0 -8 -8 -20 -19 -27
-10 -7 -22 -28 -25 -46 -4 -18 -15 -40 -24 -49 -12 -12 -13 -18 -4 -21 6 -2
12 -9 12 -17 0 -7 6 -18 13 -24 11 -8 18 -6 32 9 23 25 32 19 31 -22 -1 -30
-4 -33 -28 -30 -28 3 -33 -3 -22 -32 5 -12 10 -14 19 -6 8 6 16 7 19 2 8 -13
-5 -82 -15 -82 -5 0 -9 -12 -9 -26 0 -14 4 -23 9 -20 10 7 22 -18 17 -36 -1
-7 -1 -10 1 -5 3 4 11 7 19 7 17 0 18 16 2 27 -8 5 -13 28 -13 56 0 37 3 47
15 45 11 -2 15 -16 15 -48 0 -25 5 -48 10 -52 7 -5 6 -14 -1 -26 -10 -15 -8
-21 8 -31 11 -7 17 -19 14 -27 -4 -11 5 -14 39 -14 33 0 45 4 45 15 0 8 5 15
10 15 20 0 11 72 -12 92 -18 15 -20 21 -9 28 22 13 -13 44 -41 37 -28 -8 -79
29 -54 39 20 8 21 31 1 37 -11 3 -10 4 2 3 14 -1 17 -9 16 -33 -2 -18 2 -35 8
-39 8 -4 10 8 8 39 -4 42 -2 46 16 43 11 -2 14 -1 8 1 -7 3 -13 11 -13 19 0 8
-4 14 -10 14 -5 0 -10 7 -10 15 0 8 5 15 10 15 6 0 10 -7 10 -15 0 -8 7 -15
15 -15 8 0 15 4 15 10 0 16 -36 30 -78 30 l-39 0 7 45 c5 32 3 45 -7 49 -18 7
-17 26 2 26 8 0 15 7 15 15 0 8 8 15 18 15 14 0 15 2 2 10 -21 13 -33 12 -24
-2z m9 -268 c-3 -5 -10 -10 -16 -10 -5 0 -9 5 -9 10 0 6 7 10 16 10 8 0 12 -4
9 -10z m105 -80 c0 -5 -7 -10 -15 -10 -8 0 -15 5 -15 10 0 6 7 10 15 10 8 0
15 -4 15 -10z m6 -44 c8 -8 14 -31 14 -50 0 -31 -3 -36 -24 -36 -21 0 -24 5
-28 46 -2 25 -1 47 1 50 8 8 22 4 37 -10z"/>
<path d="M7635 5791 c-7 -12 12 -24 25 -16 11 7 4 25 -10 25 -5 0 -11 -4 -15
-9z"/>
<path d="M7440 5610 c0 -5 7 -10 16 -10 8 0 12 5 9 10 -3 6 -10 10 -16 10 -5
0 -9 -4 -9 -10z"/>
<path d="M7754 5596 c-3 -8 -4 -29 -1 -48 3 -30 4 -30 5 9 1 23 8 44 15 46 9
4 9 6 -1 6 -7 1 -15 -5 -18 -13z"/>
<path d="M7364 5390 c2 -30 1 -49 -1 -42 -3 7 -22 12 -44 12 -39 0 -39 0 -39
-40 0 -33 3 -40 20 -40 17 0 20 -7 20 -40 0 -22 5 -40 10 -40 11 0 13 -62 4
-97 -4 -12 -12 -19 -19 -17 -14 6 -30 -29 -21 -44 3 -5 1 -22 -4 -38 l-8 -29
-1 33 c-1 17 -5 32 -11 32 -6 0 -10 -33 -10 -80 0 -75 -1 -80 -21 -80 -19 0
-21 -5 -17 -40 3 -38 2 -40 -24 -40 l-28 0 0 -80 c0 -64 3 -80 15 -80 12 0 15
-16 15 -80 l0 -80 34 0 c24 0 45 -9 70 -32 40 -36 44 -45 19 -50 -16 -3 -15
-6 7 -28 l25 -25 6 30 c5 21 7 24 8 9 0 -12 9 -32 19 -45 28 -39 42 -63 48
-81 4 -10 10 -18 14 -18 4 0 11 -16 14 -36 4 -19 14 -38 22 -41 9 -3 14 -19
14 -44 0 -21 5 -39 10 -39 6 0 10 7 10 15 0 33 19 11 58 -69 23 -46 46 -104
51 -128 6 -25 16 -58 22 -74 16 -41 12 -143 -6 -171 -33 -49 26 -19 96 50 15
15 36 27 47 27 11 0 23 7 26 16 4 10 17 15 38 14 53 -3 56 -2 74 36 9 20 23
38 31 41 7 3 13 13 13 22 0 9 6 25 13 36 20 31 56 177 74 300 3 22 9 42 14 45
5 3 16 39 24 80 20 89 14 211 -14 295 -22 66 -81 165 -98 165 -7 0 -18 9 -25
20 -7 11 -19 20 -27 20 -12 0 -12 3 -3 12 9 9 1 23 -38 60 -28 26 -50 53 -50
58 0 6 -5 10 -11 10 -11 0 -69 60 -69 71 0 4 -26 22 -57 40 -62 35 -82 55 -83
80 0 9 -11 21 -25 27 -14 6 -25 16 -25 21 0 12 -57 98 -71 106 -5 4 -9 17 -9
31 0 13 -5 24 -11 24 -13 0 -39 25 -39 38 0 5 -6 15 -14 21 -10 9 -16 8 -26
-4 -17 -21 -28 -19 -34 8 -2 12 -3 -3 -2 -33z m-77 -852 c-3 -8 -6 -5 -6 6 -1
11 2 17 5 13 3 -3 4 -12 1 -19z m47 -43 c3 -8 1 -15 -4 -15 -6 0 -10 7 -10 15
0 8 2 15 4 15 2 0 6 -7 10 -15z"/>
<path d="M19440 5398 c0 -37 1 -38 35 -38 34 0 35 1 35 38 0 36 -1 38 -35 38
-34 0 -35 -2 -35 -38z"/>
<path d="M7620 5360 c0 -12 28 -21 35 -11 2 5 -4 11 -15 14 -11 3 -20 2 -20
-3z"/>
<path d="M7600 5330 c0 -5 5 -10 10 -10 6 0 10 5 10 10 0 6 -4 10 -10 10 -5 0
-10 -4 -10 -10z"/>
<path d="M7630 5310 c0 -5 5 -10 10 -10 6 0 10 5 10 10 0 6 -4 10 -10 10 -5 0
-10 -4 -10 -10z"/>
<path d="M7668 5283 c6 -2 12 -16 12 -29 0 -14 4 -22 10 -19 25 15 2 58 -28
54 -4 0 -1 -3 6 -6z"/>
<path d="M7300 5160 c0 -22 3 -40 8 -40 4 0 6 18 4 40 -2 22 -6 40 -8 40 -2 0
-4 -18 -4 -40z"/>
<path d="M13440 5080 c0 -113 1 -120 20 -120 19 0 20 7 20 120 0 113 -1 120
-20 120 -19 0 -20 -7 -20 -120z"/>
<path d="M6248 5153 c7 -3 16 -2 19 1 4 3 -2 6 -13 5 -11 0 -14 -3 -6 -6z"/>
<path d="M5557 4898 c-7 -23 5 -48 24 -48 14 0 19 7 19 30 0 23 -5 30 -19 30
-11 0 -21 -6 -24 -12z"/>
<path d="M5600 4600 c0 -29 4 -40 15 -40 11 0 15 11 15 40 0 29 -4 40 -15 40
-11 0 -15 -11 -15 -40z"/>
<path d="M2768 4553 c7 -3 16 -2 19 1 4 3 -2 6 -13 5 -11 0 -14 -3 -6 -6z"/>
<path d="M2900 4460 c0 -25 8 -25 40 0 l25 20 -32 0 c-26 0 -33 -4 -33 -20z"/>
<path d="M2865 4450 c-3 -5 -1 -10 4 -10 6 0 11 5 11 10 0 6 -2 10 -4 10 -3 0
-8 -4 -11 -10z"/>
<path d="M3582 4352 c-17 -30 -12 -34 45 -37 30 -1 34 -1 11 2 -31 3 -37 8
-40 31 l-3 27 -13 -23z"/>
<path d="M4320 4240 c0 -5 10 -10 23 -10 18 0 19 2 7 10 -19 13 -30 13 -30 0z"/>
<path d="M5698 4153 c12 -2 32 -2 45 0 12 2 2 4 -23 4 -25 0 -35 -2 -22 -4z"/>
<path d="M5673 3953 c-7 -2 -13 -11 -13 -19 0 -8 6 -14 13 -14 8 0 7 -4 -3
-10 -8 -5 -30 -10 -49 -10 -37 0 -120 -54 -121 -79 0 -8 -8 -23 -17 -33 -16
-17 -16 -22 -3 -45 8 -14 22 -29 30 -33 8 -4 25 -12 37 -18 34 -18 129 -15
159 5 59 38 86 75 87 119 1 28 -4 48 -16 61 -9 11 -17 29 -17 40 0 27 -55 50
-87 36z m19 -105 c-9 -9 -12 -7 -12 12 0 19 3 21 12 12 9 -9 9 -15 0 -24z m-6
-51 c3 -3 6 -31 5 -49 -1 -11 -7 -15 -23 -11 -28 7 -48 30 -48 56 0 17 5 19
32 13 17 -3 33 -7 34 -9z"/>
<path d="M1520 3905 c0 -8 -9 -15 -19 -15 -34 0 -34 -20 1 -35 l33 -14 -28 -1
c-16 0 -26 -4 -23 -9 6 -9 105 -6 114 4 3 3 -2 5 -11 5 -13 0 -17 9 -17 40 0
36 -2 40 -25 40 -16 0 -25 -6 -25 -15z"/>
<path d="M5788 3913 c7 -3 16 -2 19 1 4 3 -2 6 -13 5 -11 0 -14 -3 -6 -6z"/>
<path d="M1425 3800 c-3 -5 -1 -10 4 -10 6 0 11 5 11 10 0 6 -2 10 -4 10 -3 0
-8 -4 -11 -10z"/>
<path d="M1198 3753 c-21 -14 -38 -32 -38 -40 0 -7 -8 -17 -19 -21 -14 -5 -17
-12 -10 -29 10 -28 29 -30 36 -4 4 15 14 18 60 17 38 -1 57 3 59 12 1 7 0 8
-3 2 -2 -5 -9 -8 -14 -4 -12 7 -12 74 1 74 6 0 10 5 10 10 0 18 -44 9 -82 -17z"/>
<path d="M1325 3750 c3 -5 17 -10 30 -10 13 0 27 5 30 10 4 6 -8 10 -30 10
-22 0 -34 -4 -30 -10z"/>
<path d="M1608 3683 c7 -3 16 -2 19 1 4 3 -2 6 -13 5 -11 0 -14 -3 -6 -6z"/>
<path d="M1680 3664 c0 -8 5 -12 10 -9 6 3 10 10 10 16 0 5 -4 9 -10 9 -5 0
-10 -7 -10 -16z"/>
<path d="M1740 3670 c0 -5 5 -10 10 -10 6 0 10 5 10 10 0 6 -4 10 -10 10 -5 0
-10 -4 -10 -10z"/>
<path d="M7538 3573 c-25 -3 -41 -12 -52 -29 -11 -16 -26 -24 -45 -24 -21 0
-30 -6 -34 -21 -3 -11 -15 -23 -26 -26 -12 -3 -21 -12 -21 -19 0 -8 -6 -14
-14 -14 -17 0 -41 -64 -31 -81 4 -6 -1 -23 -12 -37 -11 -15 -26 -48 -33 -74
-8 -27 -20 -48 -27 -48 -7 0 -13 -8 -13 -18 0 -10 -7 -27 -15 -38 -10 -13 -14
-45 -15 -101 0 -49 -4 -83 -10 -83 -5 0 -10 -9 -10 -20 0 -12 -7 -31 -16 -44
-29 -45 3 -35 62 19 32 30 63 55 68 55 17 0 76 75 90 114 8 23 22 75 31 115
14 66 29 98 82 186 7 11 16 28 19 38 3 9 10 17 14 17 4 0 15 18 24 39 8 22 22
43 29 48 8 4 18 18 21 31 8 24 11 23 -66 15z"/>
<path d="M7790 3480 c0 -5 5 -10 10 -10 6 0 10 5 10 10 0 6 -4 10 -10 10 -5 0
-10 -4 -10 -10z"/>
<path d="M1020 3430 c0 -5 5 -10 10 -10 6 0 10 5 10 10 0 6 -4 10 -10 10 -5 0
-10 -4 -10 -10z"/>
<path d="M960 3370 c0 -5 5 -10 10 -10 6 0 10 5 10 10 0 6 -4 10 -10 10 -5 0
-10 -4 -10 -10z"/>
<path d="M791 3361 c-7 -5 -10 -14 -7 -20 5 -8 11 -7 22 3 24 24 14 35 -15 17z"/>
<path d="M610 3345 c0 -15 -6 -25 -37 -60 -7 -7 -13 -30 -13 -49 0 -29 -4 -36
-19 -36 -13 0 -28 -15 -42 -40 -13 -22 -29 -40 -36 -40 -9 0 -13 -14 -13 -40
0 -22 -4 -40 -9 -40 -5 0 -11 -8 -15 -17 -7 -22 -26 -50 -48 -75 -10 -10 -18
-24 -18 -30 0 -7 -9 -2 -20 12 l-20 25 0 -37 0 -38 -80 0 -80 0 0 40 0 40 -80
0 -80 0 0 -346 c0 -307 2 -345 15 -334 8 7 15 19 15 26 0 8 6 14 13 14 23 0 8
-67 -19 -85 l-24 -15 0 -300 0 -300 40 0 c22 0 40 -4 40 -10 0 -5 -18 -10 -40
-10 -40 0 -40 0 -40 -39 0 -22 4 -41 9 -43 4 -1 11 -22 14 -46 4 -32 2 -45 -9
-49 -9 -3 -14 -21 -14 -53 0 -36 6 -53 25 -74 16 -18 25 -39 25 -61 0 -18 5
-35 11 -37 8 -3 4 -19 -10 -48 -11 -24 -21 -52 -21 -62 0 -10 -7 -21 -15 -24
-8 -4 -15 -10 -15 -15 0 -5 7 -9 15 -9 11 0 15 -11 15 -40 0 -29 -4 -40 -15
-40 -8 0 -15 -4 -15 -10 0 -5 6 -10 14 -10 7 0 19 -6 25 -13 8 -10 5 -19 -11
-37 -20 -21 -22 -35 -23 -149 -1 -109 2 -128 16 -139 10 -7 23 -37 29 -67 6
-30 15 -55 19 -55 5 0 11 -13 14 -29 3 -16 13 -36 22 -44 32 -33 19 -47 -45
-47 l-60 0 0 -39 c0 -22 4 -41 10 -43 5 -2 12 -21 16 -43 3 -22 10 -48 15 -57
7 -13 6 -18 -3 -18 -7 0 -19 -12 -25 -27 -15 -32 -17 -93 -4 -93 5 0 13 -9 16
-20 6 -19 15 -20 233 -20 l227 1 -35 29 c-19 17 -42 30 -52 30 -25 0 -22 12 9
35 59 44 79 64 62 65 -9 0 -20 10 -23 22 l-6 23 -20 -24 -20 -23 0 30 c0 22
-4 29 -17 28 -10 0 -19 6 -21 16 -2 12 4 16 29 15 34 -2 67 31 41 40 -7 3 -19
11 -26 19 -8 8 -20 12 -28 11 -7 -2 -10 -2 -5 0 4 3 7 22 7 44 0 34 -3 39 -22
39 -22 1 -21 2 8 28 30 25 31 30 27 80 -3 28 -9 52 -14 52 -14 0 -10 40 4 41
6 1 19 2 27 3 23 2 25 36 2 36 -28 0 -36 37 -33 148 3 81 1 92 -14 92 -15 0
-16 12 -11 120 5 106 4 120 -10 120 -14 0 -16 9 -12 50 5 49 -6 78 -15 43 -3
-10 -5 19 -6 65 -1 66 -4 82 -16 82 -17 0 -20 16 -6 25 5 3 16 -2 24 -10 23
-22 27 -19 27 24 0 23 5 41 12 43 8 3 4 9 -10 17 -27 14 -29 41 -3 41 21 0 43
-22 40 -42 -1 -7 -1 -32 0 -55 1 -36 4 -43 21 -43 17 0 20 -7 20 -50 0 -38 4
-52 19 -60 13 -6 19 -20 19 -37 -1 -31 42 -166 54 -171 5 -2 8 -21 8 -43 0
-29 4 -39 16 -39 13 0 15 -14 13 -93 -2 -94 6 -147 22 -147 12 0 11 17 -1 25
-5 3 -10 27 -10 53 l1 47 24 -45 c13 -25 27 -53 31 -62 3 -10 10 -18 15 -18 5
0 9 -11 9 -25 0 -14 3 -25 8 -25 4 0 13 -24 20 -53 7 -28 17 -53 22 -55 6 -2
10 -12 10 -22 0 -10 5 -22 10 -25 6 -3 10 -19 10 -35 0 -15 4 -30 9 -32 15 -6
72 -123 61 -126 -13 -5 -13 -32 0 -32 6 0 10 -8 10 -18 0 -10 9 -35 20 -57 11
-22 20 -47 20 -56 0 -19 24 -42 33 -32 4 3 7 -1 7 -9 0 -9 7 -21 15 -28 9 -7
15 -29 15 -51 l0 -39 136 0 c146 0 141 -3 97 56 -14 19 -23 45 -23 67 0 24 -5
37 -13 37 -7 0 -21 26 -31 60 -10 33 -22 60 -27 60 -5 0 -9 15 -9 34 0 20 -6
36 -14 39 -15 6 -66 131 -66 164 0 11 -7 34 -15 49 -8 16 -15 39 -15 52 0 12
-4 22 -9 22 -4 0 -11 16 -14 35 -3 19 -15 45 -27 57 -11 12 -20 32 -18 43 3
30 -22 126 -43 163 -10 18 -19 40 -19 49 0 8 -6 29 -14 46 -31 74 -36 90 -36
121 0 19 -15 74 -34 122 -20 51 -39 126 -46 174 -6 47 -17 103 -25 125 -8 22
-19 87 -26 145 -6 58 -15 110 -20 115 -11 14 -47 307 -49 400 -1 11 -6 126
-12 255 -8 175 -8 264 1 350 19 190 21 198 42 203 25 7 48 -36 56 -106 3 -29
10 -60 15 -70 5 -10 9 -113 8 -230 0 -203 11 -317 32 -317 5 0 8 -26 7 -57 -2
-57 14 -115 38 -141 7 -7 15 -29 19 -50 3 -20 12 -56 20 -80 8 -23 14 -54 14
-67 0 -13 11 -34 23 -47 16 -16 27 -44 35 -87 6 -36 15 -67 20 -70 49 -31 60
-46 55 -72 -6 -33 14 -99 31 -99 16 0 39 -28 56 -70 7 -19 18 -38 23 -41 6 -4
12 -41 15 -83 5 -75 5 -76 32 -76 26 0 28 3 32 48 2 30 -1 51 -9 57 -17 14
-33 60 -33 96 0 17 -11 50 -25 74 -19 32 -22 44 -13 47 11 4 10 11 -1 39 -7
19 -20 75 -27 124 -23 149 -25 155 -43 155 -19 0 -41 72 -41 131 0 18 -5 29
-14 29 -16 0 -26 21 -26 56 0 13 -4 24 -9 24 -5 0 -11 18 -15 40 -4 23 -12 40
-19 40 -21 0 -36 40 -35 91 1 28 -7 63 -20 90 -17 36 -22 66 -23 159 -2 64 0
121 4 127 4 6 1 13 -5 16 -10 3 -9 12 5 35 9 16 17 40 17 51 0 12 4 21 8 21
16 0 42 -36 42 -59 0 -12 7 -35 15 -51 8 -16 12 -35 9 -43 -2 -7 2 -20 11 -27
9 -7 15 -28 15 -51 0 -22 4 -39 10 -39 5 0 12 -16 16 -36 4 -20 17 -47 30 -61
13 -14 24 -34 24 -44 0 -11 6 -19 14 -19 7 0 16 -10 19 -22 3 -13 14 -48 26
-78 12 -30 21 -67 21 -81 0 -15 6 -32 14 -38 8 -7 18 -31 22 -54 3 -23 18 -66
31 -95 13 -30 29 -79 34 -110 6 -32 21 -91 33 -132 13 -41 31 -102 41 -135 9
-33 23 -73 30 -90 7 -16 19 -50 26 -75 7 -25 16 -47 19 -50 4 -3 14 -35 24
-71 10 -37 24 -79 32 -94 8 -15 14 -35 14 -44 0 -9 4 -21 9 -27 9 -8 36 -76
77 -193 9 -24 22 -51 30 -59 8 -8 18 -27 21 -43 3 -16 9 -29 14 -29 5 0 9 -11
9 -24 0 -14 4 -28 10 -31 5 -3 14 -23 20 -44 5 -21 19 -48 30 -61 11 -13 20
-36 20 -52 0 -15 4 -28 10 -28 5 0 13 -18 16 -40 4 -22 10 -40 15 -40 5 0 9
-13 9 -29 0 -16 7 -36 15 -45 8 -8 15 -21 15 -28 0 -7 11 -35 25 -63 13 -27
25 -59 25 -71 0 -11 11 -34 25 -50 15 -18 25 -41 25 -61 0 -17 7 -38 15 -47 8
-8 15 -21 15 -29 0 -8 6 -20 13 -26 8 -6 14 -24 15 -40 1 -46 33 -71 92 -71
49 0 50 0 38 22 -7 13 -21 33 -32 45 -14 17 -18 38 -18 97 0 57 -4 76 -13 76
-9 0 -16 18 -21 47 -9 66 -53 193 -75 222 -11 13 -19 29 -19 36 0 7 -9 24 -21
38 -15 20 -18 35 -14 60 6 29 3 35 -14 40 -15 4 -20 13 -19 38 2 70 -25 149
-64 192 -24 25 -34 43 -28 47 13 8 3 60 -14 75 -18 17 -33 48 -40 85 -12 57
-37 130 -45 130 -9 0 -31 90 -31 125 0 13 -7 31 -16 39 -8 9 -13 20 -10 24 6
10 -16 76 -43 128 -11 22 -27 73 -36 114 -9 41 -20 77 -25 78 -6 2 -10 11 -10
20 0 10 -11 52 -25 95 -14 43 -25 89 -25 102 0 14 -4 25 -10 25 -5 0 -10 15
-10 33 0 17 -11 64 -25 102 -13 39 -25 78 -25 88 0 9 -4 17 -8 17 -4 0 -13 19
-19 43 -33 127 -46 174 -50 190 -8 26 26 21 48 -8 11 -13 34 -34 51 -46 l30
-22 -11 21 c-6 12 -27 34 -46 49 -19 16 -35 33 -35 40 0 6 -13 23 -30 36 -16
14 -30 33 -30 41 0 9 -7 16 -15 16 -14 0 -35 29 -35 49 0 6 7 11 15 11 8 0 15
9 15 20 0 24 -13 26 -30 5 -18 -22 -35 -18 -69 16 -55 54 -57 67 -21 100 27
25 30 32 19 45 -19 24 -54 14 -54 -16 0 -27 -25 -43 -50 -34 -21 8 -21 84 0
84 18 0 19 23 4 52 -8 16 -8 22 2 29 11 7 11 11 1 21 -10 10 -14 10 -22 -2 -5
-8 -7 -17 -4 -21 2 -4 0 -10 -6 -14 -5 -3 -10 -19 -10 -36 0 -16 -5 -29 -12
-29 -10 0 -10 -2 0 -9 8 -4 12 -19 10 -32 -3 -23 -4 -23 -23 9 -10 17 -26 32
-35 32 -24 0 -37 43 -32 104 4 50 3 56 -15 56 -19 0 -53 54 -53 85 0 8 -8 15
-19 15 -14 0 -20 10 -24 41 -8 57 -23 71 -46 40 -23 -30 -16 -59 18 -74 35
-16 41 -25 41 -73 0 -39 -2 -41 -25 -36 -14 2 -25 7 -25 11 0 3 -12 20 -27 36
-16 16 -27 33 -25 38 1 4 -5 21 -14 37 -17 27 -16 30 11 87 37 78 46 88 58 71
6 -9 7 -8 3 5 -3 10 -6 23 -6 28 0 5 -7 9 -15 9 -8 0 -15 -7 -15 -15z m-300
-553 c0 -5 -11 -19 -25 -32 l-25 -23 0 31 c0 27 4 32 25 32 14 0 25 -4 25 -8z
m-50 -82 c0 -5 -4 -10 -10 -10 -5 0 -10 5 -10 10 0 6 5 10 10 10 6 0 10 -4 10
-10z m748 -62 c7 -7 12 -21 12 -32 0 -10 14 -48 31 -84 30 -64 32 -92 6 -92
-23 0 -105 199 -89 215 9 9 28 5 40 -7z m-908 -257 c0 -6 -4 -13 -10 -16 -5
-3 -10 1 -10 9 0 9 5 16 10 16 6 0 10 -4 10 -9z m940 -61 c0 -5 -5 -10 -11
-10 -5 0 -7 5 -4 10 3 6 8 10 11 10 2 0 4 -4 4 -10z m-964 -1047 c-11 -11 -19
6 -11 24 8 17 8 17 12 0 3 -10 2 -21 -1 -24z m258 -578 c-4 -8 -8 -15 -10 -15
-2 0 -4 7 -4 15 0 8 4 15 10 15 5 0 7 -7 4 -15z"/>
<path d="M860 3320 c0 -5 5 -10 10 -10 6 0 10 5 10 10 0 6 -4 10 -10 10 -5 0
-10 -4 -10 -10z"/>
<path d="M665 3290 c-3 -5 3 -10 15 -10 12 0 18 5 15 10 -3 6 -10 10 -15 10
-5 0 -12 -4 -15 -10z"/>
<path d="M1120 3264 c0 -8 5 -12 10 -9 6 3 10 10 10 16 0 5 -4 9 -10 9 -5 0
-10 -7 -10 -16z"/>
<path d="M865 3110 c3 -5 8 -10 11 -10 2 0 4 5 4 10 0 6 -5 10 -11 10 -5 0 -7
-4 -4 -10z"/>
<path d="M6077 3060 c-3 -11 -2 -20 3 -20 12 0 21 28 11 35 -5 2 -11 -4 -14
-15z"/>
<path d="M14363 3073 c-29 -3 -43 -9 -43 -19 0 -8 -9 -14 -20 -14 -17 0 -20
-7 -20 -39 0 -34 3 -39 28 -44 15 -4 44 -22 64 -42 20 -19 44 -35 52 -35 12 0
16 -10 16 -40 0 -33 3 -40 20 -40 22 0 24 -17 14 -107 -5 -35 -11 -53 -20 -53
-10 0 -14 -13 -14 -40 0 -22 -4 -40 -10 -40 -5 0 -10 -18 -10 -40 0 -33 -3
-40 -20 -40 -17 0 -20 -7 -20 -40 0 -22 -4 -40 -9 -40 -5 0 -12 -36 -16 -80
-5 -58 -11 -80 -21 -80 -11 0 -14 -18 -14 -79 0 -58 -4 -80 -14 -84 -14 -5
-17 -22 -32 -179 -3 -32 -9 -58 -14 -58 -4 0 -17 -18 -29 -40 -11 -22 -18 -40
-16 -40 3 0 -1 -13 -10 -30 -8 -16 -15 -38 -15 -48 0 -11 -7 -25 -15 -32 -8
-7 -15 -22 -15 -34 0 -11 -9 -32 -20 -46 -11 -14 -20 -35 -20 -46 0 -12 -9
-33 -20 -47 -11 -14 -20 -30 -20 -37 0 -7 -9 -23 -20 -37 -11 -14 -20 -34 -20
-45 0 -10 -8 -30 -17 -45 -10 -14 -19 -34 -20 -45 -2 -10 -10 -30 -19 -43 -9
-14 -13 -25 -10 -25 4 0 -1 -14 -9 -30 -9 -17 -13 -40 -10 -51 4 -11 -2 -30
-14 -48 -13 -18 -21 -45 -21 -70 0 -23 -4 -41 -10 -41 -5 0 -10 -19 -10 -42
-1 -24 -7 -54 -15 -68 -8 -14 -14 -35 -15 -46 0 -12 -7 -27 -15 -34 -8 -7 -15
-23 -15 -37 0 -13 -9 -37 -20 -53 -11 -17 -29 -43 -40 -60 -11 -16 -20 -36
-20 -45 0 -8 -7 -15 -15 -15 -23 0 -67 -50 -62 -71 3 -11 0 -16 -8 -12 -21 7
-45 -50 -45 -107 0 -38 -4 -50 -15 -50 -12 0 -15 -13 -15 -58 0 -47 -4 -61
-22 -77 l-23 -19 21 -6 c20 -5 18 -7 -17 -35 -43 -34 -48 -45 -19 -45 28 0 15
-24 -22 -41 -83 -37 -60 -39 496 -39 l536 0 0 213 c0 254 -7 347 -26 347 -12
0 -14 51 -14 280 0 242 2 280 15 280 13 0 15 33 15 240 0 185 -3 240 -12 240
-10 0 -12 69 -10 320 2 286 4 320 19 320 14 0 15 16 8 150 -5 110 -4 154 5
165 7 9 10 42 8 90 -3 66 -1 75 15 75 15 0 17 10 17 80 0 79 0 80 25 80 25 0
25 1 25 80 l0 80 -40 0 c-33 0 -40 3 -40 20 0 18 -6 20 -77 18 -43 -1 -97 -3
-120 -5z"/>
<path d="M1427 3049 c-4 -14 2 -34 16 -53 12 -17 22 -37 24 -45 1 -8 9 -18 17
-23 9 -5 16 -22 16 -38 0 -16 5 -32 10 -35 6 -3 10 -21 10 -39 0 -17 5 -37 12
-44 13 -13 30 -93 29 -140 -1 -25 4 -35 18 -39 21 -5 31 -31 31 -80 0 -26 4
-33 20 -33 17 0 20 -7 20 -39 0 -22 -5 -41 -12 -43 -8 -3 -7 -11 5 -28 l17
-24 0 27 c0 15 5 27 10 27 6 0 10 18 10 40 0 29 -4 40 -15 40 -11 0 -15 12
-15 45 0 26 -7 60 -16 78 -11 20 -13 32 -6 35 15 5 -7 52 -24 52 -19 0 -29 21
-14 30 11 7 10 12 -3 25 -10 10 -17 32 -17 56 0 50 -38 139 -56 132 -9 -3 -15
2 -16 13 0 11 -2 24 -2 31 -1 6 -11 22 -24 36 -12 13 -20 26 -17 29 3 3 -1 10
-9 17 -11 9 -15 7 -19 -10z"/>
<path d="M327 3033 c-4 -3 -7 -22 -7 -41 0 -27 3 -33 16 -28 9 3 20 6 25 6 6
0 8 4 5 8 -2 4 -1 14 4 22 15 24 -23 54 -43 33z"/>
<path d="M6186 3030 c17 -37 54 -64 54 -40 0 6 -6 10 -14 10 -7 0 -21 10 -30
23 -9 12 -14 15 -10 7z"/>
<path d="M6080 3007 c0 -35 80 -108 119 -109 17 -1 34 2 38 5 3 4 -3 7 -15 7
-12 0 -46 25 -81 59 -52 51 -61 57 -61 38z"/>
<path d="M7267 2878 c-6 -21 -2 -36 7 -27 10 11 16 49 8 49 -5 0 -12 -10 -15
-22z"/>
<path d="M13360 2850 c0 -16 3 -30 6 -30 4 0 22 14 41 30 l34 30 -41 0 c-38 0
-40 -2 -40 -30z"/>
<path d="M7230 2799 c0 -11 4 -18 10 -14 5 3 7 12 3 20 -7 21 -13 19 -13 -6z"/>
<path d="M13360 2780 c0 -13 5 -17 14 -14 24 9 28 34 6 34 -13 0 -20 -7 -20
-20z"/>
<path d="M7221 2754 c0 -11 3 -14 6 -6 3 7 2 16 -1 19 -3 4 -6 -2 -5 -13z"/>
<path d="M1040 2736 c0 -9 5 -16 10 -16 6 0 10 4 10 9 0 6 -4 13 -10 16 -5 3
-10 -1 -10 -9z"/>
<path d="M2497 2735 c-5 -10 0 -15 14 -15 12 0 19 5 17 12 -6 18 -25 20 -31 3z"/>
<path d="M7152 2595 c-17 -37 -14 -45 4 -12 9 16 14 31 11 33 -2 2 -9 -7 -15
-21z"/>
<path d="M2560 2586 c0 -14 5 -26 10 -26 6 0 10 -18 10 -40 0 -38 2 -40 31
-40 l31 0 -26 31 c-14 17 -26 41 -26 54 0 12 -7 28 -15 35 -13 11 -15 8 -15
-14z"/>
<path d="M2530 2520 c0 -11 7 -20 15 -20 8 0 15 9 15 20 0 11 -7 20 -15 20 -8
0 -15 -9 -15 -20z"/>
<path d="M2510 2440 c0 -22 -4 -40 -9 -40 -5 0 -7 -9 -4 -20 8 -29 20 -24 27
11 9 47 7 89 -4 89 -5 0 -10 -18 -10 -40z"/>
<path d="M2636 2414 c-11 -82 -9 -96 13 -85 25 14 32 59 16 98 -8 18 -16 33
-18 33 -2 0 -7 -21 -11 -46z"/>
<path d="M2562 2373 c-1 -17 -9 -38 -17 -47 -8 -8 -15 -31 -15 -50 0 -25 4
-36 15 -36 11 0 15 -11 15 -40 0 -29 4 -40 15 -40 11 0 15 -11 15 -40 0 -36 3
-40 25 -40 16 0 25 -6 25 -15 0 -8 -7 -15 -15 -15 -8 0 -15 -4 -15 -9 0 -5 -3
-16 -6 -25 -4 -12 0 -16 15 -16 18 0 21 -6 21 -40 0 -22 -4 -40 -10 -40 -5 0
-10 -18 -10 -40 0 -22 5 -40 10 -40 6 0 10 18 10 40 0 29 4 40 15 40 12 0 15
-16 15 -80 0 -64 -3 -80 -15 -80 -11 0 -15 -11 -15 -40 0 -22 -4 -40 -10 -40
-5 0 -10 -18 -10 -40 0 -22 -4 -40 -10 -40 -5 0 -10 -9 -10 -20 0 -27 28 -25
40 3 7 18 9 15 9 -20 1 -26 -4 -43 -10 -43 -14 0 -2 -153 12 -158 5 -2 9 -21
9 -43 0 -32 -3 -39 -20 -39 -18 0 -20 -7 -20 -80 0 -47 4 -80 10 -80 19 0 11
-69 -10 -90 -16 -16 -20 -33 -20 -85 0 -42 4 -65 11 -65 11 0 6 -118 -7 -162
-3 -9 4 -26 15 -37 25 -25 27 -41 5 -41 -14 0 -16 -10 -10 -73 3 -39 7 -183 8
-319 l2 -248 168 0 168 0 0 80 c0 64 3 80 15 80 8 0 15 8 15 18 0 9 7 30 15
46 17 32 20 96 5 96 -6 0 -10 32 -10 76 0 67 2 76 20 81 23 6 25 27 9 122 -7
45 -7 67 1 75 11 11 14 79 4 89 -11 11 -13 178 -3 245 12 79 2 192 -17 192
-10 0 -14 13 -14 41 0 43 -14 79 -36 92 -21 12 -17 27 6 27 24 0 25 8 4 38 -9
13 -13 31 -9 42 4 11 2 20 -4 20 -6 0 -14 12 -17 28 -4 15 -15 45 -25 67 -11
23 -19 64 -19 95 0 43 -8 70 -36 125 -20 39 -36 72 -35 75 2 13 -11 40 -20 40
-5 0 -9 12 -9 27 0 18 -11 36 -32 54 -24 21 -28 28 -16 29 12 0 18 10 20 37 3
39 23 55 32 26 3 -10 3 0 1 22 -3 22 -5 52 -5 68 0 15 -6 27 -13 27 -30 0 -47
27 -56 85 -8 55 -9 57 -10 18 l-1 -43 -55 0 -55 0 0 40 c0 33 -3 40 -19 40
-16 0 -21 8 -24 43 -3 33 -4 35 -5 10z m178 -499 c0 -19 -4 -34 -10 -34 -5 0
-10 18 -10 41 0 24 4 38 10 34 6 -3 10 -22 10 -41z m-20 -168 c0 -36 4 -56 14
-59 7 -3 16 -15 19 -26 4 -16 0 -21 -14 -21 -16 0 -19 -8 -20 -42 l-1 -43 -8
47 c-5 26 -11 81 -15 123 -6 65 -5 75 9 75 13 0 16 -11 16 -54z m160 -356 c0
-5 -7 -10 -15 -10 -8 0 -15 5 -15 10 0 6 7 10 15 10 8 0 15 -4 15 -10z m-220
-185 c0 -8 -4 -17 -10 -20 -6 -4 -10 5 -10 20 0 15 4 24 10 20 6 -3 10 -12 10
-20z"/>
<path d="M1661 2331 c-20 -18 -21 -21 -7 -60 8 -23 12 -50 9 -60 -3 -10 0 -22
6 -25 6 -4 11 -22 11 -40 0 -17 4 -36 9 -41 4 -6 14 -31 21 -57 7 -27 16 -48
20 -48 5 0 11 -18 15 -41 l7 -40 24 45 c13 25 24 48 24 51 0 11 -28 5 -33 -7
-3 -7 -6 6 -6 30 -1 23 -4 42 -9 42 -9 0 -32 95 -32 133 0 15 -4 27 -10 27 -5
0 -10 25 -10 55 0 60 -6 65 -39 36z"/>
<path d="M1875 2150 c3 -5 8 -10 11 -10 2 0 4 5 4 10 0 6 -5 10 -11 10 -5 0
-7 -4 -4 -10z"/>
<path d="M1951 2061 c-11 -19 5 -42 39 -54 11 -4 10 -6 -4 -6 -17 -1 -17 -3
-2 -26 9 -13 16 -43 16 -65 0 -23 5 -51 11 -63 7 -12 14 -83 16 -166 2 -92 8
-150 15 -159 10 -11 8 -18 -11 -34 -14 -10 -27 -15 -30 -10 -3 5 -14 12 -24
15 -11 4 -21 15 -24 25 -2 10 -14 22 -26 27 -12 6 -23 20 -25 33 -2 12 -10 22
-18 22 -8 0 -14 4 -14 10 0 5 -9 17 -19 27 -10 10 -20 27 -22 37 -2 11 -10 21
-16 24 -19 6 -16 -45 2 -52 8 -3 15 -15 15 -26 0 -11 6 -20 14 -20 8 0 17 -11
20 -24 3 -13 17 -34 31 -47 13 -13 25 -28 25 -34 1 -14 36 -55 48 -55 5 0 15
-19 22 -42 8 -24 20 -52 27 -63 7 -11 13 -34 13 -51 0 -17 7 -37 15 -44 8 -7
15 -23 15 -37 0 -13 4 -32 9 -42 6 -9 19 -64 30 -120 12 -57 24 -108 28 -114
14 -22 33 -82 33 -104 0 -13 4 -23 9 -23 5 0 11 -10 14 -22 3 -13 11 -43 17
-67 29 -116 29 -201 0 -201 -16 0 -34 42 -21 49 14 9 -25 67 -68 101 -17 14
-31 33 -31 42 0 10 -4 18 -10 18 -5 0 -10 -6 -10 -14 0 -8 5 -18 10 -21 6 -3
10 -15 10 -25 0 -10 6 -21 13 -23 10 -4 10 -6 0 -6 -35 -2 14 -59 52 -61 11
-1 14 -4 8 -7 -17 -6 -16 -23 3 -61 18 -37 34 -113 41 -197 3 -33 8 -62 12
-65 11 -9 73 -154 84 -197 l10 -43 69 0 68 0 0 40 c0 22 4 40 9 40 5 0 5 16
-1 38 -5 20 -15 73 -21 117 -5 44 -13 82 -17 85 -16 11 -27 71 -29 155 -1 50
-9 117 -16 150 -8 33 -14 76 -14 95 0 44 -16 152 -30 205 -9 35 -43 238 -58
348 -3 20 -9 40 -14 43 -5 3 -9 16 -9 30 0 13 -4 32 -9 42 -6 9 -19 62 -31
117 -12 55 -26 110 -31 123 -5 13 -9 34 -9 48 0 14 -6 35 -14 47 -8 12 -18 43
-21 70 -4 26 -11 47 -16 47 -5 0 -9 6 -9 14 0 7 -7 19 -15 26 -9 7 -15 20 -13
29 1 9 -5 27 -15 41 -9 13 -17 34 -17 46 0 12 -7 27 -15 34 -8 7 -15 19 -15
28 0 8 -3 12 -6 9 -4 -3 -15 -2 -25 3 -14 8 -20 6 -28 -9z m126 -693 c-3 -8
-6 -5 -6 6 -1 11 2 17 5 13 3 -3 4 -12 1 -19z"/>
<path d="M2560 2070 c0 -5 5 -10 10 -10 6 0 10 5 10 10 0 6 -4 10 -10 10 -5 0
-10 -4 -10 -10z"/>
<path d="M1645 1910 c3 -5 8 -10 11 -10 2 0 4 5 4 10 0 6 -5 10 -11 10 -5 0
-7 -4 -4 -10z"/>
<path d="M1780 1881 c0 -34 3 -41 20 -41 11 0 20 -7 20 -15 0 -8 4 -15 9 -15
5 0 11 7 15 15 3 9 0 15 -9 15 -9 0 -15 13 -17 37 -2 27 -8 39 -20 41 -15 3
-18 -4 -18 -37z"/>
<path d="M6641 1854 c0 -11 3 -14 6 -6 3 7 2 16 -1 19 -3 4 -6 -2 -5 -13z"/>
<path d="M1680 1852 c0 -5 7 -15 15 -22 8 -7 15 -9 15 -6 0 4 -7 14 -15 22 -8
9 -15 11 -15 6z"/>
<path d="M6633 1760 c0 -25 2 -35 4 -22 2 12 2 32 0 45 -2 12 -4 2 -4 -23z"/>
<path d="M1760 1743 c0 -13 5 -23 10 -23 13 0 13 11 0 30 -8 12 -10 11 -10 -7z"/>
<path d="M2590 1720 c0 -29 4 -40 15 -40 11 0 15 11 15 40 0 29 -4 40 -15 40
-11 0 -15 -11 -15 -40z"/>
<path d="M11360 1560 c0 -29 4 -40 15 -40 11 0 15 11 15 40 0 29 -4 40 -15 40
-11 0 -15 -11 -15 -40z"/>
<path d="M6611 1393 c0 -53 3 -72 9 -58 12 28 12 123 0 130 -6 4 -10 -22 -9
-72z"/>
<path d="M1121 1303 c-1 -12 5 -24 12 -26 9 -4 9 -8 -2 -15 -12 -9 -12 -13 -2
-26 17 -20 45 -21 61 -1 10 11 9 18 -3 30 -9 8 -20 15 -25 15 -5 0 -17 10 -25
23 l-16 22 0 -22z"/>
<path d="M0 1240 c0 -29 4 -40 15 -40 11 0 15 11 15 40 0 29 -4 40 -15 40 -11
0 -15 -11 -15 -40z"/>
<path d="M10792 1260 c0 -14 2 -19 5 -12 2 6 2 18 0 25 -3 6 -5 1 -5 -13z"/>
<path d="M387 1223 c-12 -11 -7 -23 9 -23 13 0 15 -8 12 -40 -5 -51 17 -55 25
-4 7 44 -24 90 -46 67z"/>
<path d="M1100 1185 c0 -8 5 -15 10 -15 6 0 10 7 10 15 0 8 -4 15 -10 15 -5 0
-10 -7 -10 -15z"/>
<path d="M19520 1160 l0 -40 40 0 40 0 0 40 0 40 -40 0 -40 0 0 -40z"/>
<path d="M1170 1170 c-13 -9 -13 -11 0 -20 22 -15 30 -12 30 10 0 22 -8 25
-30 10z"/>
<path d="M0 1130 c0 -5 5 -10 11 -10 5 0 7 5 4 10 -3 6 -8 10 -11 10 -2 0 -4
-4 -4 -10z"/>
<path d="M1178 1101 c22 -19 31 -61 12 -61 -5 0 -10 -6 -10 -13 0 -8 12 -14
30 -14 23 0 30 5 30 21 0 30 -42 86 -65 86 -19 -1 -19 -1 3 -19z"/>
<path d="M1220 920 c0 -33 3 -40 20 -40 17 0 20 7 20 40 0 33 -3 40 -20 40
-17 0 -20 -7 -20 -40z"/>
<path d="M10432 910 c0 -14 2 -19 5 -12 2 6 2 18 0 25 -3 6 -5 1 -5 -13z"/>
<path d="M1280 870 c0 -5 4 -10 9 -10 6 0 13 5 16 10 3 6 -1 10 -9 10 -9 0
-16 -4 -16 -10z"/>
<path d="M400 816 c0 -9 5 -16 10 -16 6 0 10 4 10 9 0 6 -4 13 -10 16 -5 3
-10 -1 -10 -9z"/>
<path d="M1276 804 c-5 -17 -2 -32 9 -43 8 -10 15 -23 15 -29 0 -7 9 -12 20
-12 11 0 20 -7 20 -15 0 -8 5 -15 10 -15 6 0 10 -11 10 -25 0 -18 5 -25 20
-25 17 0 20 7 20 40 0 33 -3 40 -20 40 -13 0 -20 7 -20 19 0 11 -4 23 -10 26
-5 3 -10 13 -10 22 0 17 -28 42 -46 43 -7 0 -15 -12 -18 -26z"/>
<path d="M12483 565 c0 -44 2 -61 4 -37 2 23 2 59 0 80 -2 20 -4 1 -4 -43z"/>
<path d="M2393 520 c0 -25 2 -35 4 -22 2 12 2 32 0 45 -2 12 -4 2 -4 -23z"/>
<path d="M400 496 c0 -9 5 -16 10 -16 6 0 10 4 10 9 0 6 -4 13 -10 16 -5 3
-10 -1 -10 -9z"/>
<path d="M10376 343 c-11 -11 -6 -23 9 -23 8 0 15 4 15 9 0 13 -16 22 -24 14z"/>
<path d="M14560 280 c0 -33 3 -40 20 -40 17 0 20 7 20 40 0 33 -3 40 -20 40
-17 0 -20 -7 -20 -40z"/>
</g>
</svg>
