<?xml version="1.0" standalone="no"?>
<!DOCTYPE svg PUBLIC "-//W3C//DTD SVG 20010904//EN"
 "http://www.w3.org/TR/2001/REC-SVG-20010904/DTD/svg10.dtd">
<svg version="1.0" xmlns="http://www.w3.org/2000/svg"
 width="2048.000000pt" height="1360.000000pt" viewBox="0 0 2048.000000 1360.000000"
 preserveAspectRatio="xMidYMid meet">

<g transform="translate(0.000000,1360.000000) scale(0.100000,-0.100000)"
fill="#000000" stroke="none">
<path d="M0 12200 l0 -1400 40 0 40 0 0 40 0 40 40 0 40 0 0 40 0 40 80 0 80
0 0 40 0 40 80 0 80 0 0 40 0 40 440 0 440 0 0 -40 0 -40 80 0 80 0 0 40 0 40
80 0 80 0 0 40 0 40 80 0 80 0 0 40 0 40 80 0 80 0 0 40 0 40 160 0 160 0 0
-40 0 -40 120 0 120 0 0 -40 0 -40 320 0 320 0 0 40 0 40 80 0 80 0 0 40 0 40
160 0 160 0 0 -280 c0 -273 0 -280 -20 -280 -17 0 -20 -7 -20 -40 0 -33 3 -40
20 -40 17 0 20 -7 21 -42 1 -24 1 -60 0 -80 -2 -22 2 -38 8 -38 6 0 11 -18 11
-40 0 -22 -5 -40 -11 -40 -6 0 -9 -28 -7 -77 1 -43 2 -151 0 -240 -2 -156 -3
-163 -22 -163 -18 0 -20 -7 -20 -80 0 -72 2 -80 19 -80 11 0 21 3 24 8 2 4 2
1 0 -6 -1 -8 -3 -29 -3 -48 0 -27 -4 -34 -20 -34 -18 0 -20 -7 -20 -80 0 -73
2 -80 20 -80 19 0 20 -7 20 -160 l0 -160 -40 0 -40 0 0 -80 0 -80 40 0 40 0 0
80 0 80 40 0 40 0 0 -120 c0 -113 1 -120 20 -120 17 0 20 -7 20 -40 0 -33 3
-40 20 -40 11 0 20 -7 20 -15 0 -18 47 -65 65 -65 11 0 15 -12 15 -40 0 -33 3
-40 19 -40 18 0 19 -7 14 -160 -4 -117 -3 -160 6 -160 6 0 11 -7 11 -16 0 -9
7 -32 16 -52 31 -70 42 -97 54 -137 7 -22 19 -58 26 -80 8 -23 14 -57 14 -78
0 -20 5 -37 10 -37 6 0 10 -33 10 -80 0 -44 4 -80 9 -80 5 0 12 -18 16 -39 3
-22 13 -47 20 -58 8 -10 15 -28 15 -40 0 -13 4 -23 10 -23 5 0 19 -18 30 -40
11 -22 25 -40 30 -40 6 0 10 -16 10 -36 0 -19 6 -41 13 -48 6 -8 19 -24 27
-36 19 -29 51 -61 80 -80 12 -8 28 -21 36 -27 7 -7 17 -13 22 -13 5 0 15 -18
22 -40 7 -22 19 -40 27 -40 7 0 13 -8 13 -19 0 -10 7 -24 15 -31 10 -8 15 -30
15 -61 0 -45 2 -49 24 -49 23 0 24 -4 31 -80 4 -44 10 -80 15 -80 4 0 15 -36
24 -79 10 -44 22 -81 27 -83 6 -2 -25 -2 -68 0 -43 2 -79 8 -81 13 -5 13 -402
12 -402 -1 0 -6 -29 -10 -67 -10 -38 0 -115 -7 -173 -15 -58 -8 -135 -15 -173
-15 -37 0 -85 -6 -107 -12 l-40 -13 0 -53 c0 -45 4 -56 28 -77 15 -13 33 -25
40 -25 6 0 12 -7 12 -15 0 -9 9 -15 25 -15 14 0 25 -4 25 -10 0 -5 7 -10 15
-10 8 0 15 -7 15 -15 0 -19 -26 -20 -33 -1 -3 7 -19 16 -36 20 -17 3 -44 9
-61 12 -23 5 -30 3 -30 -9 0 -8 8 -17 18 -21 19 -6 54 -27 62 -37 3 -4 14 -8
24 -10 28 -6 43 -35 30 -56 -14 -23 -54 -30 -54 -10 0 9 -15 17 -37 22 -21 4
-41 12 -45 18 -14 23 -46 -56 -53 -134 -4 -43 -11 -79 -16 -79 -5 0 -9 -36 -9
-80 0 -44 -4 -80 -8 -80 -10 0 -32 -182 -32 -262 0 -32 -4 -58 -10 -58 -5 0
-10 -18 -10 -39 0 -22 -5 -41 -12 -43 -8 -3 -12 -68 -11 -241 0 -171 -3 -237
-12 -237 -7 0 -9 -13 -7 -34 8 -67 -97 -206 -155 -206 -23 0 -25 -3 -21 -40 3
-36 1 -40 -19 -40 -13 0 -23 -6 -23 -12 -1 -7 -19 -26 -40 -43 -28 -22 -39
-38 -40 -57 0 -26 -3 -28 -40 -28 -22 0 -40 -4 -40 -10 0 -5 -18 -10 -40 -10
l-40 0 0 -120 0 -120 80 0 80 0 0 -40 0 -40 80 0 80 0 0 -40 0 -40 -40 0 c-22
0 -40 -4 -40 -10 0 -6 33 -10 80 -10 l80 0 0 50 0 50 40 0 40 0 0 -40 0 -40
40 0 40 0 0 80 0 80 40 0 40 0 0 -40 0 -40 40 0 40 0 0 -40 0 -40 80 0 80 0 0
-40 0 -40 80 0 c47 0 80 -4 80 -10 0 -5 18 -10 40 -10 38 0 40 -2 40 -30 0
-28 2 -30 40 -30 l40 0 0 40 0 40 120 0 c113 0 120 -1 120 -20 0 -17 7 -20 40
-20 37 0 40 -2 40 -29 0 -28 0 -29 78 -36 42 -4 79 -10 82 -14 13 -16 110 -61
141 -64 71 -8 99 -19 99 -38 0 -15 8 -19 40 -19 22 0 40 -3 40 -7 0 -9 49 -33
67 -33 7 0 13 9 13 20 0 19 7 20 160 20 153 0 160 -1 160 -20 0 -17 7 -20 40
-20 33 0 40 -3 40 -19 0 -16 -8 -21 -37 -24 -21 -2 5 -2 57 1 52 3 97 6 99 8
12 11 -28 64 -92 122 -21 18 -36 40 -36 50 1 16 2 16 6 -1 4 -15 33 -25 33
-11 0 21 -35 74 -49 74 -9 0 -23 14 -30 33 -15 34 -17 42 -27 95 -5 27 -11 32
-35 32 -27 0 -29 3 -29 40 0 22 -4 40 -10 40 -5 0 -10 6 -10 13 0 8 -18 19
-40 26 -23 7 -40 18 -40 26 0 8 -8 15 -19 15 -10 0 -21 9 -24 20 -3 13 -14 20
-31 20 -15 0 -31 8 -38 20 -7 11 -21 20 -30 20 -11 0 -18 7 -18 18 0 11 -14
25 -35 35 -20 9 -38 24 -41 32 -4 10 -20 15 -45 15 -28 0 -39 4 -39 15 0 11
-11 15 -40 15 -29 0 -40 4 -40 15 0 11 -11 15 -40 15 -29 0 -40 4 -40 15 0 11
-11 15 -40 15 -36 0 -40 3 -40 25 0 22 -4 25 -39 25 -22 0 -43 4 -46 10 -3 5
-22 10 -41 10 -19 0 -34 5 -34 10 0 6 -17 10 -37 10 -21 0 -53 9 -71 20 -18
11 -44 20 -59 20 -27 0 -73 41 -73 66 0 10 -12 14 -40 14 l-40 0 0 124 0 123
-35 6 c-30 5 -65 26 -65 40 0 2 23 2 50 -1 41 -4 50 -2 50 12 0 9 8 16 20 16
18 0 20 7 20 85 0 64 4 87 14 91 21 8 106 -81 106 -111 0 -19 5 -25 21 -25 12
0 23 -8 26 -20 3 -11 9 -20 14 -20 5 0 10 -19 10 -42 1 -24 4 -33 6 -20 5 27
29 29 45 2 7 -11 18 -20 25 -20 8 0 13 -12 13 -28 0 -29 44 -82 68 -82 7 0 12
-6 12 -14 0 -8 8 -21 18 -28 10 -7 21 -21 25 -30 3 -10 13 -18 21 -18 7 0 16
-9 19 -20 3 -12 14 -20 26 -20 12 0 21 -6 21 -15 0 -9 7 -18 15 -21 8 -4 15
-15 15 -25 0 -15 7 -19 40 -19 35 0 40 -3 40 -23 0 -32 30 -57 67 -57 23 0 40
-10 67 -40 31 -34 42 -40 76 -40 22 0 40 -4 40 -9 0 -5 16 -18 35 -30 20 -11
35 -27 34 -33 -4 -33 2 -38 46 -38 38 0 45 -3 45 -20 0 -15 7 -20 29 -20 40 0
61 -9 61 -27 0 -7 11 -25 25 -38 13 -14 20 -25 15 -25 -6 0 -10 -18 -10 -40 0
-33 3 -40 20 -40 11 0 20 -6 20 -14 0 -7 20 -30 44 -50 53 -43 117 -163 94
-177 -10 -7 -10 -11 0 -21 6 -6 12 -20 12 -29 0 -19 20 -29 56 -29 25 0 28 -4
38 -52 5 -23 12 -28 36 -28 26 0 31 5 37 30 5 30 6 30 73 30 45 0 70 -4 73
-12 3 -7 6 51 6 130 l1 142 -40 0 -40 0 0 120 0 120 -40 0 -40 0 0 160 0 160
-40 0 -40 0 0 40 0 40 40 0 40 0 0 120 0 120 120 0 c100 0 120 3 120 15 0 11
11 15 40 15 29 0 40 -4 40 -15 0 -12 16 -15 80 -15 73 0 80 -2 80 -20 0 -17 7
-20 40 -20 33 0 40 -3 40 -20 0 -19 7 -20 240 -20 l240 0 0 40 0 40 160 0
c153 0 160 1 160 20 0 17 7 20 40 20 33 0 40 -3 40 -20 0 -17 7 -20 40 -20
l40 0 0 40 0 40 40 0 40 0 0 -40 0 -40 60 0 60 0 0 -120 c0 -73 -4 -120 -10
-120 -5 0 -10 -18 -10 -40 0 -22 -4 -40 -10 -40 -5 0 -10 18 -10 40 l0 40 -40
0 -40 0 0 -120 0 -120 -40 0 -40 0 0 -120 0 -120 -40 0 -40 0 0 -80 0 -80 120
0 120 0 0 -40 0 -40 40 0 c34 0 40 3 40 21 0 18 2 19 15 9 8 -7 15 -16 15 -21
0 -5 -7 -9 -15 -9 -11 0 -15 -11 -15 -40 0 -40 0 -40 38 -40 31 0 41 -6 60
-33 27 -41 27 -47 2 -47 -17 0 -20 -7 -20 -40 l0 -40 60 0 60 0 0 -40 c0 -33
3 -40 20 -40 17 0 20 -7 20 -40 0 -33 3 -40 20 -40 17 0 20 -7 20 -40 0 -22 5
-40 10 -40 6 0 10 -34 10 -83 0 -46 3 -86 6 -90 7 -7 46 13 57 30 4 7 15 13
22 13 8 0 15 3 15 8 0 11 93 42 129 42 27 0 31 3 31 28 0 16 8 34 20 42 14 10
20 26 20 52 0 35 2 38 29 38 l29 0 6 80 c3 44 9 116 12 160 5 70 9 80 25 80
15 0 19 7 19 39 0 22 5 41 12 43 8 3 12 39 12 118 0 79 -4 115 -12 118 -7 2
-12 21 -12 43 0 21 -4 39 -10 39 -12 0 -40 53 -40 75 0 9 -25 40 -55 70 -32
31 -55 61 -55 74 0 14 -6 21 -19 21 -10 0 -21 9 -24 20 -3 11 -12 20 -21 20
-9 0 -16 8 -16 20 0 11 -7 20 -15 20 -17 0 -65 46 -65 64 0 15 -43 47 -87 65
-18 8 -33 16 -33 20 0 3 -12 20 -26 36 -14 17 -40 54 -57 83 -18 28 -37 52
-43 52 -6 0 -16 18 -23 40 -8 28 -17 40 -31 40 -16 0 -19 11 -25 85 -4 46 -4
101 0 122 4 21 9 72 12 114 l4 76 35 11 c25 7 34 7 34 -1 1 -35 19 30 29 102
14 110 14 118 -1 103 -23 -23 -29 -12 -26 46 l3 57 38 3 c30 3 37 0 37 -14 0
-16 2 -15 20 4 11 12 20 30 20 42 0 13 10 24 26 30 24 9 25 13 18 56 -6 46 -6
47 17 42 13 -3 31 -8 39 -12 10 -4 19 3 27 19 7 14 19 36 25 50 7 14 21 25 31
25 9 0 17 7 17 15 0 29 31 65 56 65 23 0 24 2 24 80 l0 80 -80 0 -80 0 0 120
0 120 -40 0 -40 0 0 -40 0 -40 -40 0 -40 0 0 80 0 80 -40 0 -40 0 0 80 0 80
40 0 40 0 0 80 0 80 40 0 40 0 0 80 c0 73 -2 80 -20 80 -17 0 -20 7 -20 40 0
29 -4 40 -15 40 -11 0 -15 11 -15 40 0 36 -2 40 -25 40 -25 0 -25 1 -25 80 0
73 2 80 20 80 11 0 20 -4 20 -10 0 -5 18 -10 40 -10 22 0 40 -4 40 -10 0 -6
47 -10 120 -10 l120 0 0 24 c0 32 53 51 116 41 25 -3 44 -2 44 3 0 5 18 17 40
27 22 10 40 21 40 25 0 3 18 16 40 29 22 12 40 29 40 37 0 8 10 14 23 14 29 0
57 29 57 58 0 12 5 22 10 22 17 0 58 52 65 82 6 27 32 45 46 31 5 -5 4 -37 -1
-73 -5 -36 -10 -95 -10 -132 0 -38 -4 -68 -9 -68 -5 0 -12 -8 -14 -17 -4 -17
-5 -17 -6 0 -1 13 -10 17 -41 17 l-40 0 0 -80 c0 -64 3 -80 15 -80 11 0 15
-11 15 -40 0 -29 -4 -40 -15 -40 -11 0 -15 -11 -15 -40 l0 -40 -40 0 -40 0 0
-80 0 -80 -80 0 -80 0 0 -40 0 -40 40 0 40 0 0 -80 0 -80 40 0 c30 0 40 4 40
16 0 9 11 25 25 35 13 11 22 26 19 34 -3 7 4 20 15 27 12 7 21 21 21 30 0 11
8 18 20 18 18 0 20 7 20 80 0 76 1 80 23 80 12 0 39 16 60 35 41 39 44 45 22
45 -11 0 -15 11 -15 40 0 30 4 40 16 40 14 0 16 12 12 96 -2 53 -1 88 3 78 5
-13 8 -5 8 24 1 35 4 42 21 42 16 0 20 7 20 35 0 29 -5 37 -25 45 -20 8 -25
16 -25 45 0 23 5 35 14 35 9 0 15 21 20 73 4 39 14 99 22 132 14 53 15 105 3
144 -2 7 2 16 8 18 8 3 13 -5 13 -21 0 -19 5 -26 19 -26 15 0 19 10 24 57 4
35 12 62 22 69 8 6 15 14 15 18 0 11 43 45 58 46 7 0 18 11 24 25 6 14 17 25
25 25 7 0 13 6 13 13 0 6 9 23 20 37 12 16 20 41 20 68 0 28 4 42 13 42 8 0
19 18 26 40 7 23 18 40 26 40 12 0 15 17 15 80 0 75 1 80 21 80 20 0 21 4 15
53 -12 101 -19 295 -11 323 l7 29 9 -24 c16 -42 19 -17 7 76 -10 87 -10 92 11
114 l21 23 0 -57 c0 -31 5 -57 10 -57 6 0 10 33 10 80 0 47 -4 80 -10 80 -5 0
-10 18 -10 40 0 28 4 40 14 40 10 0 16 22 21 80 4 44 11 80 16 80 14 0 11 101
-8 258 -12 101 -21 142 -30 142 -9 0 -13 14 -13 40 0 28 -4 40 -14 40 -18 0
-26 87 -10 101 13 10 44 2 44 -12 0 -5 9 -9 20 -9 25 0 25 8 0 40 -11 14 -20
28 -20 33 0 12 38 8 42 -5 3 -9 9 -8 21 4 18 18 24 88 7 88 -5 0 -10 18 -10
40 0 33 -3 40 -20 40 -17 0 -20 7 -20 40 0 33 3 40 20 40 17 0 20 7 20 40 0
38 -2 40 -30 40 -28 0 -30 2 -30 40 0 22 -4 40 -10 40 -5 0 -10 18 -10 40 l0
40 40 0 40 0 0 81 0 81 -77 -4 c-43 -3 -61 -3 -40 -1 36 4 37 6 37 43 0 21 -6
41 -12 43 -10 4 -10 6 0 6 21 2 15 59 -8 66 -16 5 -20 15 -20 46 0 32 -3 39
-20 39 -17 0 -20 7 -20 43 0 26 -8 51 -20 67 -14 17 -20 41 -20 78 0 45 -3 52
-20 52 -17 0 -20 7 -20 40 l0 40 -40 0 -40 0 0 120 0 120 -40 0 -40 0 0 40 0
40 40 0 40 0 0 40 0 40 400 0 400 0 0 -40 0 -40 400 0 400 0 0 -40 0 -40 280
0 280 0 0 40 0 40 40 0 40 0 0 -40 0 -40 40 0 40 0 0 40 0 40 280 0 280 0 0
40 0 40 80 0 80 0 0 40 0 40 80 0 80 0 0 40 0 40 200 0 200 0 0 40 0 40 280 0
280 0 0 -40 0 -40 480 0 480 0 0 -40 0 -40 200 0 200 0 0 -40 0 -40 280 0 280
0 0 40 0 40 120 0 120 0 0 40 0 40 240 0 240 0 0 -40 0 -40 560 0 560 0 0 40
0 40 320 0 320 0 0 40 0 40 40 0 40 0 0 80 0 80 -40 0 -40 0 0 80 0 80 -40 0
-40 0 0 80 0 80 -40 0 -40 0 0 440 0 440 -3680 0 -3680 0 0 -40 0 -40 -40 0
-40 0 0 -80 0 -80 -40 0 -40 0 0 -120 0 -120 -40 0 -40 0 0 40 0 40 -120 0
-120 0 0 40 0 40 -120 0 -120 0 0 40 0 40 -40 0 -40 0 0 40 0 40 -40 0 -40 0
0 40 0 40 -40 0 -40 0 0 40 0 40 -920 0 -920 0 0 -80 0 -80 -80 0 -80 0 0 -80
0 -80 -80 0 -80 0 0 -80 0 -80 -120 0 -120 0 0 -40 0 -40 -80 0 -80 0 0 -40 0
-40 -160 0 -160 0 0 40 0 40 -560 0 -560 0 0 40 0 40 -40 0 -40 0 0 40 0 40
-40 0 -40 0 0 80 0 80 -40 0 -40 0 0 40 0 40 -40 0 -40 0 0 80 0 80 -2240 0
-2240 0 0 -1400z m6943 -1610 c79 0 97 -3 97 -15 0 -11 11 -15 40 -15 29 0 40
4 40 15 0 11 11 15 40 15 l40 0 0 -55 0 -55 80 0 80 0 0 -40 0 -40 160 0 160
0 0 -40 0 -40 40 0 40 0 0 -80 0 -80 40 0 c38 0 40 2 40 30 0 28 2 30 40 30
36 0 40 3 40 25 0 23 4 25 40 25 36 0 40 3 40 25 0 25 1 25 80 25 l80 0 0 -80
0 -80 40 0 40 0 0 -280 c0 -242 2 -280 15 -280 11 0 15 -11 15 -40 0 -29 -4
-40 -15 -40 -13 0 -15 -24 -15 -160 l0 -160 -40 0 -40 0 0 -60 0 -60 -40 0
c-33 0 -40 3 -40 20 0 16 -7 20 -30 20 -28 0 -30 2 -30 40 l0 40 -130 0 c-109
0 -130 -2 -130 -15 0 -12 -16 -15 -80 -15 -64 0 -80 3 -80 15 0 12 -16 15 -80
15 -47 0 -80 4 -80 10 0 6 -18 10 -40 10 -33 0 -40 -3 -40 -20 0 -18 -7 -20
-80 -20 -47 0 -80 -4 -80 -10 0 -5 -18 -10 -40 -10 -33 0 -40 3 -40 20 0 18
-7 20 -80 20 l-80 0 0 -55 0 -55 -160 0 c-100 0 -160 4 -160 10 0 6 18 10 40
10 l40 0 0 45 0 45 -80 0 -80 0 0 40 0 40 -80 0 c-73 0 -80 -2 -80 -20 0 -17
-7 -20 -40 -20 l-40 0 0 60 0 60 -40 0 -40 0 0 40 0 40 -40 0 -40 0 0 40 0 40
-40 0 -40 0 0 120 0 120 40 0 40 0 0 320 0 320 80 0 80 0 0 40 0 40 80 0 80 0
0 40 0 40 40 0 40 0 0 -40 0 -40 40 0 40 0 0 54 0 55 38 4 c20 3 66 3 102 1
36 -2 109 -4 163 -4z m1195 -178 c2 -7 -6 -12 -17 -12 -21 0 -27 11 -14 24 9
9 26 2 31 -12z m-188 -52 c0 -29 -4 -40 -15 -40 -11 0 -15 11 -15 40 0 29 4
40 15 40 11 0 15 -11 15 -40z m400 -1040 c0 -29 -4 -40 -15 -40 -11 0 -15 11
-15 40 0 29 4 40 15 40 11 0 15 -11 15 -40z m-1957 -193 c10 -1 28 -14 39 -29
10 -15 26 -28 34 -28 8 0 14 -4 14 -9 0 -5 8 -12 18 -15 45 -17 62 -32 62 -54
0 -20 -3 -21 -20 -12 -11 6 -20 15 -20 21 0 15 -26 39 -42 39 -7 0 -19 9 -26
20 -7 11 -21 20 -32 20 -11 0 -20 3 -20 8 0 8 -49 32 -67 32 -7 0 -13 5 -13
11 0 7 10 9 28 5 15 -4 35 -8 45 -9z m167 -17 c0 -7 -14 -8 -37 -4 -52 9 -54
14 -5 14 23 0 42 -5 42 -10z m513 -67 c-7 -2 -19 -2 -25 0 -7 3 -2 5 12 5 14
0 19 -2 13 -5z m497 -21 c102 -3 222 -4 268 -3 66 1 82 -2 82 -13 0 -10 14
-16 43 -19 23 -3 -36 -2 -130 0 -125 4 -173 2 -173 -6 0 -6 21 -12 53 -13 l52
-2 -45 -3 -45 -4 3 -39 c3 -33 1 -40 -14 -40 -15 0 -16 -2 -5 -12 11 -10 14
-10 18 0 3 7 22 12 44 12 36 0 39 -2 39 -29 0 -20 -6 -32 -18 -35 -14 -5 -16
-15 -14 -51 3 -28 0 -45 -7 -45 -6 0 -11 -18 -11 -40 0 -28 -4 -40 -14 -40 -8
0 -16 -6 -19 -12 -2 -8 -8 -9 -13 -4 -5 5 -4 11 4 13 18 7 15 23 -4 23 -9 0
-25 -10 -36 -22 -16 -19 -21 -20 -28 -8 -14 23 -12 88 3 87 6 0 28 1 47 2 l35
3 -42 19 c-29 14 -43 26 -43 39 0 11 7 20 15 20 14 0 14 4 0 36 -8 20 -15 46
-15 58 0 12 -9 27 -21 34 -12 7 -18 19 -15 27 4 12 -8 14 -72 10 l-77 -4 75
10 c41 5 87 7 103 5 15 -3 27 -2 27 3 0 24 -109 19 -335 -13 l-30 -5 30 14
c17 8 40 14 53 15 38 0 24 17 -20 24 -24 4 -76 9 -117 12 -41 2 -77 7 -80 11
-3 3 55 2 129 -2 74 -4 218 -10 320 -13z m573 -69 c-13 -2 -33 -2 -45 0 -13 2
-3 4 22 4 25 0 35 -2 23 -4z m177 -29 l0 -35 -28 20 c-16 11 -35 27 -42 36
-11 13 -7 15 29 15 40 0 41 -1 41 -36z m-1416 11 c15 -8 35 -15 42 -15 8 0 14
-4 14 -10 0 -5 -6 -10 -14 -10 -8 0 -18 5 -21 10 -3 6 -33 10 -66 10 -46 0
-59 3 -59 15 0 20 65 20 104 0z m-287 -67 c-3 -8 -6 -5 -6 6 -1 11 2 17 5 13
3 -3 4 -12 1 -19z m246 15 c-13 -2 -33 -2 -45 0 -13 2 -3 4 22 4 25 0 35 -2
23 -4z m167 -15 c0 -7 3 -24 6 -38 6 -22 4 -21 -20 9 -31 42 -31 41 -6 41 11
0 20 -6 20 -12z m1370 -13 c0 -29 -7 -31 -32 -8 -25 22 -23 33 7 33 20 0 25
-5 25 -25z m-1433 -17 c-3 -8 -6 -5 -6 6 -1 11 2 17 5 13 3 -3 4 -12 1 -19z
m-330 -30 c-3 -7 -5 -2 -5 12 0 14 2 19 5 13 2 -7 2 -19 0 -25z m163 13 c0
-12 8 -21 20 -23 17 -3 18 -6 7 -27 -18 -36 -31 -36 -71 0 -50 43 -48 69 4 69
33 0 40 -3 40 -19z m240 -42 c0 -11 -4 -17 -10 -14 -5 3 -10 13 -10 21 0 8 5
14 10 14 6 0 10 -9 10 -21z m757 -41 c-2 -13 -4 -3 -4 22 0 25 2 35 4 23 2
-13 2 -33 0 -45z m-2787 17 c0 -8 -4 -15 -9 -15 -13 0 -22 16 -14 24 11 11 23
6 23 -9z m3630 -175 c0 -11 -4 -20 -9 -20 -5 0 -15 -17 -21 -37 -7 -21 -18
-48 -26 -60 l-14 -22 -24 24 c-13 13 -26 39 -30 58 -6 30 -3 38 21 56 16 12
44 20 66 21 30 0 37 -3 37 -20z m-1810 -62 c0 -34 3 -38 25 -38 16 0 25 -6 25
-15 0 -8 4 -15 9 -15 11 0 26 -39 23 -58 -2 -6 9 -17 23 -24 18 -8 25 -19 25
-38 0 -15 7 -33 15 -40 8 -7 15 -19 15 -27 0 -7 7 -16 15 -19 10 -4 15 -20 15
-45 0 -21 4 -39 8 -39 4 0 19 -18 32 -40 14 -22 33 -40 43 -40 9 0 17 -4 17
-9 0 -15 60 -71 76 -71 8 0 14 -7 14 -16 0 -9 8 -27 19 -40 12 -16 21 -49 26
-99 7 -73 6 -75 -22 -101 -27 -25 -28 -26 -31 -5 -3 17 -10 21 -43 21 -21 0
-39 5 -39 10 0 6 -47 10 -120 10 -73 0 -120 -4 -120 -10 0 -5 7 -10 15 -10 8
0 15 -4 15 -10 0 -5 -7 -10 -15 -10 -8 0 -15 -4 -15 -10 0 -5 -18 -10 -40 -10
-33 0 -40 3 -40 20 0 18 -7 20 -60 20 l-60 0 0 40 c0 33 -3 40 -20 40 -18 0
-20 7 -20 80 l0 80 40 0 40 0 0 40 0 40 -40 0 -40 0 0 40 c0 36 3 40 25 40
l25 0 0 160 0 160 55 0 55 0 0 58 c1 52 2 55 15 38 8 -11 15 -37 15 -58z m820
57 c0 -8 -4 -15 -10 -15 -5 0 -10 7 -10 15 0 8 5 15 10 15 6 0 10 -7 10 -15z
m900 -195 c11 -1 10 -4 -4 -15 -25 -19 -52 -19 -59 -1 -8 19 4 28 28 22 11 -3
27 -6 35 -6z m-3450 -181 c8 -12 21 -28 29 -36 7 -8 11 -17 8 -20 -7 -7 -26
12 -50 50 -20 32 -8 37 13 6z m902 -259 c2 -6 2 -31 0 -55 -3 -36 -8 -45 -23
-45 -17 0 -19 -8 -19 -80 0 -73 -2 -80 -20 -80 -17 0 -20 -7 -20 -40 l0 -40
-80 0 -80 0 0 -40 0 -40 -120 0 -120 0 0 80 0 80 -40 0 -40 0 0 80 0 80 -40 0
c-23 0 -40 5 -40 11 0 9 30 10 108 6 142 -7 335 17 398 51 17 9 110 40 126 41
3 1 8 -4 10 -9z m1118 -200 c0 -24 -3 -24 -40 -5 -39 20 -38 25 5 25 28 0 35
-4 35 -20z m176 -40 c8 0 14 -4 14 -10 0 -5 10 -10 21 -10 23 0 43 -20 59 -57
5 -13 18 -23 30 -23 14 0 20 -7 20 -23 0 -24 40 -86 65 -100 8 -4 15 -17 15
-28 0 -10 18 -35 40 -55 34 -31 40 -43 40 -75 l0 -39 -60 0 -60 0 0 40 c0 33
3 40 20 40 11 0 20 5 20 10 0 6 -18 10 -40 10 -38 0 -40 2 -40 30 0 27 -3 30
-30 30 -28 0 -30 2 -30 40 l0 40 -91 0 -92 0 8 72 c6 65 10 76 38 101 18 15
33 23 35 17 2 -5 10 -10 18 -10z m527 -37 c-13 -2 -33 -2 -45 0 -13 2 -3 4 22
4 25 0 35 -2 23 -4z m-645 -60 c-10 -2 -28 -2 -40 0 -13 2 -5 4 17 4 22 1 32
-1 23 -4z m-58 -103 l0 -60 40 0 40 0 0 -40 0 -40 40 0 40 0 0 40 c0 29 4 40
15 40 12 0 15 -16 15 -80 l0 -80 -55 0 c-42 0 -55 -3 -55 -15 0 -11 -11 -15
-40 -15 -36 0 -40 3 -40 25 0 23 -4 25 -40 25 -36 0 -40 -2 -40 -25 0 -22 -4
-25 -40 -25 -29 0 -40 -4 -40 -15 0 -11 -11 -15 -40 -15 -29 0 -40 4 -40 15 0
11 -11 15 -40 15 -29 0 -40 4 -40 15 0 11 -11 15 -40 15 l-40 0 0 40 0 40 -80
0 -80 0 0 40 c0 36 3 40 25 40 23 0 25 4 25 40 l0 40 55 0 55 0 0 -40 0 -40
40 0 c22 0 40 -4 40 -10 0 -6 33 -10 80 -10 47 0 80 4 80 10 0 6 -18 10 -40
10 l-40 0 0 40 0 40 40 0 c33 0 40 3 40 20 0 18 7 20 80 20 l80 0 0 -60z
m1160 -268 c0 -44 -12 -72 -32 -72 -4 0 -8 27 -8 60 0 53 2 60 20 60 17 0 20
-7 20 -48z m-1240 -192 l0 -80 40 0 39 0 3 73 3 72 33 -32 c38 -37 42 -39 42
-18 0 11 11 15 40 15 29 0 40 -4 40 -15 0 -11 11 -15 40 -15 l40 0 0 -120 0
-120 -40 0 -40 0 0 -40 0 -40 -40 0 -40 0 0 -80 0 -80 120 0 120 0 0 -40 0
-40 -40 0 -40 0 0 -80 0 -80 -80 0 -80 0 0 -40 0 -40 -160 0 c-100 0 -160 4
-160 10 0 6 -18 10 -40 10 -38 0 -40 2 -40 30 l0 30 -80 0 c-64 0 -80 -3 -80
-15 0 -11 -11 -15 -40 -15 -29 0 -40 4 -40 15 0 11 -11 15 -40 15 l-40 0 0 40
0 40 -40 0 -40 0 0 40 0 40 -80 0 -80 0 0 40 0 40 40 0 40 0 0 40 0 40 40 0
c33 0 40 -3 40 -20 0 -18 7 -20 79 -20 63 0 80 3 83 15 2 11 13 6 41 -20 30
-28 37 -31 37 -16 0 16 11 20 80 26 44 4 80 12 80 17 0 6 17 8 40 6 22 -2 40
0 40 4 0 5 18 8 40 8 29 0 40 4 40 15 0 11 11 15 40 15 36 0 40 3 40 25 0 25
1 25 80 25 l80 0 0 40 0 40 -40 0 -40 0 0 40 0 40 -80 0 c-64 0 -80 -3 -80
-15 0 -11 -11 -15 -40 -15 -30 0 -40 4 -40 16 0 13 -12 15 -80 12 l-80 -3 0
43 0 42 -40 0 c-29 0 -40 -4 -40 -15 0 -11 -11 -15 -40 -15 -35 0 -40 3 -40
23 0 14 -12 32 -30 45 -16 13 -30 27 -30 32 0 6 14 10 30 10 27 0 30 3 30 30
l0 30 80 0 c64 0 80 -3 80 -15 0 -11 11 -15 40 -15 29 0 40 4 40 15 0 12 16
15 80 15 47 0 80 4 80 10 0 6 18 10 40 10 l40 0 0 -80z m-3040 -440 c0 -5 -18
-10 -40 -10 -22 0 -40 5 -40 10 0 6 18 10 40 10 22 0 40 -4 40 -10z m-194
-185 c4 -8 12 -15 20 -15 10 0 14 -12 14 -40 0 -22 -4 -40 -9 -40 -5 0 -12
-36 -16 -80 -4 -44 -11 -80 -16 -80 -18 0 -10 -155 10 -201 11 -24 23 -61 26
-81 4 -22 13 -38 21 -38 17 0 64 -47 64 -64 0 -8 6 -16 14 -19 8 -3 20 -22 27
-41 8 -23 19 -36 31 -36 10 0 18 -7 18 -16 0 -16 44 -64 58 -64 4 0 12 -11 18
-23 10 -23 10 -24 -38 -19 -44 4 -48 3 -48 -17 0 -18 -6 -21 -40 -21 -29 0
-40 4 -40 15 0 12 -7 15 -33 10 -41 -8 -87 9 -94 35 -4 14 -14 20 -34 20 -16
0 -29 5 -29 10 0 6 -11 16 -25 22 -17 7 -25 19 -25 35 0 16 -15 38 -40 62 -40
37 -40 37 -40 114 0 70 -2 77 -20 77 -18 0 -20 7 -20 80 0 47 4 80 10 80 6 0
10 18 10 40 0 22 4 40 9 40 5 0 12 36 16 80 7 80 7 80 36 80 27 0 29 -3 29
-40 0 -31 4 -40 18 -40 16 0 42 40 42 67 0 7 7 13 16 13 13 0 15 -8 12 -40 -2
-22 0 -40 5 -40 5 0 6 32 2 74 -4 49 -3 82 5 95 13 25 28 27 36 6z m3834 -265
c0 -5 -9 -10 -20 -10 -11 0 -20 5 -20 10 0 6 9 10 20 10 11 0 20 -4 20 -10z
m-252 -722 c-6 -18 -28 -21 -28 -4 0 9 7 16 16 16 9 0 14 -5 12 -12z m-4188
-588 l0 -40 -40 0 -40 0 0 40 0 40 40 0 40 0 0 -40z m160 -80 l0 -40 -40 0
-40 0 0 40 0 40 40 0 40 0 0 -40z"/>
<path d="M7600 8670 c0 -6 7 -10 15 -10 8 0 15 2 15 4 0 2 -7 6 -15 10 -8 3
-15 1 -15 -4z"/>
<path d="M6720 7400 c0 -17 7 -20 40 -20 33 0 40 3 40 20 0 17 -7 20 -40 20
-33 0 -40 -3 -40 -20z"/>
<path d="M3790 6361 c0 -30 4 -41 16 -41 11 0 14 9 12 37 -4 52 -28 56 -28 4z"/>
<path d="M3681 6144 c0 -11 3 -14 6 -6 3 7 2 16 -1 19 -3 4 -6 -2 -5 -13z"/>
<path d="M19840 13080 l0 -40 -40 0 c-40 0 -40 0 -40 -39 0 -39 1 -40 38 -43
l37 -3 0 -75 0 -75 -77 -3 -78 -3 0 -79 0 -80 80 0 79 0 3 78 3 77 75 0 75 0
3 -77 3 -78 119 0 120 0 0 -40 0 -40 -160 0 -160 0 0 -40 0 -40 -120 0 -120 0
0 -40 0 -40 -40 0 -40 0 0 -120 0 -120 80 0 80 0 0 -40 0 -40 160 0 160 0 0
-40 0 -40 200 0 200 0 0 320 0 320 -40 0 -40 0 0 -40 0 -40 -40 0 -41 0 3 118
3 117 78 3 77 3 0 159 0 160 -320 0 -320 0 0 -40z"/>
<path d="M19367 11354 c-4 -4 -7 -22 -7 -41 l0 -33 81 0 80 0 -3 38 -3 37 -70
3 c-39 1 -74 0 -78 -4z"/>
<path d="M19687 11354 c-4 -4 -7 -22 -7 -41 0 -32 1 -33 40 -33 l40 0 0 -40 0
-40 40 0 41 0 -3 78 -3 77 -70 3 c-39 1 -74 0 -78 -4z"/>
<path d="M20167 11354 c-4 -4 -7 -58 -7 -121 l0 -113 160 0 160 0 0 40 0 40
-80 0 -79 0 -3 78 -3 77 -70 3 c-39 1 -74 0 -78 -4z"/>
<path d="M327 10874 c-4 -4 -7 -76 -7 -161 l0 -153 -160 0 -160 0 0 -280 0
-280 80 0 80 0 0 40 0 40 80 0 80 0 0 40 0 40 80 0 80 0 0 40 0 40 40 0 40 0
0 40 0 40 40 0 40 0 0 80 0 80 40 0 40 0 0 80 0 80 80 0 80 0 0 40 0 40 -120
0 -119 0 -3 78 -3 77 -151 3 c-82 1 -153 -1 -157 -4z"/>
<path d="M960 10640 l0 -80 80 0 81 0 -3 78 -3 77 -77 3 -78 3 0 -81z"/>
<path d="M1360 10520 l0 -40 80 0 80 0 0 40 0 40 -80 0 -80 0 0 -40z"/>
<path d="M20080 10440 l0 -40 -40 0 -40 0 0 -80 0 -80 80 0 80 0 0 80 0 80
160 0 160 0 0 40 0 40 -200 0 -200 0 0 -40z"/>
<path d="M18960 10280 l0 -40 440 0 440 0 0 40 0 40 -440 0 -440 0 0 -40z"/>
<path d="M0 8315 l0 -1445 325 0 324 1 0 328 0 328 -77 2 c-42 1 -78 4 -80 6
-3 2 -7 144 -10 315 l-5 310 42 0 41 0 0 40 0 40 40 0 40 0 0 40 0 40 40 0 40
0 0 160 0 160 -40 0 -40 0 0 80 0 80 40 0 40 0 0 80 0 80 280 0 280 0 0 80 0
80 680 0 680 0 0 40 0 40 -120 0 -120 0 0 40 0 40 -200 0 -200 0 0 40 0 40
-120 0 -120 0 0 40 0 40 -200 0 -200 0 0 40 0 40 -120 0 -120 0 0 -40 0 -40
-280 0 -280 0 0 40 0 40 -160 0 -160 0 0 40 0 40 -80 0 -80 0 0 80 0 80 -40 0
-40 0 0 -1445z"/>
<path d="M10560 9080 l0 -40 -40 0 -40 0 0 -40 0 -40 -40 0 -40 0 0 -40 0 -40
-40 0 -40 0 0 -80 0 -80 -40 0 -40 0 0 -120 0 -120 -40 0 -40 0 0 -80 0 -80
-80 0 -80 0 0 -40 0 -40 -40 0 -40 0 0 -120 0 -120 80 0 80 0 0 -40 0 -40 -40
0 -40 0 0 -80 0 -80 -40 0 -40 0 0 -40 0 -40 -40 0 -40 0 0 -80 0 -80 -40 0
-40 0 0 -40 0 -40 -40 0 -40 0 0 -80 0 -80 -40 0 -40 0 0 -160 0 -160 -39 0
-40 0 0 -720 0 -720 40 0 39 0 0 -120 0 -120 40 0 40 0 0 -80 0 -80 40 0 40 0
0 -120 0 -120 40 0 40 0 0 -362 c0 -200 0 -369 0 -375 0 -7 11 -13 25 -13 15
0 25 -6 25 -15 0 -8 14 -30 30 -48 17 -19 30 -38 30 -43 0 -5 10 -18 23 -29
25 -21 107 -128 107 -138 0 -3 13 -20 29 -37 16 -18 35 -44 42 -58 8 -15 22
-33 32 -40 9 -7 17 -20 17 -28 0 -8 6 -14 14 -14 16 0 26 -21 26 -56 0 -13 6
-24 13 -24 12 0 37 -44 37 -67 0 -7 7 -13 15 -13 11 0 15 -11 15 -40 0 -29 4
-40 15 -40 8 0 15 -9 15 -19 0 -11 4 -22 9 -26 5 -3 13 -19 16 -37 4 -17 16
-47 27 -66 25 -45 58 -132 58 -154 0 -10 5 -18 10 -18 6 0 10 -6 10 -14 0 -7
7 -19 15 -26 8 -7 15 -23 15 -36 0 -26 19 -73 37 -92 7 -7 13 -33 13 -56 0
-24 9 -63 19 -87 11 -24 22 -66 26 -94 9 -71 38 -189 48 -196 5 -4 13 -67 19
-140 5 -75 14 -136 20 -140 7 -5 9 -79 6 -243 -2 -130 -1 -236 3 -236 4 0 10
-19 12 -42 l4 -43 1 43 2 42 40 0 40 0 0 -40 0 -40 40 0 40 0 0 -240 0 -240
-31 0 -32 0 7 -52 c3 -29 9 -101 12 -160 4 -60 10 -108 14 -108 4 0 13 -54 20
-120 8 -77 17 -120 25 -120 7 0 16 -36 22 -95 7 -52 19 -109 27 -127 10 -20
16 -58 16 -105 0 -56 3 -73 14 -73 10 0 16 -22 21 -80 5 -57 11 -80 20 -80 9
0 15 -16 18 -43 l4 -42 1 43 2 42 40 0 40 0 0 40 0 40 -46 0 -47 0 7 61 c3 34
6 70 6 80 0 15 8 19 40 19 l40 0 0 40 0 40 40 0 40 0 0 40 0 40 -40 0 -40 0 0
40 0 40 40 0 40 0 0 360 0 360 40 0 40 0 0 160 0 160 40 0 40 0 0 120 0 120
40 0 40 0 0 120 0 120 40 0 40 0 0 160 0 160 40 0 40 0 0 80 0 80 40 0 40 0 0
160 0 159 78 3 77 3 3 157 3 158 39 0 40 0 0 160 0 160 40 0 40 0 0 160 0 160
160 0 159 0 3 -77 3 -78 158 -3 157 -3 0 -79 0 -80 -40 0 -40 0 0 -200 0 -200
-40 0 -40 0 0 -160 0 -160 -40 0 -40 0 0 -40 0 -40 -40 0 -40 0 0 -80 0 -80
-40 0 -40 0 0 -80 0 -80 -40 0 -40 0 0 -40 0 -40 -40 0 -40 0 0 -120 0 -120
-40 0 -40 0 0 -80 0 -80 -40 0 -40 0 0 -160 0 -160 -40 0 -40 0 0 -80 0 -80
40 0 40 0 0 -80 0 -80 40 0 40 0 0 -80 0 -80 40 0 40 0 0 -40 0 -40 40 0 40 0
0 -200 0 -200 40 0 40 0 0 -240 0 -240 40 0 40 0 0 -80 0 -80 240 0 240 0 0
80 0 80 -80 0 -80 0 0 80 0 80 -80 0 -80 0 0 80 0 80 -40 0 -40 0 0 80 0 80
40 0 40 0 0 160 0 160 40 0 40 0 0 80 0 80 40 0 40 0 0 80 0 80 40 0 40 0 0
120 0 120 40 0 40 0 0 120 0 120 40 0 40 0 0 120 0 120 40 0 40 0 0 80 0 80
40 0 40 0 0 80 0 80 40 0 40 0 0 80 0 80 40 0 40 0 0 120 0 120 40 0 40 0 0
80 0 80 40 0 40 0 0 40 0 40 40 0 40 0 0 40 0 40 40 0 40 0 0 80 0 80 40 0 40
0 0 80 0 80 -80 0 -80 0 0 -80 0 -80 -40 0 -40 0 0 40 0 40 -40 0 -40 0 0 80
0 80 80 0 80 0 0 40 0 40 -40 0 -40 0 0 80 0 80 -40 0 -40 0 0 120 0 120 -40
0 -40 0 0 160 c0 153 1 160 20 160 19 0 20 7 20 120 0 113 -1 120 -20 120 -17
0 -20 7 -20 40 l0 40 40 0 40 0 0 80 0 80 40 0 40 0 0 240 0 240 40 0 40 0 0
120 c0 113 1 120 20 120 19 0 20 7 20 120 0 113 1 120 20 120 17 0 20 7 20 40
0 33 3 40 20 40 19 0 20 7 20 160 0 153 1 160 20 160 19 0 20 7 20 120 0 113
-1 120 -20 120 -17 0 -20 7 -20 40 0 33 -3 40 -20 40 -17 0 -20 7 -20 40 l0
40 -40 0 -40 0 0 40 0 40 -40 0 -40 0 0 40 0 40 -40 0 -40 0 0 40 0 40 -40 0
-40 0 0 280 0 280 40 0 40 0 0 80 0 80 40 0 40 0 0 80 0 80 40 0 40 0 0 120 0
120 -40 0 -40 0 0 80 0 80 -40 0 -40 0 0 120 0 120 -40 0 -40 0 0 40 0 40 -40
0 -40 0 0 40 0 40 -40 0 -40 0 0 40 0 40 -80 0 -80 0 0 40 0 40 -160 0 -160 0
0 -40 0 -40 -80 0 -80 0 0 -40 0 -40 -40 0 -40 0 0 -40 0 -40 -40 0 -40 0 0
-40 0 -40 -80 0 -80 0 0 -40 0 -40 -40 0 -40 0 0 -80 0 -80 -40 0 -40 0 0 -80
0 -80 -40 0 -40 0 0 120 0 120 -40 0 -40 0 0 -80 0 -80 -40 0 -40 0 0 -120 0
-120 40 0 40 0 0 -80 0 -80 40 0 40 0 0 -80 0 -80 40 0 40 0 0 -40 0 -40 80 0
80 0 0 -80 0 -80 40 0 40 0 0 -240 0 -240 -40 0 -40 0 0 -80 0 -80 -40 0 -40
0 0 -40 0 -40 -40 0 -40 0 0 -40 0 -40 -40 0 -40 0 0 -80 0 -80 -80 0 -80 0 0
-40 0 -40 -40 0 -40 0 0 -40 0 -40 -80 0 -80 0 0 -40 0 -40 -80 0 -80 0 0 -40
0 -40 -200 0 -200 0 0 40 0 40 -80 0 -80 0 0 -40 0 -40 -80 0 -80 0 0 120 0
120 -120 0 -120 0 0 40 0 40 40 0 40 0 0 120 0 120 40 0 40 0 0 40 0 40 40 0
40 0 0 40 0 40 40 0 40 0 0 400 0 400 40 0 40 0 0 80 0 80 40 0 40 0 0 75 0
75 38 1 c20 1 40 1 43 1 3 -1 7 34 8 76 1 42 3 77 4 79 2 1 37 3 79 4 42 1 77
5 76 8 0 3 0 77 1 164 l1 157 35 0 c34 0 35 1 35 40 l0 40 40 0 40 0 0 80 0
80 40 0 40 0 0 240 0 240 -40 0 -40 0 0 40 0 40 -40 0 -40 0 0 40 0 40 -80 0
-80 0 0 40 0 40 -200 0 -200 0 0 -40z m1360 -1521 l0 -40 -37 3 c-36 3 -38 5
-41 41 l-3 37 40 0 41 0 0 -41z m80 -3479 l0 -240 -40 0 -40 0 0 -80 0 -80
-40 0 -39 0 -3 -157 -3 -158 -77 -3 -78 -3 0 -199 0 -200 -80 0 -80 0 0 80 0
80 -40 0 -40 0 0 200 0 200 -40 0 -40 0 0 80 0 80 40 0 40 0 0 160 0 160 40 0
40 0 0 80 0 80 40 0 40 0 0 40 0 40 80 0 80 0 0 40 0 40 120 0 120 0 0 -240z
m-1283 -2302 c-2 -13 -4 -3 -4 22 0 25 2 35 4 23 2 -13 2 -33 0 -45z m240
-1200 c-2 -13 -4 -3 -4 22 0 25 2 35 4 23 2 -13 2 -33 0 -45z"/>
<path d="M16240 9080 l0 -40 -40 0 -40 0 0 -40 0 -40 40 0 40 0 0 40 0 40 40
0 40 0 0 40 0 40 -40 0 -40 0 0 -40z"/>
<path d="M16400 9040 l0 -80 40 0 40 0 0 -40 0 -40 320 0 320 0 0 40 0 40
-237 2 -238 3 -3 78 -3 77 -119 0 -120 0 0 -80z"/>
<path d="M19998 8883 l-3 -78 -397 -3 -397 -2 -3 -78 -3 -77 -157 -3 -157 -3
-3 -77 -3 -77 -237 -3 -238 -2 0 -40 c0 -40 0 -40 -40 -40 l-40 0 0 -80 0 -80
-200 0 -200 0 0 -40 0 -40 -200 0 -200 0 0 -40 0 -40 -80 0 -80 0 0 -40 0 -40
-40 0 -40 0 0 -40 0 -40 280 0 280 0 0 -40 0 -40 320 0 320 0 0 -40 0 -40 280
0 280 0 0 -40 0 -40 200 0 200 0 0 -40 0 -40 160 0 160 0 0 -40 0 -40 40 0 40
0 0 -360 0 -360 -40 0 -40 0 0 -80 0 -80 -40 0 -40 0 0 -40 0 -40 -40 0 -40 0
0 -40 0 -40 -80 0 -80 0 0 -40 0 -40 -80 0 -80 0 0 -40 0 -40 -40 0 -40 0 0
-80 0 -80 -40 0 -40 0 0 -120 0 -120 40 0 40 0 0 -40 0 -40 40 0 40 0 0 -40
c0 -39 1 -40 35 -40 l35 0 1 -77 c1 -43 1 -81 0 -85 0 -5 72 -7 162 -5 l162 2
3 -37 3 -38 -40 0 -41 0 0 -120 0 -120 40 0 40 0 0 -40 0 -40 40 0 40 0 0 -40
0 -40 40 0 40 0 0 -80 0 -80 40 0 40 0 0 -80 0 -80 -40 0 -40 0 0 -80 0 -80
-80 0 -79 0 -3 -77 -3 -78 -557 -3 -557 -2 -3 -78 -3 -77 -77 -3 -78 -3 0 -39
0 -40 80 0 80 0 0 -40 0 -40 40 0 40 0 0 -40 0 -40 120 0 120 0 0 -40 0 -40
40 0 40 0 0 -40 0 -40 40 0 40 0 0 40 0 40 200 0 200 0 0 -40 0 -40 40 0 40 0
0 -80 0 -80 40 0 c40 0 40 0 40 -40 l0 -39 118 -3 117 -3 3 -237 2 -238 40 0
c40 0 40 0 40 -40 l0 -40 -40 0 -40 0 0 -80 0 -80 -40 0 -40 0 0 -40 0 -40
-40 0 -40 0 0 -80 0 -80 -40 0 -40 0 0 -40 0 -40 -40 0 -40 0 0 -40 0 -40 -40
0 -40 0 0 40 0 40 -40 0 -40 0 0 40 0 40 -40 0 -40 0 0 40 0 40 -160 0 -160 0
0 -40 0 -40 -360 0 -360 0 0 -160 0 -161 78 3 77 3 3 78 3 77 79 0 79 0 3 -77
3 -78 75 0 75 0 3 78 3 77 159 0 159 0 3 -77 3 -78 158 -3 157 -3 0 -39 c0
-40 0 -40 40 -40 l40 0 0 -40 0 -40 80 0 80 0 0 -40 0 -40 40 0 40 0 0 -40 0
-40 120 0 120 0 0 -40 0 -40 120 0 120 0 0 -40 0 -40 40 0 40 0 0 -40 0 -40
40 0 40 0 0 -40 0 -40 -40 0 -40 0 0 -40 0 -40 40 0 40 0 0 -40 0 -40 -40 0
-40 0 0 -40 0 -40 40 0 40 0 0 -40 0 -40 40 0 40 0 0 -240 0 -240 -40 0 -40 0
0 -40 0 -40 -40 0 -40 0 0 -80 0 -80 -40 0 -40 0 0 -40 0 -40 -120 0 -120 0 0
-40 0 -40 -160 0 -160 0 0 -40 0 -40 -400 0 -400 0 0 40 0 40 -40 0 -40 0 0
-40 0 -40 -40 0 -40 0 0 40 0 40 -40 0 -40 0 0 -40 0 -40 -80 0 -80 0 0 -40 0
-40 -80 0 -80 0 0 -40 0 -40 -80 0 -80 0 0 -40 0 -40 -40 0 -40 0 0 -40 0 -40
-40 0 -40 0 0 -80 0 -80 1280 0 1280 0 0 2920 0 2920 -40 0 -40 0 0 -40 0 -40
-40 0 -41 0 3 78 3 77 78 3 77 3 0 39 0 40 -120 0 -120 0 0 40 0 40 -80 0 -80
0 0 80 0 80 40 0 40 0 0 80 0 80 40 0 40 0 0 40 0 40 40 0 40 0 1 43 c0 23 0
77 -1 120 l-1 77 80 0 81 0 0 1120 0 1120 -80 0 -79 0 -3 -77 -3 -78 -75 0
-75 0 -3 78 -3 77 -79 0 -79 0 -3 -77z m402 -603 l0 -40 -80 0 -80 0 0 -40 0
-40 -42 0 -43 0 3 80 4 80 119 0 119 0 0 -40z m-320 -160 l0 -40 -80 0 -80 0
0 -80 0 -80 40 0 40 0 0 -122 0 -123 -160 3 -159 3 -3 77 -3 77 -77 3 -78 3 0
79 0 79 78 3 77 3 3 78 3 77 199 0 200 0 0 -40z m-85 -1960 l0 -75 -159 -2
-158 -2 -2 -78 -1 -78 -75 0 -75 0 -3 77 -3 77 78 3 78 3 3 78 3 78 157 -3
157 -3 0 -75z m-157 -442 l3 -38 -40 0 -41 0 0 -40 0 -40 -40 0 -40 0 0 73 c0
41 3 77 7 81 4 4 39 5 78 4 l70 -3 3 -37z m482 2 l0 -40 -40 0 -40 0 0 -40 0
-40 -40 0 -40 0 0 73 c0 41 3 77 7 80 3 4 39 7 80 7 l73 0 0 -40z m0 -520 l0
-160 -40 0 -40 0 0 -40 0 -40 -120 0 -120 0 0 120 0 120 40 0 40 0 0 40 0 40
40 0 40 0 0 40 0 40 80 0 80 0 0 -160z m-400 -1120 l0 -240 -120 0 -119 0 -3
158 -3 157 -77 3 -78 3 0 79 0 80 200 0 200 0 0 -240z"/>
<path d="M640 7920 l0 -80 240 0 240 0 0 80 0 80 -240 0 -240 0 0 -80z"/>
<path d="M8553 7720 c0 -25 2 -35 4 -22 2 12 2 32 0 45 -2 12 -4 2 -4 -23z"/>
<path d="M8008 7683 c7 -3 16 -2 19 1 4 3 -2 6 -13 5 -11 0 -14 -3 -6 -6z"/>
<path d="M7778 7623 c12 -2 32 -2 45 0 12 2 2 4 -23 4 -25 0 -35 -2 -22 -4z"/>
<path d="M8000 6920 l0 -40 40 0 40 0 0 40 0 40 -40 0 -40 0 0 -40z"/>
<path d="M8000 6760 l0 -40 40 0 40 0 0 40 0 40 -40 0 -40 0 0 -40z"/>
<path d="M7920 6600 c0 -22 5 -40 10 -40 6 0 10 -11 10 -25 0 -14 4 -25 9 -25
12 0 51 54 51 69 0 7 7 23 16 36 l16 25 -56 0 -56 0 0 -40z"/>
<path d="M7600 5824 c0 -9 -7 -22 -16 -29 -10 -7 -19 -32 -22 -63 -4 -48 -3
-52 17 -52 17 0 21 6 21 34 0 18 7 53 15 76 8 23 15 44 15 46 0 2 -7 4 -15 4
-8 0 -15 -7 -15 -16z"/>
<path d="M7523 5640 c0 -25 2 -35 4 -22 2 12 2 32 0 45 -2 12 -4 2 -4 -23z"/>
<path d="M7560 5560 c0 -22 5 -40 10 -40 6 0 10 -13 10 -29 0 -41 22 -131 32
-131 4 0 8 18 8 40 0 22 -4 40 -10 40 -6 0 -10 33 -10 80 0 73 -2 80 -20 80
-17 0 -20 -7 -20 -40z"/>
<path d="M19120 5560 l0 -40 40 0 40 0 0 40 0 40 -40 0 -40 0 0 -40z"/>
<path d="M19280 5400 l0 -40 40 0 40 0 0 40 0 40 -40 0 -40 0 0 -40z"/>
<path d="M19440 5160 l0 -120 -40 0 -40 0 0 -40 0 -40 -120 0 -120 0 0 -40 0
-40 -160 0 -160 0 0 -40 0 -40 360 0 360 0 0 240 0 240 -40 0 -40 0 0 -120z"/>
<path d="M7705 5180 c10 -11 19 -20 20 -20 2 0 5 9 8 20 4 16 0 20 -20 20 -25
0 -26 0 -8 -20z"/>
<path d="M7760 5110 c0 -5 5 -10 10 -10 6 0 10 5 10 10 0 6 -4 10 -10 10 -5 0
-10 -4 -10 -10z"/>
<path d="M7825 5050 c-3 -5 -1 -10 4 -10 6 0 11 5 11 10 0 6 -2 10 -4 10 -3 0
-8 -4 -11 -10z"/>
<path d="M5172 4628 c6 -18 28 -21 28 -4 0 9 -7 16 -16 16 -9 0 -14 -5 -12
-12z"/>
<path d="M2880 4470 c0 -5 18 -10 40 -10 22 0 40 5 40 10 0 6 -18 10 -40 10
-22 0 -40 -4 -40 -10z"/>
<path d="M5302 4388 c7 -19 38 -22 38 -4 0 10 -9 16 -21 16 -12 0 -19 -5 -17
-12z"/>
<path d="M5345 4347 c-4 -10 -5 -21 -1 -24 10 -10 18 4 13 24 -4 17 -4 17 -12
0z"/>
<path d="M5040 3990 c0 -5 18 -10 40 -10 22 0 40 5 40 10 0 6 -18 10 -40 10
-22 0 -40 -4 -40 -10z"/>
<path d="M5660 3935 c0 -8 5 -15 10 -15 6 0 10 -4 10 -10 0 -5 -20 -10 -44
-10 -28 0 -52 -7 -69 -20 -14 -11 -30 -20 -36 -20 -6 0 -11 -4 -11 -10 0 -5
-7 -10 -15 -10 -11 0 -15 -12 -15 -49 0 -31 5 -53 15 -61 8 -7 15 -21 15 -31
0 -17 9 -19 94 -19 86 0 94 2 99 21 3 11 15 23 26 26 12 3 21 12 21 19 0 8 7
14 16 14 14 0 15 10 9 78 -4 42 -11 79 -16 80 -5 2 -9 10 -9 18 0 10 -14 14
-50 14 -38 0 -50 -4 -50 -15z m3 -129 c26 -20 22 -46 -8 -46 -21 0 -25 5 -25
30 0 33 6 36 33 16z"/>
<path d="M1180 3720 l0 -40 50 0 50 0 0 40 0 40 -50 0 -50 0 0 -40z"/>
<path d="M1680 3670 c0 -5 18 -10 40 -10 22 0 40 5 40 10 0 6 -18 10 -40 10
-22 0 -40 -4 -40 -10z"/>
<path d="M7600 3610 c0 -5 5 -10 11 -10 5 0 7 5 4 10 -3 6 -8 10 -11 10 -2 0
-4 -4 -4 -10z"/>
<path d="M7480 3541 c-6 -12 -15 -21 -21 -21 -6 0 -32 -18 -58 -40 -26 -22
-58 -40 -70 -40 -23 0 -23 -1 -16 -80 7 -77 6 -80 -14 -80 -18 0 -21 -6 -21
-40 0 -33 -3 -40 -20 -40 -17 0 -20 -7 -20 -40 0 -33 -3 -40 -20 -40 -18 0
-20 -7 -20 -80 0 -64 -3 -80 -15 -80 -11 0 -15 -11 -15 -39 0 -22 -5 -41 -12
-44 -7 -2 -10 -7 -6 -11 10 -12 47 17 50 39 2 15 12 21 41 23 30 3 37 7 37 25
0 21 67 87 88 87 10 0 17 32 28 118 4 23 10 42 15 42 5 0 9 18 9 40 0 22 5 40
10 40 6 0 10 8 10 19 0 10 11 30 25 45 14 15 25 31 25 37 0 5 7 12 15 15 9 4
15 19 15 39 0 18 7 38 15 45 8 7 15 19 15 26 0 8 11 14 26 14 19 0 25 5 22 18
-2 13 -15 18 -55 20 -44 3 -53 0 -63 -17z"/>
<path d="M160 3440 l0 -81 78 3 77 3 3 78 3 77 -81 0 -80 0 0 -80z"/>
<path d="M0 3120 l0 -80 80 0 81 0 -3 78 -3 77 -77 3 -78 3 0 -81z"/>
<path d="M513 3170 c-18 -16 -33 -34 -33 -40 0 -5 -9 -10 -21 -10 -19 0 -21
-5 -17 -40 2 -28 0 -40 -9 -40 -8 0 -13 -14 -13 -40 0 -22 -4 -40 -10 -40 -5
0 -10 -18 -10 -40 0 -37 -2 -40 -27 -39 -18 1 -22 3 -10 6 15 4 17 14 15 76
l-3 72 -32 3 -33 3 0 -75 c0 -61 3 -76 15 -76 11 0 15 -12 15 -45 0 -25 -4
-45 -10 -45 -5 0 -10 -18 -10 -40 0 -37 -2 -40 -28 -40 -26 0 -27 -2 -24 -40
l4 -40 -56 0 -56 0 0 -80 0 -80 -40 0 -40 0 0 -120 0 -120 -30 0 c-28 0 -30
-2 -30 -40 0 -22 -4 -40 -10 -40 -6 0 -10 -113 -10 -320 0 -278 2 -320 15
-320 11 0 15 -11 15 -40 0 -29 -4 -40 -15 -40 -12 0 -15 -20 -15 -120 l0 -120
40 0 40 0 0 -40 c0 -36 -2 -40 -25 -40 l-25 0 0 -160 c0 -136 -2 -160 -15
-160 -11 0 -15 -11 -15 -40 0 -29 4 -40 15 -40 12 0 15 -16 15 -80 0 -64 3
-80 15 -80 11 0 15 -11 15 -40 0 -22 5 -40 10 -40 6 0 10 -18 10 -40 0 -29 4
-40 15 -40 12 0 15 -16 15 -80 0 -64 -3 -80 -15 -80 -11 0 -15 11 -15 40 0 36
-2 40 -25 40 -22 0 -25 -4 -25 -40 0 -29 4 -40 15 -40 11 0 15 -11 15 -40 0
-38 -2 -40 -30 -40 -28 0 -30 -2 -30 -40 0 -29 4 -40 15 -40 11 0 15 -11 15
-40 l0 -40 185 0 185 0 0 80 c0 64 -3 80 -15 80 -11 0 -15 11 -15 40 0 36 3
40 25 40 23 0 25 4 25 40 0 22 -4 40 -10 40 -6 0 -10 33 -10 80 0 64 -3 80
-15 80 -11 0 -15 11 -15 40 0 29 4 40 15 40 13 0 15 24 15 160 l0 160 -31 0
c-30 0 -31 1 -27 40 2 28 0 40 -9 40 -8 0 -13 14 -13 40 0 29 4 40 15 40 11 0
15 11 15 40 0 29 -4 40 -15 40 -11 0 -15 11 -15 40 0 22 -4 40 -10 40 -6 0
-10 33 -10 80 0 47 4 80 10 80 6 0 10 18 10 40 l0 40 40 0 40 0 0 -40 c0 -29
4 -40 15 -40 12 0 15 -16 15 -80 0 -79 0 -80 25 -80 23 0 25 -4 25 -40 0 -29
4 -40 15 -40 11 0 15 -11 15 -40 0 -29 4 -40 15 -40 13 0 15 -20 15 -120 l0
-120 25 0 c23 0 25 -4 25 -40 0 -36 3 -40 25 -40 23 0 25 -4 25 -40 0 -29 4
-40 15 -40 11 0 15 -11 15 -40 0 -30 4 -40 16 -40 13 0 15 -8 12 -40 -3 -36
-1 -40 19 -40 20 0 23 -5 23 -40 0 -29 4 -40 15 -40 12 0 15 -16 15 -80 l0
-80 30 0 c28 0 30 -2 30 -40 0 -36 3 -40 25 -40 23 0 25 -4 25 -40 0 -29 4
-40 15 -40 11 0 15 -11 15 -40 l0 -40 135 0 c113 0 133 2 129 14 -3 8 -17 22
-30 31 -20 13 -24 24 -24 65 0 47 -2 50 -25 50 -22 0 -25 4 -25 40 0 29 -4 40
-15 40 -11 0 -15 11 -15 40 0 29 -4 40 -15 40 -11 0 -15 11 -15 40 0 22 -4 40
-10 40 -5 0 -10 18 -10 40 0 29 -4 40 -15 40 -11 0 -15 11 -15 40 0 29 -4 40
-15 40 -11 0 -15 11 -15 40 0 29 -4 40 -15 40 -11 0 -15 11 -15 40 0 33 -4 40
-19 40 -16 0 -20 11 -26 82 -5 59 -14 96 -31 127 -13 24 -24 59 -24 77 0 24
-5 34 -15 34 -11 0 -15 11 -15 40 0 22 -4 40 -9 40 -5 0 -12 36 -16 80 -6 69
-10 80 -26 80 -15 0 -19 7 -19 40 0 29 -4 40 -15 40 -12 0 -15 13 -15 59 0 98
-12 181 -25 181 -9 0 -15 26 -20 80 -4 44 -11 80 -16 80 -5 0 -9 36 -9 80 0
47 -4 80 -10 80 -5 0 -10 18 -10 39 0 23 -5 41 -12 44 -10 3 -13 52 -13 200 0
163 -2 197 -14 197 -12 0 -13 43 -8 277 4 182 9 279 16 281 6 2 11 21 11 43 0
37 2 39 30 39 28 0 30 -2 30 -40 0 -22 5 -40 10 -40 6 0 10 -18 10 -40 0 -29
4 -40 15 -40 13 0 14 -31 8 -240 -6 -220 -5 -240 10 -240 14 0 17 -11 17 -59
0 -32 3 -86 6 -120 6 -56 9 -61 30 -61 21 0 24 -5 24 -40 0 -22 4 -40 9 -40 5
0 12 -36 16 -79 7 -77 8 -80 33 -83 23 -3 27 -8 30 -40 2 -26 8 -38 18 -38 13
0 14 -12 8 -80 l-7 -80 42 0 41 0 0 -80 0 -80 40 0 40 0 0 -40 c0 -33 3 -40
20 -40 18 0 20 7 20 80 0 47 -4 80 -10 80 -5 0 -10 18 -10 40 0 29 -4 40 -15
40 -11 0 -15 11 -15 40 0 30 -4 40 -16 40 -14 0 -15 10 -9 80 l7 80 -31 0
c-30 0 -31 2 -31 40 0 22 -4 40 -10 40 -5 0 -10 18 -10 40 0 29 -4 40 -15 40
-11 0 -15 11 -15 40 0 29 -4 40 -15 40 -11 0 -15 11 -15 40 0 36 -2 40 -25 40
-25 0 -25 1 -25 80 0 64 -3 80 -15 80 -11 0 -15 11 -15 40 0 22 -4 40 -10 40
-6 0 -10 47 -10 120 0 73 4 120 10 120 6 0 10 15 10 33 0 41 10 77 21 77 5 0
9 -7 9 -15 0 -8 7 -15 15 -15 11 0 15 -11 15 -40 0 -22 5 -40 10 -40 6 0 10
-18 10 -40 0 -29 4 -40 15 -40 11 0 15 -11 15 -40 0 -29 4 -40 15 -40 11 0 15
-11 15 -40 0 -22 3 -40 8 -40 7 0 25 -30 38 -62 4 -12 17 -18 35 -18 l29 0 0
-80 c0 -47 4 -80 10 -80 6 0 10 -18 10 -40 0 -36 3 -40 24 -40 23 0 24 -4 31
-80 4 -44 11 -80 16 -80 5 0 9 -18 9 -40 0 -29 4 -40 15 -40 11 0 15 -11 15
-40 0 -22 5 -40 10 -40 6 0 10 -18 10 -40 0 -29 4 -40 15 -40 11 0 15 -11 15
-40 0 -22 5 -40 10 -40 6 0 10 -15 10 -34 0 -19 11 -54 25 -77 16 -28 25 -60
25 -86 0 -36 3 -43 20 -43 17 0 20 -7 20 -40 0 -22 5 -40 10 -40 6 0 10 -18
10 -40 0 -29 4 -40 15 -40 11 0 15 -11 15 -40 0 -29 4 -40 15 -40 11 0 15 -11
15 -40 0 -22 5 -40 10 -40 6 0 10 -18 10 -40 0 -29 4 -40 15 -40 9 0 15 -9 15
-25 0 -14 4 -25 9 -25 14 0 71 -126 71 -159 0 -24 4 -31 20 -31 17 0 20 -7 20
-40 0 -33 3 -40 20 -40 17 0 20 -7 20 -40 0 -29 4 -40 15 -40 11 0 15 -11 15
-40 0 -22 5 -40 10 -40 6 0 10 -18 10 -40 0 -29 4 -40 15 -40 11 0 15 -11 15
-40 0 -29 4 -40 15 -40 17 0 49 -56 41 -75 -3 -8 2 -19 10 -25 8 -7 14 -23 14
-36 0 -13 5 -24 10 -24 6 0 10 -16 10 -35 0 -20 12 -55 30 -85 17 -28 30 -59
30 -68 1 -37 25 -52 84 -52 31 0 56 2 56 5 0 3 -9 24 -21 47 -13 26 -19 53
-17 74 3 30 1 34 -18 34 -20 0 -22 6 -29 80 -5 58 -11 80 -21 80 -10 0 -14 12
-14 40 0 22 -4 40 -10 40 -5 0 -10 18 -10 40 0 22 -4 40 -8 40 -5 0 -17 18
-27 40 -10 22 -24 40 -32 40 -9 0 -13 14 -13 44 0 47 -34 115 -57 116 -16 0
-18 66 -3 75 6 3 10 24 10 46 0 34 -3 39 -23 39 -30 0 -57 54 -57 115 0 33 -4
45 -15 45 -11 0 -15 11 -15 40 0 29 -4 40 -15 40 -11 0 -15 11 -15 40 0 29 -4
40 -15 40 -11 0 -15 11 -15 40 0 22 -4 40 -10 40 -5 0 -10 18 -10 40 0 29 -4
40 -15 40 -11 0 -15 11 -15 40 0 22 -4 40 -10 40 -5 0 -10 18 -10 40 0 29 -4
40 -15 40 -11 0 -15 11 -15 40 0 33 -4 40 -19 40 -16 0 -20 11 -26 80 -5 58
-11 80 -21 80 -10 0 -14 12 -14 40 0 26 -5 40 -13 40 -15 0 -37 74 -37 125 0
23 -5 35 -14 35 -10 0 -16 22 -21 80 -4 44 -10 80 -14 80 -4 0 -14 25 -21 55
-7 30 -19 60 -27 66 -8 7 -13 33 -13 65 0 41 -4 54 -15 54 -12 0 -15 16 -15
80 0 79 0 80 -25 80 -20 0 -25 5 -25 25 0 14 -4 25 -10 25 -5 0 -10 7 -10 15
0 10 -10 15 -30 15 -25 0 -30 4 -30 25 0 16 -6 25 -15 25 -8 0 -15 7 -15 15 0
8 -7 15 -15 15 -11 0 -15 11 -15 40 l0 40 -50 0 -50 0 0 40 c0 22 5 40 10 40
6 0 10 18 10 40 0 22 -4 40 -10 40 -5 0 -10 -18 -10 -40 l0 -40 -40 0 -40 0 0
80 0 80 -80 0 -80 0 0 40 0 40 -40 0 -40 0 0 40 c0 22 -3 40 -7 40 -5 0 -23
-14 -40 -30z m477 -515 c0 -8 9 -15 20 -15 17 0 20 -7 20 -40 0 -29 4 -40 15
-40 11 0 15 -11 15 -39 0 -22 5 -41 11 -43 9 -3 9 -10 0 -26 -16 -29 -31 -28
-31 3 0 16 -6 25 -15 25 -11 0 -15 11 -15 40 0 33 -3 40 -20 40 -16 0 -20 7
-20 33 0 17 -3 42 -6 55 -5 16 -2 22 10 22 9 0 16 -7 16 -15z"/>
<path d="M1440 3000 c0 -22 5 -40 10 -40 6 0 10 18 10 40 0 22 -4 40 -10 40
-5 0 -10 -18 -10 -40z"/>
<path d="M6083 3000 c0 -25 2 -35 4 -22 2 12 2 32 0 45 -2 12 -4 2 -4 -23z"/>
<path d="M6160 3030 c0 -5 5 -10 10 -10 6 0 10 5 10 10 0 6 -4 10 -10 10 -5 0
-10 -4 -10 -10z"/>
<path d="M14400 3000 l0 -40 40 0 40 0 0 -40 0 -40 40 0 40 0 0 40 0 40 40 0
40 0 0 40 0 40 -120 0 -120 0 0 -40z"/>
<path d="M6248 2987 c-38 -15 -35 -27 7 -27 28 0 35 4 35 20 0 22 -3 23 -42 7z"/>
<path d="M1500 2920 c0 -22 5 -40 10 -40 6 0 10 -18 10 -40 0 -22 5 -40 10
-40 6 0 10 33 10 80 0 73 -2 80 -20 80 -17 0 -20 -7 -20 -40z"/>
<path d="M6130 2951 c0 -5 7 -11 15 -15 8 -3 15 -12 15 -21 0 -9 9 -15 26 -15
31 0 28 23 -4 28 -12 2 -22 10 -22 18 0 8 -7 14 -15 14 -8 0 -15 -4 -15 -9z"/>
<path d="M7280 2892 c0 -7 -7 -12 -15 -12 -8 0 -15 -4 -15 -10 0 -5 4 -10 9
-10 13 0 35 29 27 37 -3 3 -6 1 -6 -5z"/>
<path d="M7121 2814 c0 -11 3 -14 6 -6 3 7 2 16 -1 19 -3 4 -6 -2 -5 -13z"/>
<path d="M2460 2760 c0 -22 5 -40 10 -40 6 0 10 18 10 40 0 22 -4 40 -10 40
-5 0 -10 -18 -10 -40z"/>
<path d="M0 2680 l0 -40 40 0 40 0 0 40 0 40 -40 0 -40 0 0 -40z"/>
<path d="M1580 2600 c0 -73 4 -120 10 -120 6 0 10 18 10 40 0 22 5 40 10 40 6
0 10 33 10 80 0 73 -2 80 -20 80 -19 0 -20 -7 -20 -120z"/>
<path d="M2560 2600 c0 -22 5 -40 10 -40 6 0 10 18 10 40 0 22 -4 40 -10 40
-5 0 -10 -18 -10 -40z"/>
<path d="M14558 2483 l-3 -78 -37 -3 -38 -3 0 40 0 41 -60 0 -60 0 0 -120 c0
-113 -1 -120 -20 -120 -18 0 -20 -7 -20 -80 0 -73 -2 -80 -20 -80 -19 0 -20
-7 -20 -120 0 -113 -1 -120 -20 -120 -17 0 -20 -7 -20 -40 0 -33 -3 -40 -20
-40 -17 0 -20 -7 -20 -40 0 -33 -3 -40 -20 -40 -17 0 -20 -7 -20 -40 0 -33 -3
-40 -20 -40 -18 0 -20 -7 -20 -80 l0 -80 -40 0 -40 0 0 -80 c0 -73 -2 -80 -20
-80 -17 0 -20 -7 -20 -40 0 -33 -3 -40 -20 -40 -18 0 -20 -7 -20 -80 0 -73 -2
-80 -20 -80 -17 0 -20 -7 -20 -40 0 -33 -3 -40 -20 -40 -18 0 -20 -7 -20 -80
0 -73 -2 -80 -20 -80 -17 0 -20 -7 -20 -40 0 -33 -3 -40 -20 -40 -17 0 -20 -7
-20 -40 0 -33 -3 -40 -20 -40 -18 0 -20 -7 -20 -80 l0 -80 -60 0 -60 0 0 -80
c0 -73 -2 -80 -20 -80 -19 0 -20 -7 -20 -160 l0 -160 440 0 440 0 0 799 0 800
38 3 37 3 3 278 2 277 40 0 40 0 0 200 0 200 -40 0 -39 0 -3 -77z"/>
<path d="M2640 2400 l0 -80 -56 0 -56 0 7 -77 c4 -43 11 -79 16 -81 5 -2 9
-21 9 -43 0 -39 0 -39 40 -39 l39 0 -1 -400 c-1 -257 -5 -400 -11 -400 -6 0
-8 -43 -4 -120 4 -73 2 -120 -3 -120 -6 0 -10 -95 -10 -240 0 -153 4 -240 10
-240 6 0 10 -18 10 -40 0 -22 -4 -40 -9 -40 -10 0 -2 -313 8 -318 10 -4 0 -82
-10 -82 -5 0 -9 -18 -9 -40 l0 -40 187 0 186 0 -6 120 c-5 101 -4 120 8 120
13 0 15 31 15 196 0 187 1 196 20 201 19 5 20 14 20 124 0 99 -3 119 -15 119
-10 0 -15 10 -15 28 0 15 -3 51 -6 80 -6 48 -5 52 15 52 20 0 21 5 21 80 l0
80 -36 0 -35 0 3 120 c2 66 0 120 -4 120 -5 0 -8 18 -8 40 0 38 -1 40 -31 40
l-32 0 6 60 c4 33 4 87 0 119 -5 55 -8 60 -32 63 -22 3 -26 8 -29 41 -2 25 -8
37 -19 37 -12 0 -14 9 -11 40 2 22 0 40 -4 40 -5 0 -8 54 -8 120 l0 120 -40 0
-40 0 0 40 0 40 -41 0 -42 0 7 58 c18 161 19 182 7 182 -7 0 -11 -27 -11 -80z
m110 -760 c0 -29 -4 -40 -15 -40 -11 0 -15 11 -15 40 0 29 4 40 15 40 11 0 15
-11 15 -40z"/>
<path d="M1657 2340 c-8 -68 2 -180 14 -180 5 0 9 -18 9 -40 0 -29 4 -40 15
-40 11 0 15 -11 15 -40 0 -29 4 -40 15 -40 12 0 15 16 15 80 0 73 -2 80 -20
80 -18 0 -20 7 -20 80 0 47 -4 80 -10 80 -5 0 -10 18 -10 40 0 61 -16 47 -23
-20z"/>
<path d="M1977 2028 c-3 -37 -1 -58 9 -69 8 -9 14 -37 14 -67 0 -40 4 -52 15
-52 13 0 15 -24 15 -160 0 -136 -2 -160 -15 -160 -8 0 -15 -7 -15 -15 0 -8 -7
-15 -15 -15 -8 0 -15 7 -15 15 0 9 -9 15 -23 15 -21 0 -36 18 -53 63 -3 9 -12
17 -19 17 -9 0 -10 -9 -2 -40 8 -28 17 -40 29 -40 13 0 18 -8 18 -25 0 -16 6
-25 15 -25 8 0 15 -7 15 -15 0 -8 3 -15 8 -15 7 0 25 -30 38 -62 3 -10 13 -18
20 -18 10 0 14 -13 14 -40 0 -23 7 -55 17 -73 10 -19 15 -51 14 -79 -2 -38 1
-48 14 -48 11 0 15 -11 15 -40 0 -22 5 -40 10 -40 6 0 10 -18 10 -40 0 -22 4
-40 9 -40 5 0 11 -18 15 -40 3 -22 11 -40 16 -40 6 0 10 -18 10 -40 0 -22 4
-40 9 -40 5 0 12 -18 16 -40 4 -22 11 -40 16 -40 5 0 9 -18 9 -40 0 -22 5 -40
10 -40 6 0 10 -18 10 -40 0 -38 -2 -40 -30 -40 -28 0 -30 2 -30 40 0 28 -4 40
-14 40 -16 0 -76 56 -76 71 0 5 -4 9 -10 9 -5 0 -10 -18 -10 -40 0 -22 5 -40
10 -40 6 0 10 -18 10 -40 0 -38 2 -40 30 -40 28 0 30 -2 30 -40 0 -29 4 -40
15 -40 11 0 15 -11 15 -35 0 -20 9 -53 20 -75 13 -26 20 -59 20 -98 0 -41 5
-64 15 -72 8 -7 15 -19 15 -26 0 -8 5 -14 10 -14 6 0 10 -6 10 -13 0 -8 9 -44
21 -80 l21 -67 74 0 74 0 0 79 c0 44 -4 81 -10 83 -5 1 -11 38 -12 80 -3 65
-6 78 -20 78 -13 0 -17 15 -22 87 -4 49 -11 137 -18 196 -6 59 -8 110 -5 114
4 3 -1 20 -10 37 -10 18 -15 50 -14 79 1 26 -2 47 -7 47 -5 0 -15 54 -22 120
-7 66 -17 120 -21 120 -5 0 -9 22 -9 49 0 68 -10 111 -26 111 -10 0 -14 13
-14 40 0 22 -4 40 -10 40 -5 0 -10 18 -10 40 0 22 -4 40 -9 40 -5 0 -12 36
-16 80 -5 58 -11 80 -21 80 -11 0 -14 18 -14 80 0 78 -1 80 -24 80 -23 0 -24
4 -31 80 -7 76 -8 80 -31 80 -21 0 -24 4 -24 40 0 22 -3 40 -8 40 -7 0 -25 30
-38 63 -12 31 -21 18 -27 -35z"/>
<path d="M1753 2005 c-7 -8 -13 -30 -13 -50 0 -28 4 -35 20 -35 17 0 20 7 20
50 0 52 -6 59 -27 35z"/>
<path d="M1665 1910 c3 -5 8 -10 11 -10 2 0 4 5 4 10 0 6 -5 10 -11 10 -5 0
-7 -4 -4 -10z"/>
<path d="M1820 1800 c0 -22 5 -40 10 -40 6 0 10 18 10 40 0 22 -4 40 -10 40
-5 0 -10 -18 -10 -40z"/>
<path d="M6633 1680 c0 -47 2 -66 4 -42 2 23 2 61 0 85 -2 23 -4 4 -4 -43z"/>
<path d="M1810 1666 c0 -7 7 -19 15 -26 13 -11 15 -8 15 14 0 16 -5 26 -15 26
-8 0 -15 -6 -15 -14z"/>
<path d="M10754 1459 c3 -34 6 -70 6 -80 0 -12 7 -19 20 -19 22 0 23 6 14 99
-6 52 -10 61 -27 61 -18 0 -19 -5 -13 -61z"/>
<path d="M6633 1400 c0 -25 2 -35 4 -22 2 12 2 32 0 45 -2 12 -4 2 -4 -23z"/>
<path d="M12960 1280 l0 -160 40 0 40 0 0 80 0 80 40 0 40 0 0 80 0 80 -80 0
-80 0 0 -160z"/>
<path d="M1040 1320 l0 -40 55 0 55 0 0 40 0 40 -55 0 -55 0 0 -40z"/>
<path d="M1100 1160 c0 -22 5 -40 10 -40 6 0 10 18 10 40 0 22 -4 40 -10 40
-5 0 -10 -18 -10 -40z"/>
<path d="M1200 1080 c0 -22 -4 -40 -10 -40 -5 0 -10 -18 -10 -40 0 -22 5 -40
10 -40 6 0 10 18 10 40 0 22 5 40 10 40 6 0 10 18 10 40 0 22 -4 40 -10 40 -5
0 -10 -18 -10 -40z"/>
<path d="M1280 800 l0 -80 30 0 c28 0 30 -2 30 -40 0 -22 5 -40 10 -40 6 0 10
33 10 80 0 79 0 80 -25 80 -22 0 -25 4 -25 40 0 29 -4 40 -15 40 -12 0 -15
-16 -15 -80z"/>
<path d="M10400 640 c0 -47 4 -80 10 -80 6 0 10 33 10 80 0 47 -4 80 -10 80
-6 0 -10 -33 -10 -80z"/>
<path d="M1440 600 c0 -29 4 -40 15 -40 11 0 15 11 15 40 0 29 -4 40 -15 40
-11 0 -15 -11 -15 -40z"/>
<path d="M10380 360 c0 -33 3 -40 20 -40 17 0 20 7 20 40 0 33 -3 40 -20 40
-17 0 -20 -7 -20 -40z"/>
<path d="M3360 40 c0 -29 4 -40 15 -40 11 0 15 11 15 40 0 29 -4 40 -15 40
-11 0 -15 -11 -15 -40z"/>
</g>
</svg>
