<?xml version="1.0" standalone="no"?>
<!DOCTYPE svg PUBLIC "-//W3C//DTD SVG 20010904//EN"
 "http://www.w3.org/TR/2001/REC-SVG-20010904/DTD/svg10.dtd">
<svg version="1.0" xmlns="http://www.w3.org/2000/svg"
 width="600.000000pt" height="480.000000pt" viewBox="0 0 600.000000 480.000000"
 preserveAspectRatio="xMidYMid meet">

<g transform="translate(0.000000,480.000000) scale(0.100000,-0.100000)"
fill="#000000" stroke="none">
<path d="M2434 4110 c-32 -13 -46 -61 -28 -96 9 -16 21 -35 29 -43 12 -12 5
-24 -47 -80 -127 -138 -216 -300 -260 -478 -32 -126 -32 -360 0 -486 43 -172
131 -336 251 -469 114 -126 298 -238 486 -295 85 -26 101 -27 280 -27 179 0
195 2 280 28 87 26 221 86 278 123 l27 18 35 -38 c27 -29 41 -37 69 -37 40 0
66 28 66 70 0 33 -183 268 -215 276 -23 6 -64 -10 -77 -30 -14 -20 -8 -63 12
-89 11 -14 20 -30 20 -36 0 -15 -192 -106 -265 -126 -91 -25 -312 -31 -407
-12 -335 70 -592 307 -695 644 -24 79 -27 103 -27 243 0 140 3 164 27 243 15
48 45 123 66 166 37 73 132 203 178 244 20 17 21 17 47 -18 22 -28 34 -35 62
-35 40 0 74 29 74 64 0 29 -174 260 -208 275 -26 13 -30 13 -58 1z"/>
<path d="M3170 3903 c0 -15 11 -51 24 -80 27 -58 67 -89 159 -124 107 -41 147
-117 108 -205 -60 -135 -22 -206 125 -234 126 -24 162 -67 173 -206 9 -108 22
-146 57 -169 23 -15 24 -14 38 18 46 110 59 299 30 430 -8 40 -37 117 -64 172
-112 233 -331 387 -597 420 l-53 7 0 -29z"/>
<path d="M2934 3647 c-17 -7 -42 -20 -55 -29 -24 -17 -23 -17 34 -17 169 -2
278 -176 204 -324 l-24 -46 26 14 c128 66 150 267 40 359 -19 16 -48 35 -66
43 -39 16 -116 16 -159 0z"/>
<path d="M3330 3151 c-36 -8 -95 -35 -103 -49 -3 -4 21 -8 53 -8 62 -1 123
-29 167 -76 52 -55 68 -174 33 -243 -11 -21 -18 -41 -15 -43 8 -9 73 47 94 81
35 57 44 122 25 183 -34 110 -144 177 -254 155z"/>
<path d="M2943 2054 c-12 -19 -18 -54 -21 -120 l-4 -93 -154 -3 c-165 -3 -176
-7 -189 -58 -4 -18 0 -34 15 -53 l21 -27 383 0 c414 0 400 -2 419 53 9 25 -18
73 -45 81 -13 3 -87 6 -165 6 l-143 0 0 98 c0 116 -12 142 -65 142 -26 0 -39
-6 -52 -26z"/>
<path d="M1173 1452 c-6 -4 -13 -34 -15 -67 l-3 -60 -40 -5 c-50 -7 -65 -16
-65 -40 0 -24 15 -33 65 -40 l40 -5 0 -65 0 -65 -44 -5 c-75 -9 -87 -70 -13
-70 51 0 62 -14 62 -76 0 -55 15 -79 44 -68 18 7 24 28 28 94 3 41 5 45 32 48
15 2 39 1 52 -2 22 -6 24 -12 24 -65 0 -67 15 -90 49 -72 16 9 21 23 23 74 l3
62 42 3 c82 6 75 72 -8 72 l-39 0 0 70 0 70 39 0 c37 0 71 19 71 40 0 21 -34
40 -70 40 l-39 0 -3 61 c-2 45 -8 65 -20 72 -30 19 -48 -8 -48 -74 l0 -59 -55
0 -55 0 0 51 c0 74 -21 104 -57 81z m167 -282 l0 -70 -55 0 -55 0 0 70 0 70
55 0 55 0 0 -70z"/>
<path d="M1670 1442 c-43 -21 -80 -75 -80 -116 1 -51 33 -108 96 -165 32 -30
69 -68 82 -84 43 -60 17 -122 -49 -115 -33 3 -37 7 -69 77 -9 21 -23 23 -44 8
-15 -11 -17 -21 -12 -50 21 -114 158 -150 235 -61 25 28 31 44 31 81 0 62 -32
113 -113 185 -73 65 -96 106 -79 144 7 13 23 30 37 36 22 10 30 8 52 -9 15
-11 31 -34 36 -52 7 -28 12 -32 35 -29 22 2 28 9 30 36 5 46 -29 96 -78 116
-51 20 -67 20 -110 -2z"/>
<path d="M2036 1450 c-35 -11 -63 -36 -85 -75 -23 -43 -24 -470 -1 -485 19
-12 21 -12 40 0 11 7 16 35 20 107 l5 98 70 0 70 0 3 -80 c3 -99 7 -121 28
-129 40 -15 44 6 44 241 0 245 -3 263 -58 302 -34 24 -96 34 -136 21z m83 -75
c37 -19 41 -31 41 -126 l0 -79 -75 0 -75 0 0 81 c0 87 9 115 43 129 31 12 34
12 66 -5z"/>
<path d="M2303 1453 c-20 -7 -16 -40 30 -291 48 -259 56 -276 122 -276 68 0
78 21 125 279 22 127 43 237 46 246 3 9 -3 24 -11 33 -41 41 -53 15 -96 -215
-50 -271 -47 -259 -64 -259 -8 0 -15 3 -15 6 0 22 -82 443 -90 462 -9 21 -22
26 -47 15z"/>
<path d="M2702 1448 c-9 -9 -12 -85 -12 -280 0 -254 1 -268 19 -278 11 -5 65
-10 120 -10 77 0 103 4 115 16 9 8 16 19 16 24 0 5 -7 16 -16 24 -12 12 -36
16 -100 16 l-85 0 3 88 3 87 72 3 c62 2 73 6 78 23 12 36 -12 49 -87 49 l-69
0 3 88 3 87 89 5 c68 4 91 9 99 22 8 12 7 21 -2 32 -11 13 -35 16 -125 16 -74
0 -116 -4 -124 -12z"/>
<path d="M3222 1448 c-9 -9 -12 -85 -12 -280 0 -254 1 -268 19 -278 11 -5 63
-10 116 -10 103 0 135 9 135 40 0 30 -31 40 -119 40 l-81 0 0 84 c0 96 0 96
90 96 50 0 60 3 65 20 11 35 -11 49 -83 52 l-67 3 0 85 0 85 89 5 c68 4 91 9
99 22 8 12 7 21 -2 32 -11 13 -35 16 -125 16 -74 0 -116 -4 -124 -12z"/>
<path d="M3648 1445 c-17 -10 -31 -29 -38 -53 -9 -32 -90 -469 -90 -486 0 -3
9 -10 21 -16 30 -17 46 2 59 68 22 114 12 103 93 100 l71 -3 16 -78 c17 -87
38 -113 68 -83 14 14 12 37 -31 268 -34 183 -51 257 -64 270 -25 25 -73 31
-105 13z m76 -167 c27 -154 29 -143 -31 -146 -62 -4 -62 -6 -37 127 19 107 20
111 38 111 9 0 18 -27 30 -92z"/>
<path d="M3936 1444 c-14 -13 -16 -52 -16 -274 0 -222 2 -261 16 -274 18 -18
23 -19 44 -6 11 7 16 37 20 127 l5 118 42 -1 c65 -1 78 -19 93 -130 15 -112
38 -148 70 -109 11 13 11 35 1 113 -6 53 -18 109 -26 125 -13 27 -12 31 13 70
21 32 27 52 27 96 0 105 -69 160 -202 161 -52 0 -76 -4 -87 -16z m173 -68 c28
-15 51 -53 51 -86 0 -10 -12 -32 -26 -49 -23 -28 -32 -31 -80 -31 l-54 0 0 83
c0 46 3 87 7 90 11 12 73 7 102 -7z"/>
<path d="M4289 1444 c-23 -27 1 -48 62 -54 l54 -5 3 -241 c3 -260 6 -278 51
-254 20 10 21 20 23 253 l3 242 50 3 c57 3 81 23 64 53 -9 17 -23 19 -153 19
-119 0 -146 -3 -157 -16z"/>
<path d="M4672 1448 c-9 -9 -12 -85 -12 -280 0 -250 1 -268 19 -277 13 -7 23
-7 34 2 13 10 17 35 19 127 l3 115 70 0 70 0 3 -115 c2 -92 6 -117 19 -127 11
-9 21 -9 34 -2 18 9 19 27 19 278 0 233 -2 270 -16 282 -11 9 -20 10 -32 2
-14 -8 -17 -31 -20 -127 l-3 -117 -72 3 -72 3 -3 115 c-3 111 -8 129 -37 130
-6 0 -16 -5 -23 -12z"/>
</g>
</svg>
