<?xml version="1.0" standalone="no"?>
<!DOCTYPE svg PUBLIC "-//W3C//DTD SVG 20010904//EN"
 "http://www.w3.org/TR/2001/REC-SVG-20010904/DTD/svg10.dtd">
<svg version="1.0" xmlns="http://www.w3.org/2000/svg"
 width="1080.000000pt" height="1080.000000pt" viewBox="0 0 1080.000000 1080.000000"
 preserveAspectRatio="xMidYMid meet">

<g transform="translate(0.000000,1080.000000) scale(0.100000,-0.100000)"
fill="#000000" stroke="none">
<path d="M3900 10785 c0 -8 -7 -15 -15 -15 -8 0 -15 -4 -15 -10 0 -5 -6 -10
-13 -10 -7 0 -17 -10 -22 -22 -7 -16 -19 -23 -39 -23 -16 -1 -31 -6 -34 -13
-2 -7 -8 -10 -13 -6 -5 3 -9 0 -9 -5 0 -14 6 -14 30 1 23 15 28 11 36 -30 6
-28 1 -37 -37 -75 -49 -48 -71 -60 -118 -65 -11 -2 -11 -5 -1 -17 11 -13 9
-19 -8 -35 -12 -11 -25 -20 -30 -20 -5 0 -14 -11 -20 -25 -6 -14 -20 -25 -29
-25 -28 0 -83 -52 -83 -78 0 -27 -38 -82 -57 -82 -7 0 -18 -11 -23 -25 -5 -14
-17 -28 -26 -32 -13 -5 -13 -7 -2 -14 10 -7 11 -12 1 -29 -7 -11 -13 -29 -13
-40 0 -11 -7 -32 -16 -46 -9 -13 -14 -27 -11 -30 6 -6 46 15 62 32 16 19 54
24 57 8 3 -12 7 -12 30 0 15 8 36 12 48 9 11 -3 20 0 20 6 0 6 5 11 10 11 11
0 14 -43 4 -53 -4 -3 -14 -2 -23 2 -12 7 -19 3 -28 -15 -9 -19 -8 -24 2 -24
16 0 27 -78 14 -101 -5 -10 -9 -29 -9 -43 0 -14 -9 -41 -20 -61 -11 -20 -20
-43 -20 -52 0 -17 -11 -31 -69 -88 -22 -22 -31 -39 -27 -50 4 -12 -4 -21 -34
-33 -30 -13 -41 -24 -45 -47 -13 -63 -55 -133 -55 -90 0 24 -14 18 -39 -16
-22 -30 -29 -47 -30 -80 -1 -9 -15 -34 -32 -55 -35 -44 -66 -109 -76 -156 -5
-26 -4 -30 10 -25 13 5 17 1 17 -18 0 -14 -4 -25 -10 -25 -5 0 -10 -9 -10 -20
0 -28 29 -26 62 5 15 14 32 25 38 25 5 0 10 7 10 15 0 17 9 19 28 6 10 -6 10
-11 -3 -21 -23 -19 -57 -88 -46 -94 5 -3 14 1 21 9 7 8 19 15 26 15 19 0 18
-39 -1 -46 -10 -4 -13 -14 -9 -31 4 -16 1 -28 -9 -36 -9 -7 -19 -25 -23 -42
-5 -25 -4 -28 7 -17 22 20 32 14 26 -18 -8 -37 10 -40 23 -4 12 31 90 110 90
92 0 -7 6 1 14 17 7 17 18 41 25 55 6 14 31 52 55 85 25 33 45 64 45 68 1 4
20 33 44 63 48 63 62 82 135 182 93 128 115 152 141 152 11 0 21 9 25 23 6 27
69 87 109 105 15 6 40 12 54 12 15 0 34 7 44 15 15 15 17 14 23 -10 7 -27 44
-70 61 -70 6 0 11 -9 13 -21 2 -12 15 -27 29 -35 14 -7 29 -24 34 -37 6 -16
15 -22 24 -18 10 3 15 -1 15 -12 0 -10 6 -24 12 -30 10 -10 8 -14 -9 -18 -26
-7 -35 -47 -16 -74 9 -13 11 -25 5 -37 -9 -17 1 -63 13 -63 3 0 10 10 15 23 8
20 9 20 9 -8 1 -28 4 -30 39 -31 27 0 46 -8 70 -31 17 -17 32 -36 32 -42 0 -6
5 -11 10 -11 6 0 10 7 10 15 0 19 9 19 32 -2 15 -14 24 -14 57 -4 39 11 71 7
71 -11 0 -19 45 -3 55 20 5 12 15 22 22 22 6 0 18 3 27 6 10 4 18 -1 22 -12 4
-11 14 -27 22 -36 11 -14 12 -18 2 -18 -10 0 -10 -3 0 -15 9 -11 17 -12 30 -5
23 12 47 4 53 -18 3 -12 5 -10 6 6 0 12 9 26 19 29 9 4 20 11 25 17 4 7 10 8
15 1 14 -19 60 -37 79 -31 32 10 44 -14 31 -58 -9 -28 -16 -36 -32 -35 -12 1
-34 -4 -49 -11 -27 -13 -30 -12 -48 10 -18 23 -20 24 -32 8 -11 -14 -36 -20
-110 -27 -18 -2 6 -21 26 -21 16 0 18 -3 9 -9 -11 -6 -10 -10 5 -15 10 -3 29
-13 42 -21 23 -12 26 -12 39 6 16 23 50 25 58 4 4 -8 10 -12 16 -9 5 3 7 12 5
18 -3 7 4 18 16 26 15 9 22 10 25 1 2 -6 11 -11 21 -11 9 0 22 -5 28 -11 8 -8
13 -8 17 0 4 6 15 11 25 11 9 0 25 6 35 13 17 13 17 15 2 45 -9 17 -26 40 -37
51 -23 21 -8 41 16 21 18 -15 65 -5 65 14 0 21 47 7 53 -16 6 -23 29 -15 25 8
-2 12 9 16 45 19 48 3 48 3 28 -16 -12 -11 -21 -23 -21 -28 0 -13 -48 -31 -65
-25 -8 4 -15 1 -15 -5 0 -6 -7 -11 -15 -11 -8 0 -15 4 -15 10 0 5 -8 6 -17 3
-11 -4 -12 -8 -5 -11 7 -2 12 -14 12 -27 0 -35 33 -50 63 -30 14 8 31 13 39
10 9 -4 18 1 21 9 9 23 34 20 40 -5 3 -11 15 -23 27 -26 l21 -6 -21 -19 c-27
-25 -25 -38 6 -38 17 0 28 6 31 20 4 16 9 18 24 10 14 -8 20 -6 29 10 6 11 17
20 25 20 24 0 65 22 65 35 0 7 6 13 13 12 40 -1 57 5 57 19 0 12 -6 15 -24 10
-25 -6 -51 14 -28 22 7 2 12 12 12 22 0 12 8 20 23 22 15 2 21 9 19 21 -2 11
6 21 22 26 13 6 27 15 31 20 10 17 20 13 61 -24 41 -37 57 -44 48 -20 -4 8 -1
22 6 31 10 11 10 18 2 26 -16 16 4 48 29 48 16 0 20 5 17 28 -2 15 -9 27 -17
27 -8 0 -16 6 -18 13 -3 6 3 12 12 12 11 0 15 5 12 15 -8 20 3 25 60 27 45 2
48 4 48 28 0 21 4 25 31 25 16 0 38 8 48 18 9 9 13 17 7 17 -17 0 -13 14 9 38
12 13 33 22 50 22 16 0 32 5 35 11 4 6 13 8 21 5 10 -4 14 2 14 19 0 29 25 33
56 10 22 -17 85 -20 101 -4 8 8 23 6 54 -4 24 -8 65 -18 90 -21 25 -3 64 -15
87 -26 22 -11 46 -20 52 -20 5 0 10 -8 10 -18 0 -10 17 -30 37 -43 41 -27 101
-104 102 -131 1 -10 6 -18 11 -18 6 0 22 -24 36 -52 13 -29 38 -74 54 -100 16
-26 34 -74 41 -107 6 -34 15 -61 19 -61 7 0 6 -21 -7 -123 -5 -38 -8 -80 -7
-95 2 -14 -2 -32 -9 -40 -6 -8 -12 -27 -12 -42 0 -15 -7 -35 -15 -45 -8 -9
-13 -32 -12 -52 2 -19 -4 -48 -13 -65 -12 -25 -12 -34 -3 -46 16 -19 38 -81
38 -109 0 -13 3 -23 8 -23 8 0 47 -99 56 -145 4 -16 13 -43 20 -60 13 -28 26
-82 47 -200 5 -27 9 -113 9 -190 -2 -496 0 -597 11 -745 19 -255 24 -454 13
-523 -5 -38 -3 -51 11 -67 14 -15 15 -23 6 -34 -8 -10 -9 -16 -1 -21 6 -3 10
-43 10 -92 0 -74 -4 -92 -27 -134 -18 -34 -29 -46 -35 -37 -6 10 -8 8 -8 -4 0
-12 -5 -15 -16 -11 -13 5 -15 2 -9 -17 5 -17 4 -21 -5 -15 -7 5 -11 4 -8 -1 6
-9 0 -63 -22 -218 -17 -121 -98 -417 -140 -511 -4 -11 -20 -46 -34 -77 -14
-31 -26 -61 -26 -67 0 -6 13 -17 29 -26 39 -20 61 -52 61 -90 -1 -25 -2 -27
-11 -12 -15 26 -46 21 -53 -9 -6 -21 -9 -24 -21 -14 -8 7 -15 25 -15 41 0 31
-16 47 -32 31 -6 -6 -16 -51 -24 -101 -14 -97 -18 -103 -104 -187 -51 -51
-116 -92 -127 -81 -2 3 3 19 12 36 14 28 14 32 0 37 -8 4 -23 0 -32 -7 -13
-11 -17 -11 -20 -1 -6 17 -23 5 -23 -16 0 -25 -57 -55 -80 -42 -26 14 -40 12
-40 -4 0 -8 -9 -21 -20 -29 -11 -8 -18 -16 -16 -18 2 -2 -23 -5 -56 -6 -57 -2
-88 -14 -88 -35 0 -15 -29 -40 -39 -34 -14 9 -41 -4 -41 -20 0 -8 -9 -14 -19
-14 -11 0 -26 -7 -35 -15 -8 -9 -38 -16 -72 -18 -32 -2 -60 -9 -62 -15 -2 -7
-13 -12 -23 -12 -11 0 -34 -7 -50 -16 -17 -8 -37 -13 -45 -10 -8 3 -14 1 -14
-4 0 -4 -15 -12 -32 -15 -18 -4 -39 -12 -47 -19 -11 -8 -15 -8 -18 2 -6 15
-35 16 -51 0 -7 -7 -12 -8 -12 -2 0 6 -9 10 -20 10 -26 -1 -28 17 -2 29 11 6
27 17 36 24 21 17 21 45 1 37 -22 -8 -19 20 5 44 11 11 17 25 15 32 -7 19 10
41 32 43 10 0 30 9 43 18 30 21 50 22 50 2 0 -21 18 -19 23 3 14 48 17 92 7
92 -5 0 -10 7 -10 15 0 8 5 15 10 15 6 0 10 -7 10 -15 0 -20 17 -19 28 1 8 14
12 14 30 3 29 -18 38 -5 21 28 -11 20 -11 27 -1 30 6 3 12 13 12 24 0 10 7 19
15 19 8 0 15 5 15 11 0 6 -8 9 -19 6 -14 -3 -17 0 -14 14 3 11 11 19 18 19 7
0 23 9 37 19 13 11 32 19 42 18 11 -1 20 3 23 8 2 6 -15 10 -42 10 -28 0 -45
-5 -45 -12 0 -6 -15 -13 -32 -15 -26 -2 -34 -8 -38 -29 -5 -25 -8 -26 -45 -23
-22 3 -50 6 -62 7 -12 1 -25 5 -29 9 -4 5 -14 8 -23 8 -12 0 -12 -3 -3 -12 19
-19 14 -37 -13 -44 -14 -3 -25 -12 -25 -19 0 -7 -13 -15 -30 -17 -24 -4 -30
-1 -30 13 0 10 -4 20 -9 23 -14 9 -22 -24 -11 -45 10 -17 7 -19 -24 -19 -19 0
-38 -5 -41 -10 -3 -5 -17 -10 -31 -10 -13 0 -24 -4 -24 -9 0 -5 -11 -11 -25
-13 -17 -4 -25 -1 -25 9 0 7 -8 16 -17 20 -21 7 -72 63 -73 79 0 23 -37 42
-87 46 -54 5 -63 -1 -63 -43 0 -15 -7 -19 -34 -19 -21 0 -36 6 -40 15 -3 8
-12 15 -20 15 -9 0 -20 9 -26 21 -7 13 -19 19 -33 17 -17 -2 -22 -9 -20 -31 2
-32 -12 -36 -27 -7 -17 31 -26 24 -22 -17 4 -34 3 -36 -11 -25 -9 8 -21 11
-27 7 -5 -3 -13 0 -16 8 -3 9 -14 12 -29 10 -17 -4 -27 1 -36 19 l-13 23 -6
-25 c-7 -29 -48 -38 -93 -21 -24 10 -27 15 -27 61 0 27 -5 50 -10 50 -6 0 -8
-10 -4 -24 3 -14 1 -33 -5 -43 -9 -16 -10 -16 -11 5 0 13 -7 30 -15 39 -8 8
-12 19 -9 25 4 6 -1 8 -12 6 -11 -2 -18 -11 -16 -21 2 -11 -4 -17 -17 -17 -26
0 -32 -11 -23 -46 5 -16 5 -42 1 -59 -4 -16 -7 -22 -8 -12 -1 10 -9 17 -21 17
-23 0 -24 3 -10 50 13 46 -2 58 -29 24 -16 -21 -20 -36 -16 -58 4 -17 3 -26
-2 -19 -4 6 -22 13 -38 15 -23 2 -29 7 -27 21 5 26 -40 19 -48 -8 -3 -13 -15
-21 -34 -22 -15 -1 -34 -10 -42 -20 -11 -16 -13 -13 -11 26 2 43 1 45 -32 55
-30 9 -36 7 -53 -14 -10 -12 -21 -20 -24 -17 -8 8 -74 -62 -74 -78 0 -8 -4
-15 -10 -15 -5 0 -10 -11 -10 -25 0 -15 6 -25 15 -25 18 0 135 -113 136 -131
1 -8 1 -17 0 -21 0 -5 6 -8 14 -8 8 0 20 -9 27 -20 9 -13 24 -20 46 -20 20 0
35 -6 38 -15 4 -8 15 -15 25 -15 10 0 28 -8 40 -17 59 -49 62 -60 19 -60 -21
0 -30 6 -33 21 -4 20 -4 19 -6 -2 -1 -24 -43 -47 -69 -37 -8 3 -20 1 -27 -5
-8 -7 -18 -3 -34 14 -13 14 -29 22 -37 19 -8 -3 -26 3 -42 13 -15 10 -33 17
-41 15 -8 -1 -17 3 -21 9 -4 7 -19 12 -34 12 -14 1 -26 4 -26 9 0 13 -30 39
-46 39 -10 0 -9 -7 6 -32 11 -18 24 -43 30 -56 5 -12 16 -25 24 -28 9 -3 18
-14 21 -25 4 -10 13 -19 20 -19 8 0 22 -11 30 -24 9 -13 38 -33 65 -45 51 -22
65 -40 44 -56 -10 -8 -10 -13 -1 -25 15 -19 61 -40 88 -40 14 0 21 -9 25 -30
6 -28 8 -29 56 -27 32 1 52 -3 57 -12 5 -7 14 -11 20 -7 6 4 25 -1 43 -11 18
-9 55 -19 82 -20 27 -2 55 -8 62 -14 10 -8 14 -8 14 0 0 6 5 11 10 11 18 0 10
-32 -15 -62 -14 -16 -25 -26 -25 -23 0 4 -7 2 -15 -5 -13 -10 -15 -9 -15 9 0
24 -17 27 -44 6 -11 -8 -28 -13 -38 -9 -31 10 -18 -10 29 -45 40 -29 47 -31
55 -17 11 19 29 21 26 4 -2 -8 8 -13 25 -13 15 1 26 -4 24 -10 -2 -5 -18 -10
-35 -10 -21 0 -37 -7 -47 -21 -20 -29 -54 -38 -48 -13 4 13 0 19 -11 19 -9 0
-16 -6 -16 -12 0 -19 -67 -21 -74 -3 -4 10 -14 13 -36 9 -27 -6 -30 -4 -30 17
0 23 -36 57 -47 45 -8 -8 8 -27 18 -21 5 4 9 -1 9 -11 0 -12 -3 -14 -13 -6 -7
6 -22 9 -34 6 -17 -5 -21 0 -27 28 -6 30 -8 31 -20 16 -17 -22 -46 -23 -46 -2
0 11 -5 14 -16 10 -9 -3 -27 -9 -41 -12 -13 -4 -29 -16 -34 -28 -7 -16 -8 -12
-5 19 5 37 4 38 -9 21 -15 -20 -20 -12 -16 22 1 7 -9 12 -24 12 -18 0 -25 5
-25 20 0 12 -7 20 -17 20 -12 0 -14 3 -6 11 8 8 8 22 -2 53 -7 22 -23 95 -35
161 -13 66 -27 124 -31 130 -5 5 -9 21 -9 35 0 14 -9 42 -20 63 -11 20 -20 48
-20 62 0 18 -7 26 -25 31 -20 5 -36 -4 -89 -51 -36 -31 -86 -82 -112 -113 -26
-31 -54 -64 -63 -72 -21 -20 -75 -98 -90 -130 -10 -21 -10 -22 1 -5 18 28 108
120 108 111 0 -5 -16 -30 -35 -56 -37 -50 -46 -84 -20 -74 11 5 15 -1 15 -25
0 -21 -5 -31 -16 -31 -10 0 -12 -4 -7 -12 18 -30 -11 -101 -38 -93 -18 6 -29
-19 -29 -69 l0 -29 -23 21 c-39 36 -76 23 -78 -27 -1 -22 -2 -20 -10 9 -9 36
8 95 39 132 17 20 8 38 -20 38 -36 0 -143 -58 -180 -98 -68 -74 -73 -90 -73
-257 0 -161 -6 -191 -35 -200 -10 -3 -21 -13 -24 -21 -4 -10 -2 -13 6 -8 8 5
9 2 4 -11 -12 -31 20 2 34 35 15 37 30 39 30 5 0 -16 -23 -56 -62 -106 -35
-44 -96 -121 -135 -172 -40 -51 -91 -118 -114 -151 -34 -49 -202 -279 -227
-311 -4 -5 -28 -42 -53 -81 -25 -40 -80 -121 -122 -180 -42 -60 -110 -158
-150 -219 -40 -60 -92 -137 -116 -170 -23 -33 -59 -85 -78 -115 -45 -70 -95
-143 -133 -198 -16 -23 -30 -46 -30 -49 0 -6 -79 -114 -91 -123 -3 -3 -13 -19
-22 -35 -8 -17 -25 -39 -37 -50 -12 -11 -28 -34 -35 -52 -8 -18 -18 -33 -23
-33 -6 0 -13 -10 -16 -23 -7 -25 -76 -108 -76 -90 0 7 4 14 8 17 4 3 21 30 36
60 16 31 32 56 37 56 5 0 9 9 9 19 0 11 4 21 9 23 5 2 40 48 77 103 37 55 72
105 78 112 22 24 31 39 51 78 11 21 25 43 31 49 6 6 24 33 40 59 16 27 37 61
46 75 10 15 21 34 25 42 3 8 38 57 77 109 78 104 97 131 122 176 9 17 42 66
72 110 246 356 307 451 272 430 -6 -3 -10 -1 -10 5 0 6 8 9 18 6 21 -7 58 47
54 79 -1 11 1 14 4 7 7 -16 75 55 129 135 22 32 46 64 52 71 7 7 13 17 13 21
0 5 12 21 28 38 15 16 41 46 57 67 17 21 36 45 44 53 12 12 12 16 1 23 -10 6
-8 10 7 19 11 5 24 7 28 3 5 -4 6 0 2 9 -3 9 1 26 9 38 9 12 11 21 5 21 -6 0
-11 -5 -11 -10 0 -6 -3 -9 -7 -8 -16 3 -59 -21 -79 -43 -12 -13 -43 -44 -70
-69 -27 -24 -48 -48 -46 -52 1 -4 -3 -8 -9 -8 -13 0 -128 -119 -130 -135 -1
-5 -1 -17 0 -26 1 -9 -5 -22 -14 -29 -8 -7 -15 -21 -15 -31 0 -10 -5 -21 -11
-25 -8 -5 -10 1 -7 20 4 21 3 24 -8 15 -10 -8 -14 -8 -14 0 0 6 -5 11 -11 11
-6 0 -8 -8 -4 -19 3 -11 -1 -25 -9 -34 -11 -11 -12 -17 -3 -26 9 -9 6 -13 -11
-17 -12 -4 -22 -10 -22 -14 0 -5 -23 -32 -50 -60 -28 -29 -57 -65 -65 -81 -9
-16 -22 -29 -29 -29 -8 0 -21 -16 -30 -35 -10 -19 -29 -43 -44 -53 -15 -9 -34
-26 -44 -37 -20 -25 -37 -12 -20 16 14 22 8 39 -14 39 -8 0 -14 7 -14 15 0 15
-13 19 -84 29 l-38 5 4 -50 c4 -39 2 -49 -8 -45 -8 3 -14 2 -14 -2 0 -4 -12
-20 -26 -37 -14 -16 -23 -25 -20 -19 3 7 -3 14 -13 17 -14 3 -17 11 -14 30 5
24 2 26 -24 24 -23 -1 -29 -6 -25 -19 2 -10 -1 -18 -7 -18 -21 0 -11 -38 15
-58 25 -18 26 -19 7 -24 -22 -6 -72 29 -57 40 5 4 10 22 11 40 2 26 -1 33 -12
28 -8 -3 -15 -1 -15 4 0 6 9 10 21 10 11 0 18 4 14 9 -3 5 6 22 20 37 26 28
26 28 5 36 -12 4 -18 13 -15 18 5 8 11 8 20 0 9 -8 15 -8 20 0 4 6 -7 16 -25
23 l-31 13 31 24 c16 13 30 29 30 37 0 7 7 16 15 19 10 4 13 14 9 30 -5 20 -3
23 10 18 14 -5 16 -2 10 21 -5 18 -3 26 3 22 6 -4 13 -1 16 7 4 10 0 12 -15 8
-14 -3 -19 -1 -14 6 3 6 1 14 -5 18 -6 4 -16 0 -21 -9 -5 -9 -15 -14 -22 -11
-7 3 -16 -2 -19 -10 -4 -9 -18 -16 -33 -16 -16 0 -28 -6 -31 -18 -6 -24 -69
-17 -86 9 -12 20 -57 27 -57 9 0 -5 -7 -10 -15 -10 -8 0 -15 -6 -15 -12 0 -9
-3 -8 -10 2 -8 13 -14 13 -44 -4 -20 -10 -33 -22 -31 -26 3 -5 -2 -11 -11 -14
-22 -8 -26 -8 -19 4 3 6 -3 10 -14 10 -12 0 -21 -6 -21 -12 0 -9 -4 -8 -10 2
-8 13 -10 12 -10 -2 0 -12 -8 -18 -25 -18 -14 0 -25 -3 -25 -7 0 -10 -45 -63
-53 -63 -13 0 1 34 17 40 10 3 17 10 17 15 0 19 100 115 119 115 6 0 10 4 10
9 0 5 19 14 43 20 37 10 107 60 107 77 0 3 -11 4 -25 2 -14 -3 -28 -2 -30 3
-3 4 -24 6 -47 4 -23 -2 -47 0 -53 4 -5 5 -93 14 -195 20 -102 7 -200 17 -218
22 -18 6 -63 9 -100 8 -37 -2 -73 0 -80 5 -7 4 -43 9 -80 11 -37 2 -89 7 -116
10 -34 5 -51 3 -56 -5 -5 -9 -10 -6 -15 9 -4 12 -2 28 4 35 8 10 7 34 -3 90
-9 42 -18 80 -20 85 -3 5 -26 18 -51 30 -25 12 -45 26 -45 31 0 6 -6 10 -14
10 -8 0 -16 3 -18 8 -1 4 -29 24 -60 45 -51 33 -76 67 -49 67 5 0 11 17 14 38
6 43 24 112 26 97 1 -5 6 -3 11 5 5 8 6 34 3 57 -5 36 -3 43 11 43 11 0 16 9
16 30 0 16 6 33 13 37 6 4 18 19 25 32 11 20 12 25 1 32 -8 5 -17 3 -21 -4 -6
-9 -8 -9 -8 1 0 7 7 15 15 18 8 4 15 12 15 20 0 17 11 18 44 3 21 -10 23 -15
15 -36 -5 -15 -5 -31 0 -40 7 -13 13 -9 35 25 28 44 36 48 67 32 15 -9 19 -7
20 7 1 10 5 1 8 -20 6 -38 23 -47 28 -15 2 10 12 35 23 55 11 21 20 49 21 63
0 24 1 24 9 3 5 -12 7 -35 5 -52 -2 -17 1 -31 6 -31 6 0 24 -9 39 -20 19 -14
30 -16 32 -8 3 8 9 8 19 2 8 -5 23 -9 33 -9 14 0 22 -11 30 -40 9 -30 13 -36
19 -22 3 9 14 17 22 17 15 0 15 1 1 16 -9 8 -14 20 -11 25 9 14 31 11 45 -6
14 -17 40 -20 40 -4 0 6 7 17 15 25 13 14 15 14 15 -1 0 -9 4 -14 9 -10 6 3
14 -2 19 -12 9 -15 12 -15 27 -3 19 15 76 20 86 7 3 -4 18 -3 33 3 21 8 31 7
41 -4 15 -15 190 -31 218 -20 10 3 23 1 31 -5 8 -7 29 -11 47 -11 19 1 76 -3
127 -9 60 -7 100 -8 111 -1 20 10 35 87 21 105 -12 15 -23 95 -13 95 22 0 39
-72 32 -133 -4 -34 -5 -65 -1 -68 4 -4 30 -3 57 0 31 4 59 2 75 -6 22 -10 53
-11 172 -4 17 1 17 2 0 22 -9 11 -25 24 -34 28 -16 6 -15 9 4 40 19 29 25 32
54 28 28 -5 33 -2 36 16 3 19 9 22 47 22 37 0 46 4 50 20 7 25 37 26 35 2 -1
-9 2 -17 7 -17 5 0 9 9 9 20 0 11 7 20 15 20 8 0 15 -5 15 -12 0 -6 3 -9 6 -5
9 9 -34 65 -56 72 -14 5 -19 15 -18 39 1 18 -2 38 -6 44 -11 18 -42 14 -57 -7
-11 -14 -20 -16 -39 -11 -20 6 -21 8 -6 9 19 1 19 2 -2 21 -25 24 -29 24 -48
6 -11 -11 -11 -16 -1 -20 21 -9 -57 5 -83 15 -22 8 -25 16 -25 49 0 21 3 42 7
45 3 3 22 -2 42 -12 32 -15 38 -15 46 -3 6 8 8 20 5 27 -2 7 2 10 9 7 16 -6
46 21 46 42 0 14 11 18 38 15 6 -1 12 3 12 9 0 5 10 10 23 10 18 0 19 -2 7
-10 -10 -7 -11 -10 -2 -10 19 0 27 31 11 41 -11 6 -11 11 -1 21 9 9 12 9 12
-5 0 -19 8 -21 29 -8 13 8 13 12 0 27 -11 13 -11 18 -1 21 6 3 12 10 12 16 1
7 14 28 30 47 17 19 30 42 30 52 0 10 5 18 11 18 6 0 8 -9 4 -21 -6 -17 -3
-20 12 -17 13 3 17 11 15 33 -2 17 0 27 4 23 10 -11 44 10 44 27 0 9 10 15 25
15 26 0 26 0 29 85 1 11 4 25 8 31 11 17 28 143 21 160 -3 9 0 12 8 9 10 -4
15 5 17 32 1 21 9 43 18 49 10 8 13 20 8 38 -5 20 -3 26 7 24 8 -2 13 4 13 14
-1 10 2 16 6 13 5 -3 11 17 15 45 4 27 11 52 16 56 5 3 9 15 9 27 1 17 2 19 9
7 4 -8 4 -64 -1 -124 -4 -60 -6 -111 -3 -114 3 -3 5 11 5 31 0 21 4 37 9 37 5
0 9 16 9 36 0 20 5 41 12 47 10 9 11 7 5 -10 -3 -13 -3 -32 0 -44 5 -16 10
-18 21 -8 16 13 19 44 4 34 -7 -4 -8 3 -4 22 9 35 14 42 14 17 0 -10 5 -26 10
-34 6 -10 8 -3 3 23 -4 24 -2 37 6 37 6 0 11 -4 11 -10 0 -5 9 -10 21 -10 15
0 19 5 17 22 -2 15 4 26 20 34 13 6 32 25 41 40 18 30 41 53 99 99 17 15 32
33 32 41 0 8 5 14 10 14 6 0 10 6 10 14 0 8 6 16 13 19 8 2 12 24 12 63 -1 46
-6 67 -24 92 -12 18 -20 40 -17 48 3 8 2 12 -4 9 -6 -3 -10 3 -10 14 0 11 -4
23 -10 26 -5 3 -10 15 -10 25 0 10 -6 20 -12 22 -10 4 -10 10 -2 29 14 30 8
49 -15 49 -15 0 -17 10 -15 80 2 51 -1 80 -8 80 -6 0 -8 10 -4 24 3 14 2 28
-4 31 -5 3 -10 19 -10 36 0 19 -5 29 -15 29 -19 0 -19 7 0 26 10 10 13 30 11
65 -2 27 1 52 6 55 5 3 2 14 -7 24 -12 13 -13 23 -6 43 8 20 7 27 -7 32 -16 6
-15 8 2 20 15 12 17 21 11 52 -9 43 -7 73 6 89 5 6 6 25 3 41 -4 22 -2 32 10
36 19 7 22 57 4 57 -9 0 -10 2 -2 8 15 10 30 57 15 48 -16 -10 -14 5 9 48 10
22 17 43 14 47 -3 5 0 9 5 9 6 0 11 15 11 33 0 17 5 50 12 72 6 22 12 60 13
85 1 25 5 52 9 60 3 8 8 49 10 90 3 41 9 91 14 110 6 26 5 38 -5 45 -12 9 -11
16 3 44 13 27 15 42 6 84 -7 34 -7 54 0 58 5 3 9 9 9 13 -3 19 0 26 13 26 15
0 29 51 20 75 -4 8 -1 21 5 28 11 14 36 205 27 214 -2 3 -1 16 4 28 14 38 22
163 11 170 -7 4 -7 12 -1 23 5 9 13 58 18 107 9 90 5 109 -25 143 -20 21 -27
63 -14 83 6 10 11 39 11 63 0 25 5 48 11 51 5 4 9 30 8 58 -1 29 1 60 6 70 4
9 3 17 -2 17 -16 0 -44 -36 -36 -45 5 -4 2 -5 -4 -1 -8 4 -13 2 -13 -6 0 -9
-3 -9 -10 2 -5 8 -7 23 -4 33 3 9 1 17 -5 17 -6 0 -11 9 -11 20 0 36 -17 21
-49 -45 -21 -43 -30 -72 -26 -86 7 -20 8 -20 26 -3 31 28 46 5 30 -44 -7 -22
-10 -49 -7 -60 4 -12 0 -42 -8 -67 -18 -53 -22 -90 -6 -65 16 25 20 6 20 -96
-1 -129 -3 -151 -23 -174 -9 -10 -19 -36 -23 -57 -4 -21 -15 -55 -25 -75 -24
-48 -24 -68 1 -68 21 0 25 -15 20 -80 -2 -34 -2 -35 18 -17 20 18 20 18 4 -17
-15 -32 -21 -35 -52 -34 -49 3 -65 26 -34 51 13 10 24 25 24 33 0 18 -39 18
-46 0 -3 -8 -11 -13 -19 -10 -9 4 -11 22 -8 65 4 48 2 64 -12 79 -10 11 -15
28 -12 39 3 12 -5 33 -18 51 -25 34 -26 86 -3 103 10 7 10 10 1 14 -7 2 -13
11 -13 18 0 8 -9 19 -20 25 -25 13 -26 45 -2 59 16 10 16 10 0 11 -10 0 -18 4
-18 10 0 5 8 14 18 19 15 9 15 10 -4 11 -20 0 -22 6 -22 75 -1 41 3 77 7 80
12 7 2 47 -15 61 -8 6 -16 26 -18 44 -2 17 -10 38 -17 45 -16 14 -94 33 -194
45 -38 5 -92 15 -120 24 -27 8 -81 18 -120 22 -38 3 -78 11 -87 16 -10 5 -39
11 -64 13 -25 3 -51 8 -57 12 -7 4 -41 11 -77 16 -137 16 -145 18 -163 43 -18
24 -18 24 12 24 16 0 32 -4 35 -8 3 -5 18 -7 33 -5 15 2 91 -3 168 -11 76 -8
142 -13 146 -10 4 2 5 13 2 24 -4 16 -14 20 -52 20 -26 0 -51 3 -54 7 -4 4
-31 6 -61 4 -40 -2 -55 1 -59 13 -3 8 -23 18 -44 21 -21 3 -63 12 -93 20 -30
9 -82 19 -115 24 -33 6 -100 17 -150 26 -49 9 -117 18 -150 20 -33 1 -72 7
-86 13 -52 21 -506 89 -969 147 -69 8 -159 20 -201 25 -42 6 -95 8 -117 4 -24
-4 -55 -1 -74 6 -18 6 -46 14 -63 16 -16 3 -40 7 -52 9 -22 5 -23 2 -23 -54 0
-58 1 -60 27 -63 17 -2 29 -10 31 -20 3 -14 -3 -18 -27 -18 l-31 0 0 -4550 0
-4550 5400 0 5400 0 0 3665 0 3665 -22 5 c-13 3 -50 9 -83 15 -84 14 -134 26
-180 44 -22 8 -65 15 -95 16 -30 0 -111 11 -180 25 -145 30 -227 45 -256 50
-11 1 -47 8 -79 15 -32 7 -103 13 -156 14 -54 1 -101 5 -105 9 -4 4 -26 7 -48
7 l-41 0 30 -16 c43 -22 106 -44 131 -44 11 0 24 -3 28 -7 4 -4 19 -9 33 -11
15 -2 34 -7 44 -13 10 -5 35 -9 56 -9 21 0 47 -7 57 -15 11 -8 32 -15 46 -15
33 0 84 -16 131 -41 20 -10 46 -19 58 -19 11 0 21 -5 21 -11 0 -6 8 -8 18 -5
10 4 27 -1 38 -9 18 -14 18 -14 -4 -15 -13 0 -32 5 -44 11 -11 6 -36 13 -56
15 -66 8 -302 55 -572 114 -52 12 -120 25 -150 31 -80 13 -99 17 -134 28 -27
9 -114 27 -171 35 -18 3 -54 12 -195 47 -19 5 -80 18 -135 29 -178 37 -329 71
-360 80 -16 4 -46 11 -65 15 -19 3 -91 19 -160 35 -69 15 -150 34 -180 40
-187 40 -264 55 -429 85 -101 19 -184 36 -185 37 0 2 -6 12 -12 24 -8 13 -9
26 -3 37 7 11 5 24 -7 42 -11 17 -13 25 -4 25 8 0 11 9 7 26 -4 21 3 34 29 61
19 18 34 40 34 48 0 8 10 21 22 29 17 12 21 26 22 73 1 76 23 94 102 86 l54
-6 -4 31 c-3 27 0 30 20 28 29 -3 71 -31 62 -41 -4 -4 -19 0 -34 9 -36 24 -45
9 -12 -19 16 -14 47 -27 75 -30 27 -4 80 -14 118 -22 39 -7 108 -20 155 -28
47 -7 117 -20 155 -29 101 -23 199 -42 285 -56 41 -7 89 -16 105 -21 17 -5 48
-11 70 -15 22 -3 81 -15 130 -26 50 -11 122 -25 160 -33 202 -39 422 -87 437
-95 10 -6 28 -10 42 -10 13 0 77 -13 142 -29 66 -16 153 -37 194 -46 41 -9 80
-21 85 -25 6 -5 39 -14 75 -21 36 -7 71 -19 78 -28 9 -11 12 -11 12 -2 0 10 7
9 27 -4 17 -11 43 -17 69 -16 26 0 48 -5 58 -14 8 -8 19 -15 24 -15 6 0 12 -5
14 -11 2 -6 22 -13 43 -14 65 -5 133 -21 159 -38 13 -9 46 -22 73 -28 26 -7
53 -16 60 -21 7 -5 16 -7 21 -4 6 3 15 -1 22 -9 7 -8 16 -13 20 -10 4 3 27 -2
51 -11 41 -14 144 -44 154 -44 3 0 5 720 5 1600 l0 1600 -693 0 c-534 0 -696
-3 -705 -12 -10 -10 -17 -10 -32 0 -26 16 -90 16 -90 0 0 -9 -3 -9 -12 0 -7 7
-23 12 -38 12 -24 0 -22 -2 20 -40 47 -41 68 -48 87 -29 20 20 36 -1 17 -22
-11 -12 -14 -24 -8 -36 7 -16 8 -16 11 5 3 12 11 22 18 22 8 0 17 -10 21 -22
4 -13 12 -26 18 -30 6 -5 2 -8 -11 -8 -28 0 -30 -16 -3 -23 11 -3 20 -12 20
-20 0 -15 85 -51 100 -42 10 6 22 -58 15 -78 -9 -22 14 -31 34 -13 22 20 31
20 31 2 0 -8 8 -17 18 -21 16 -6 16 -7 -1 -19 -14 -11 -16 -19 -7 -40 5 -14
14 -26 20 -26 5 0 10 -9 10 -20 0 -11 -4 -20 -10 -20 -5 0 -10 6 -10 14 0 25
-18 28 -30 5 -13 -23 -4 -62 9 -41 11 18 40 4 34 -17 -3 -11 4 -21 19 -28 13
-7 17 -12 11 -12 -7 -1 -13 -5 -13 -10 0 -16 30 -21 51 -8 16 10 21 9 28 -2 6
-10 0 -21 -21 -39 -22 -19 -26 -27 -17 -36 8 -8 13 -8 16 2 6 16 28 15 42 -2
7 -8 30 -17 52 -21 46 -8 49 -16 13 -35 -21 -12 -25 -19 -20 -44 9 -42 36 -82
46 -66 5 8 9 7 14 -5 10 -27 7 -53 -6 -59 -7 -3 -1 -3 14 0 16 4 36 3 45 0 15
-6 13 -10 -11 -29 -20 -16 -29 -33 -30 -57 -1 -18 -7 -35 -14 -38 -21 -7 -13
-19 11 -15 13 3 31 -4 44 -16 12 -12 29 -21 36 -21 19 0 32 -51 16 -60 -7 -5
-9 -18 -5 -34 5 -22 10 -25 32 -20 20 5 26 2 31 -15 3 -12 13 -21 24 -21 11 0
19 -4 19 -10 0 -5 -6 -10 -14 -10 -8 0 -18 5 -21 10 -9 15 -25 12 -25 -5 0 -8
5 -15 10 -15 6 0 10 -3 10 -7 0 -5 -55 -7 -122 -7 -68 1 -346 3 -618 5 -272 1
-535 6 -585 9 -89 6 -215 -7 -215 -22 0 -14 44 -25 82 -21 23 3 45 -1 58 -10
15 -11 31 -12 57 -6 23 5 44 4 57 -3 11 -6 52 -11 93 -12 50 -1 74 -5 78 -14
3 -8 13 -11 26 -7 14 5 25 1 33 -11 8 -11 21 -15 35 -11 11 3 19 1 15 -4 -3
-5 8 -9 25 -9 16 0 31 5 33 12 3 8 11 7 28 -5 29 -20 77 -22 82 -5 3 9 9 8 22
-5 18 -17 29 -21 55 -17 7 1 33 -4 58 -12 31 -9 43 -17 40 -28 -3 -12 5 -14
45 -12 50 4 64 -9 29 -28 -28 -15 -51 -12 -51 5 0 19 -10 19 -36 0 -14 -9 -51
-15 -105 -17 -95 -2 -552 8 -919 22 -309 11 -699 12 -810 2 -94 -9 -146 1
-156 30 -3 10 -10 18 -15 18 -5 0 -9 6 -9 13 0 7 -12 30 -26 51 -28 40 -33 68
-19 101 4 11 4 17 0 13 -5 -5 -14 1 -22 12 -8 11 -22 20 -32 20 -26 0 -79 28
-90 48 -8 14 -11 14 -26 2 -14 -11 -18 -11 -33 3 -10 10 -12 17 -4 17 6 0 9 7
6 15 -8 20 -24 19 -24 -1 0 -24 -35 -12 -38 14 -3 20 -9 22 -60 22 -87 0 -90
5 -63 90 13 40 20 75 15 79 -18 12 -56 100 -61 140 -3 23 -9 41 -13 41 -11 0
-30 48 -30 75 0 14 -4 25 -10 25 -5 0 -10 9 -10 20 0 13 -7 20 -19 20 -13 0
-19 6 -18 19 0 11 5 17 9 15 11 -7 10 22 -1 44 -13 28 -41 118 -41 136 0 19
-17 52 -42 82 -10 11 -31 45 -46 75 -25 47 -134 169 -152 169 -4 0 -13 11 -20
25 l-13 25 -1274 0 c-1125 0 -1273 -2 -1273 -15z m5543 -59 c4 -10 1 -13 -8
-9 -8 3 -12 9 -9 14 7 12 11 11 17 -5z m57 -22 c0 -8 -4 -12 -10 -9 -5 3 -10
10 -10 16 0 5 5 9 10 9 6 0 10 -7 10 -16z m-10 -80 c0 -9 -5 -14 -12 -12 -18
6 -21 28 -4 28 9 0 16 -7 16 -16z m218 -356 c4 -34 -13 -36 -39 -6 -26 29 -24
40 9 36 21 -2 28 -9 30 -30z m66 -89 c23 3 28 -1 13 -10 -21 -12 -37 -4 -37
19 0 13 2 14 9 4 4 -8 11 -13 15 -13z m146 -155 c0 -8 -5 -12 -10 -9 -6 4 -8
11 -5 16 9 14 15 11 15 -7z m-60 -14 c0 -5 -7 -10 -16 -10 -8 0 -12 5 -9 10 3
6 10 10 16 10 5 0 9 -4 9 -10z m80 -14 c0 -3 -4 -8 -10 -11 -5 -3 -10 -1 -10
4 0 6 5 11 10 11 6 0 10 -2 10 -4z m64 -98 c-9 -30 -24 -48 -39 -48 -24 0 -22
24 4 47 33 29 44 29 35 1z m-33 -90 c7 -18 14 -36 17 -40 2 -5 -3 -8 -11 -8
-8 0 -21 15 -28 33 -7 17 -14 35 -17 40 -2 4 3 7 11 7 8 0 21 -15 28 -32z
m128 -127 c-15 -5 -22 6 -14 19 6 9 10 9 16 -1 5 -8 4 -15 -2 -18z m61 -70 c0
-11 -49 -21 -67 -14 -27 10 -12 23 27 23 22 0 40 -4 40 -9z m-6749 -54 c-13
-12 -20 -15 -16 -7 14 26 28 41 33 35 3 -3 -5 -16 -17 -28z m-37 -26 c3 -5 -1
-14 -9 -21 -13 -10 -15 -9 -15 9 0 21 14 28 24 12z m6271 -182 c11 0 28 1 38
2 16 0 47 -23 47 -35 0 -11 -211 -6 -231 4 -45 25 -15 38 71 32 30 -2 64 -4
75 -3z m-5112 -146 c-7 -2 -19 -2 -25 0 -7 3 -2 5 12 5 14 0 19 -2 13 -5z
m434 -37 c-5 -15 -59 -14 -64 1 -3 7 9 11 32 10 20 -1 34 -6 32 -11z m747 -7
c-3 -5 -10 -7 -15 -3 -5 3 -7 10 -3 15 3 5 10 7 15 3 5 -3 7 -10 3 -15z m-674
-139 c0 -11 -4 -20 -10 -20 -5 0 -10 9 -10 20 0 11 5 20 10 20 6 0 10 -9 10
-20z m-1746 -82 c-5 -7 -9 -15 -10 -18 -4 -23 -19 -38 -35 -37 -10 1 -19 5
-19 10 0 19 23 49 43 56 26 10 32 7 21 -11z m-1461 -65 c-7 -2 -19 -2 -25 0
-7 3 -2 5 12 5 14 0 19 -2 13 -5z m97 -3 c0 -5 -2 -10 -4 -10 -3 0 -8 5 -11
10 -3 6 -1 10 4 10 6 0 11 -4 11 -10z m60 -70 c0 -5 -7 -10 -15 -10 -8 0 -15
5 -15 10 0 6 7 10 15 10 8 0 15 -4 15 -10z m6713 -174 c4 4 7 -1 8 -12 0 -10
3 -13 6 -6 2 6 11 12 18 12 7 0 16 7 19 16 3 9 15 14 28 12 21 -3 23 -9 23
-55 -1 -62 7 -60 16 5 5 41 6 38 7 -28 1 -84 -6 -123 -19 -114 -6 3 -7 -12 -3
-38 9 -55 14 -61 15 -17 0 19 3 28 6 21 8 -20 -7 -103 -18 -97 -5 3 -6 -1 -2
-10 5 -15 -4 -16 -87 -13 l-92 3 6 55 c3 30 9 97 12 148 5 72 10 92 20 88 9
-3 14 2 14 15 0 11 -4 17 -10 14 -5 -3 -10 0 -10 8 0 24 14 28 25 7 6 -11 14
-17 18 -14z m-1093 -216 c0 -5 -14 -10 -31 -10 -17 0 -28 4 -24 10 3 6 17 10
31 10 13 0 24 -4 24 -10z m217 -36 c13 -4 21 -10 18 -14 -6 -10 -55 0 -55 11
0 10 7 11 37 3z m-4637 -192 c0 -13 -4 -20 -10 -17 -5 3 -10 21 -10 38 0 24 3
28 10 17 5 -8 10 -25 10 -38z m-36 -487 c-4 -8 -8 -15 -10 -15 -2 0 -4 7 -4
15 0 8 4 15 10 15 5 0 7 -7 4 -15z m6231 -255 c0 -18 -6 -26 -22 -28 -18 -3
-23 1 -23 21 0 28 9 39 30 35 9 -2 15 -14 15 -28z m-2215 -57 c0 -13 -6 -36
-14 -51 -8 -16 -16 -80 -20 -162 -9 -168 -20 -234 -51 -305 -19 -42 -25 -73
-25 -128 -1 -40 -8 -108 -16 -152 -9 -44 -18 -95 -21 -112 -6 -38 -18 -43 -26
-11 -8 28 -1 152 13 248 14 94 13 67 4 258 -5 112 -4 162 3 162 6 0 14 -24 17
-52 13 -102 18 -128 26 -133 14 -8 28 54 35 150 3 50 7 99 8 110 1 14 -5 21
-20 23 -50 7 -37 97 23 161 41 43 64 41 64 -6z m2728 -60 c-5 -25 -28 -28 -28
-4 0 12 6 21 16 21 9 0 14 -7 12 -17z m-2847 -130 c-8 -15 -10 -15 -11 -2 0
17 10 32 18 25 2 -3 -1 -13 -7 -23z m3666 -67 c-4 -9 -11 -16 -17 -16 -11 0
-14 33 -3 43 11 11 26 -10 20 -27z m-3712 -727 c-10 -15 -25 -10 -19 6 4 8 10
12 15 9 5 -3 7 -10 4 -15z m-4619 -1087 c31 -21 15 -67 -26 -72 -52 -7 -67 9
-51 53 8 20 17 27 38 27 16 0 33 -4 39 -8z m-2216 -44 c0 -7 -5 -20 -10 -28
-8 -12 -10 -9 -10 13 0 15 5 27 10 27 6 0 10 -6 10 -12z m-23 -115 c-3 -10 -5
-4 -5 12 0 17 2 24 5 18 2 -7 2 -21 0 -30z m6663 -162 c0 -14 -6 -17 -25 -13
-31 5 -32 19 -2 25 12 2 23 5 25 6 1 0 2 -7 2 -18z m72 -8 c11 -10 18 -30 18
-54 0 -20 5 -39 11 -41 14 -5 1 -98 -13 -98 -6 0 -8 12 -5 28 6 32 -11 122
-23 122 -5 0 -12 9 -15 21 -4 12 -12 18 -21 15 -8 -3 -14 1 -14 9 0 20 39 19
62 -2z m-6382 -104 c0 -7 11 -8 30 -4 20 4 30 3 30 -5 0 -7 7 -10 15 -6 8 3
15 1 15 -4 0 -6 9 -10 19 -10 11 0 26 -7 35 -15 17 -18 46 -10 46 14 0 14 2
14 10 1 8 -13 13 -13 31 -2 19 12 21 12 16 -2 -5 -11 -1 -16 13 -16 28 0 26
-38 -2 -50 -13 -5 -18 -9 -13 -10 11 0 -16 -20 -29 -20 -4 0 -6 7 -2 15 3 8 1
15 -4 15 -5 0 -12 10 -16 22 -7 22 -8 21 -35 -12 l-29 -34 -23 22 c-13 12 -29
22 -35 22 -7 0 -12 6 -12 14 0 13 -51 31 -77 27 -16 -2 -26 17 -19 34 6 17 36
20 36 4z m4583 -52 c20 -7 14 -27 -7 -27 -7 0 -22 8 -33 18 -15 12 -17 20 -9
29 8 9 13 8 21 -1 6 -7 18 -15 28 -19z m-1069 -23 c-1 -14 -5 -29 -9 -32 -10
-11 -22 18 -17 43 6 32 30 21 26 -11z m616 16 c0 -5 -4 -10 -10 -10 -5 0 -10
5 -10 10 0 6 5 10 10 10 6 0 10 -4 10 -10z m-4105 -28 c-8 -8 -25 10 -19 20 4
6 9 5 15 -3 4 -7 6 -15 4 -17z m3675 17 c0 -4 -9 -9 -20 -12 -12 -3 -20 0 -20
7 0 6 9 12 20 12 11 0 20 -3 20 -7z m-2160 -84 c0 -14 -4 -25 -10 -25 -11 0
-14 33 -3 43 11 11 13 8 13 -18z m5108 13 c8 -8 8 -16 0 -32 -11 -20 -11 -20
-19 -1 -16 41 -6 58 19 33z m-6064 -37 c3 -5 -1 -14 -9 -21 -8 -7 -15 -23 -15
-36 0 -13 -5 -24 -11 -24 -11 0 -5 63 7 82 7 11 22 10 28 -1z m6105 -32 c-7
-4 -18 -5 -24 -1 -6 4 -3 8 8 10 9 2 18 11 18 20 1 14 2 13 6 -2 3 -10 -1 -22
-8 -27z m-7099 11 c24 -24 26 -48 4 -57 -23 -9 -50 11 -46 33 8 50 13 53 42
24z m180 -6 c0 -8 -4 -12 -10 -9 -5 3 -10 10 -10 16 0 5 5 9 10 9 6 0 10 -7
10 -16z m347 -36 c-3 -7 -5 -2 -5 12 0 14 2 19 5 13 2 -7 2 -19 0 -25z m-397
12 c0 -5 -5 -10 -11 -10 -5 0 -7 5 -4 10 3 6 8 10 11 10 2 0 4 -4 4 -10z
m7035 0 c12 10 18 11 28 1 9 -10 8 -15 -5 -25 -10 -7 -18 -16 -18 -19 0 -14
61 -37 84 -31 19 4 25 1 30 -21 7 -29 -11 -54 -41 -57 -32 -2 -78 3 -65 9 17
7 5 23 -19 23 -11 0 -24 11 -31 25 -6 14 -15 25 -19 25 -5 0 -6 7 -3 15 4 9 0
15 -7 15 -11 0 -11 3 1 10 13 8 12 10 -2 10 -10 0 -18 4 -18 9 0 14 33 18 52
7 11 -7 21 -6 33 4z m-6860 -20 c11 -18 -15 -40 -46 -40 -23 0 -29 5 -29 21 0
11 3 18 8 16 4 -3 16 -1 27 4 28 11 33 11 40 -1z m6978 -2 c-6 -7 -13 -20 -15
-28 -5 -12 -7 -12 -13 4 -5 11 -3 21 6 27 21 13 33 11 22 -3z m117 -17 c0 -6
-4 -13 -10 -16 -5 -3 -10 1 -10 9 0 9 5 16 10 16 6 0 10 -4 10 -9z m-7056 -38
c-8 -45 -20 -61 -34 -47 -17 17 14 83 38 84 2 0 0 -17 -4 -37z m606 -7 c0 -8
-4 -17 -9 -21 -12 -7 -24 12 -16 25 9 15 25 12 25 -4z m5830 4 c0 -5 -5 -10
-11 -10 -5 0 -7 -4 -4 -10 3 -5 1 -18 -4 -27 -9 -16 -10 -16 -11 4 0 12 3 28
6 37 7 18 24 22 24 6z m-6807 -45 c-6 -18 -19 -19 -29 -4 -7 12 15 31 28 23 4
-3 5 -11 1 -19z m714 3 c-3 -8 -6 -5 -6 6 -1 11 2 17 5 13 3 -3 4 -12 1 -19z
m330 -44 c21 -14 8 -54 -18 -54 -10 0 -19 -5 -19 -11 0 -8 -5 -8 -15 1 -8 7
-12 17 -8 23 3 5 2 7 -4 4 -14 -9 -47 18 -39 31 4 7 12 12 17 12 6 0 7 -4 4
-10 -3 -5 3 -10 15 -10 15 0 25 10 33 31 9 24 13 27 16 13 2 -10 10 -23 18
-30z m-330 -6 c-3 -8 -6 -5 -6 6 -1 11 2 17 5 13 3 -3 4 -12 1 -19z m539 16
c31 -8 49 -97 27 -131 -16 -24 -33 -29 -48 -14 -6 6 -29 11 -52 12 -31 2 -43
7 -43 18 -1 13 -3 13 -15 -2 -13 -18 -14 -18 -24 1 -9 18 -8 21 11 24 15 2 26
14 33 33 19 56 54 74 111 59z m-126 -53 c0 -10 -7 -22 -16 -25 -26 -10 -34 -7
-27 12 6 15 5 15 -10 3 -12 -9 -17 -10 -17 -2 0 12 33 29 58 30 6 1 12 -8 12
-18z m5601 -17 c-5 -16 -10 -21 -10 -12 -1 18 10 51 15 45 2 -1 -1 -16 -5 -33z
m646 15 c-6 -10 -14 -16 -19 -13 -11 7 1 31 16 31 11 0 12 -4 3 -18z m-45 -24
c3 -13 1 -22 -3 -19 -9 5 -13 44 -5 44 2 0 6 -11 8 -25z m-3036 6 c-4 -5 0
-12 6 -14 7 -3 3 -6 -9 -6 -14 -1 -23 5 -23 14 0 8 7 15 16 15 8 0 13 -4 10
-9z m1024 5 c0 -3 -4 -8 -10 -11 -5 -3 -10 -1 -10 4 0 6 5 11 10 11 6 0 10 -2
10 -4z m2260 -16 c0 -5 -4 -10 -10 -10 -5 0 -10 5 -10 10 0 6 5 10 10 10 6 0
10 -4 10 -10z m-7257 -32 c-11 -59 -22 -66 -23 -15 0 35 4 47 15 47 11 0 13
-8 8 -32z m4061 17 c-4 -8 -10 -12 -15 -9 -11 6 -2 24 11 24 5 0 7 -7 4 -15z
m122 -18 c1 -27 1 -27 -3 -1 -3 17 -9 24 -19 20 -8 -3 -14 -1 -14 5 0 6 8 9
18 7 11 -2 17 -13 18 -31z m2953 19 c13 -7 20 -16 15 -19 -5 -3 -20 3 -33 14
-27 22 -17 25 18 5z m-749 -34 c0 -21 -2 -24 -10 -12 -8 13 -10 12 -10 -2 0
-10 -8 -18 -17 -18 -14 0 -13 -3 5 -16 28 -19 28 -29 -2 -64 -23 -27 -24 -28
-40 -9 -9 11 -16 29 -15 42 0 12 3 16 6 10 9 -24 23 -13 17 12 -4 18 -1 27 10
31 9 3 16 13 16 20 0 18 22 44 33 37 4 -2 7 -16 7 -31z m682 21 c10 -9 18 -26
18 -38 0 -13 7 -25 15 -29 8 -3 15 -12 15 -21 0 -8 5 -15 10 -15 6 0 10 5 10
10 0 6 7 10 15 10 8 0 15 -9 15 -20 0 -16 -7 -20 -30 -20 -23 0 -28 -3 -23
-16 4 -11 2 -15 -6 -13 -7 3 -11 7 -9 11 2 3 -6 15 -16 27 -11 12 -15 21 -10
22 5 0 -2 5 -15 10 -15 6 -21 14 -17 25 9 23 -3 37 -20 23 -11 -9 -14 -8 -14
5 0 9 8 16 19 16 24 0 36 16 19 23 -7 3 -9 6 -4 6 5 1 18 -6 28 -16z m318 7
c0 -5 -5 -10 -11 -10 -5 0 -7 5 -4 10 3 6 8 10 11 10 2 0 4 -4 4 -10z m-6663
-32 c-3 -7 -5 -2 -5 12 0 14 2 19 5 13 2 -7 2 -19 0 -25z m-841 -5 c-4 -8 -9
-26 -12 -39 -8 -31 -22 -31 -34 2 -13 32 -13 30 5 48 18 18 49 10 41 -11z
m782 3 c3 -12 -1 -17 -10 -14 -7 3 -15 13 -16 22 -3 12 1 17 10 14 7 -3 15
-13 16 -22z m3467 13 c4 -6 -2 -19 -14 -30 -14 -13 -21 -15 -22 -7 0 7 -5 3
-11 -9 -16 -33 -28 -28 -28 11 0 30 4 35 28 39 15 2 30 5 34 6 4 0 10 -4 13
-10z m-3647 -6 c-10 -2 -26 -2 -35 0 -10 3 -2 5 17 5 19 0 27 -2 18 -5z m3752
-13 c0 -5 7 -10 15 -10 8 0 15 -4 15 -9 0 -12 -59 -11 -66 1 -8 12 5 28 22 28
8 0 14 -4 14 -10z m3300 0 c0 -5 -5 -10 -11 -10 -5 0 -7 5 -4 10 3 6 8 10 11
10 2 0 4 -4 4 -10z m-7115 -27 c-3 -44 -4 -46 -20 -33 -19 16 -19 25 1 44 21
21 21 21 19 -11z m7580 17 c-3 -5 -17 -10 -31 -10 -14 0 -22 4 -19 10 3 6 17
10 31 10 14 0 22 -4 19 -10z m-428 -12 c-2 -7 7 -23 20 -35 25 -24 30 -43 11
-44 -17 -1 22 -17 42 -18 13 -1 13 1 1 8 -12 8 -13 14 -3 35 14 32 23 32 50 1
21 -24 24 -25 51 -11 16 9 31 12 35 9 3 -4 6 -2 6 4 0 5 22 10 50 11 39 1 52
-3 60 -17 5 -10 6 -21 3 -25 -3 -3 6 -6 20 -6 15 0 26 3 25 8 -1 4 5 19 12 35
16 32 35 30 35 -4 0 -32 15 -55 41 -63 16 -5 23 -2 27 13 3 13 19 24 47 31 49
13 59 7 41 -21 -15 -25 -7 -37 14 -19 17 14 30 8 23 -12 -8 -18 -4 -33 6 -30
9 3 67 -39 99 -71 14 -14 16 -21 8 -27 -20 -12 14 -32 42 -25 21 6 28 2 42
-25 11 -21 21 -30 31 -26 9 3 12 1 9 -4 -3 -6 1 -10 9 -10 8 0 26 -10 40 -22
14 -13 39 -34 56 -48 17 -14 36 -30 43 -36 7 -6 17 -9 23 -7 6 2 9 -13 7 -43
-3 -39 -1 -46 17 -51 14 -4 20 -14 20 -34 0 -16 5 -29 10 -29 6 0 10 -9 10
-19 0 -11 -4 -23 -10 -26 -5 -3 -10 1 -10 9 0 20 -16 21 -23 2 -4 -9 3 -16 18
-20 25 -7 41 -34 26 -49 -13 -13 -83 11 -74 26 5 9 3 9 -8 1 -21 -18 -45 -12
-294 66 -38 12 -83 24 -100 27 -16 3 -35 9 -40 14 -10 8 -113 25 -127 21 -5
-1 -8 2 -8 8 0 16 -64 -1 -80 -22 -16 -19 -50 -16 -50 4 0 5 -5 6 -12 2 -8 -5
-9 -2 -5 9 3 9 2 19 -4 22 -5 4 -7 11 -4 16 4 5 -3 9 -14 9 -11 0 -22 4 -26 9
-3 5 -29 17 -58 27 -28 9 -63 22 -77 29 -14 7 -52 23 -85 35 -33 12 -83 33
-112 46 -28 13 -63 24 -76 24 -13 0 -27 3 -31 8 -4 4 -33 12 -64 17 -47 8 -58
14 -60 32 -2 12 -10 27 -18 33 -8 7 -15 22 -15 34 -1 17 -2 17 -6 4 -2 -10 -7
-18 -9 -18 -10 0 -34 28 -34 39 0 6 -4 11 -9 11 -5 0 -7 9 -4 20 8 29 43 8 37
-22 -4 -19 -3 -20 4 -5 9 21 22 24 31 8 5 -7 28 -6 74 2 52 9 67 15 67 28 0
10 5 19 11 21 14 5 0 38 -16 38 -18 0 -26 15 -19 34 4 10 14 14 32 10 15 -2
38 1 52 9 22 11 28 10 53 -12 15 -13 27 -28 27 -33 0 -14 -38 -9 -44 7 -9 25
-27 17 -20 -9 4 -16 1 -25 -11 -30 -9 -3 -13 -11 -9 -17 5 -9 10 -8 18 2 6 8
30 21 52 28 l42 13 -21 39 c-11 21 -27 40 -36 42 -11 3 -8 5 6 6 24 1 53 -23
53 -44 0 -7 9 -15 20 -18 26 -7 25 0 -1 21 -13 11 -18 23 -14 35 8 19 39 24
32 5z m103 2 c0 -5 -5 -10 -11 -10 -5 0 -7 5 -4 10 3 6 8 10 11 10 2 0 4 -4 4
-10z m-60 -10 c0 -5 -5 -10 -11 -10 -5 0 -7 5 -4 10 3 6 8 10 11 10 2 0 4 -4
4 -10z m-7623 -50 c-19 -23 -22 -24 -25 -9 -4 21 30 60 40 45 3 -5 -3 -22 -15
-36z m7780 44 c-3 -3 -12 -4 -19 -1 -8 3 -5 6 6 6 11 1 17 -2 13 -5z m-3547
-14 c0 -5 -7 -10 -15 -10 -8 0 -15 5 -15 10 0 6 7 10 15 10 8 0 15 -4 15 -10z
m-3745 -67 c-9 -67 -15 -84 -26 -77 -10 6 -3 60 12 102 14 37 21 25 14 -25z
m6755 9 c0 -8 8 -21 18 -28 12 -9 14 -16 6 -24 -8 -8 -14 -7 -23 4 -7 8 -19
12 -27 9 -8 -3 -14 0 -14 6 0 6 5 11 10 11 6 0 10 5 10 10 0 6 -7 10 -15 10
-13 0 -13 3 -3 19 9 15 15 17 25 9 7 -6 13 -17 13 -26z m-5496 13 c-4 -8 -15
-15 -25 -15 -10 0 -19 7 -19 15 0 9 9 15 25 15 18 0 23 -4 19 -15z m-1687 -17
c-3 -8 -6 -5 -6 6 -1 11 2 17 5 13 3 -3 4 -12 1 -19z m6828 12 c-3 -5 1 -10
10 -10 9 0 14 -4 11 -9 -3 -4 -17 -6 -32 -3 -16 3 -30 -1 -35 -9 -8 -12 -11
-12 -19 1 -5 8 -10 20 -10 25 0 6 4 4 9 -4 7 -11 13 -11 37 2 37 19 36 19 29
7z m-6325 -20 c0 -12 7 -31 15 -43 15 -23 9 -43 -14 -49 -10 -2 -14 12 -16 55
-2 31 1 57 6 57 5 0 9 -9 9 -20z m6625 0 c3 -5 1 -10 -4 -10 -6 0 -11 5 -11
10 0 6 2 10 4 10 3 0 8 -4 11 -10z m165 0 c0 -13 -20 -13 -40 0 -12 8 -9 10
13 10 15 0 27 -4 27 -10z m-6563 -75 c-13 -13 -16 -13 -21 1 -3 8 -2 13 3 10
5 -3 12 6 17 22 7 25 8 26 12 4 2 -12 -3 -29 -11 -37z m130 -2 c0 -29 -4 -53
-8 -53 -5 0 -9 11 -9 25 0 14 -4 25 -9 25 -9 0 -22 40 -16 50 2 3 12 6 23 6
16 0 19 -8 19 -53z m742 0 c-1 -34 -2 -35 -9 -13 -11 36 -11 50 0 50 6 0 10
-17 9 -37z m5139 25 c-6 -18 -28 -21 -28 -4 0 9 7 16 16 16 9 0 14 -5 12 -12z
m142 2 c-8 -5 -22 -9 -30 -9 -10 0 -8 3 5 9 27 12 43 12 25 0z m-6310 -10 c0
-5 -4 -10 -10 -10 -5 0 -10 5 -10 10 0 6 5 10 10 10 6 0 10 -4 10 -10z m5663
3 c3 -5 -4 -17 -14 -27 -19 -19 -19 -19 -19 1 0 28 22 45 33 26z m-5549 -41
c-4 -15 -13 -34 -21 -42 -13 -13 -14 -11 -8 15 13 56 16 65 26 60 5 -4 6 -18
3 -33z m6266 22 c0 -10 -6 -14 -15 -10 -8 3 -15 0 -15 -6 0 -6 -3 -9 -6 -5
-11 10 4 37 21 37 8 0 15 -7 15 -16z m-6618 -61 l-10 -38 -1 50 c-1 36 2 46
10 38 8 -8 8 -22 1 -50z m5820 35 c-7 -7 -12 -8 -12 -2 0 14 12 26 19 19 2 -3
-1 -11 -7 -17z m851 -6 c14 7 22 7 27 -2 4 -7 12 -10 16 -7 12 7 50 -21 41
-30 -4 -3 -1 -16 7 -28 8 -12 16 -32 18 -46 2 -14 9 -23 17 -21 11 2 12 0 3
-11 -7 -8 -10 -22 -6 -31 7 -19 -12 -22 -19 -3 -4 9 -8 9 -15 -2 -8 -12 -16
-8 -42 18 -19 18 -30 37 -26 46 6 17 -13 65 -26 65 -4 0 -8 7 -8 15 0 18 -20
20 -20 3 0 -7 -5 -5 -11 5 -12 21 -2 44 14 28 7 -7 16 -7 30 1z m-6253 -9 c0
-5 -11 -16 -24 -25 -22 -16 -23 -16 -21 5 1 12 3 23 4 25 3 6 41 1 41 -5z
m5461 -30 c-8 -30 -31 -44 -31 -19 0 9 5 16 10 16 6 0 10 9 10 21 0 11 4 18 9
15 5 -4 6 -18 2 -33z m-6312 -40 c1 -12 -5 -24 -11 -26 -7 -3 3 -6 23 -6 38
-1 62 25 38 39 -8 6 -8 9 1 15 6 4 14 4 18 1 9 -10 2 -110 -9 -120 -5 -6 -9
-22 -9 -36 0 -14 -6 -32 -12 -39 -11 -10 -10 -14 4 -22 25 -14 31 -61 15 -116
-15 -51 -13 -77 6 -66 7 4 6 -1 -2 -10 -13 -16 -16 -16 -45 1 -18 11 -32 28
-34 43 -2 13 -9 30 -14 37 -8 9 -5 12 12 12 21 0 22 3 17 49 -5 39 -3 51 9 55
8 3 13 10 10 15 -3 5 1 22 9 37 19 37 19 53 -2 76 -21 24 -33 23 -33 -2 0 -17
-4 -19 -27 -14 -42 10 -50 22 -27 38 11 8 26 34 34 58 11 36 14 40 21 23 4
-11 8 -30 8 -42z m935 38 c3 -5 -3 -11 -14 -14 -20 -5 -26 3 -13 16 9 10 21 9
27 -2z m786 -11 c0 -5 -4 -10 -10 -10 -5 0 -10 5 -10 10 0 6 5 10 10 10 6 0
10 -4 10 -10z m122 -7 c26 -24 22 -33 -14 -33 -24 0 -29 3 -21 11 6 6 9 18 6
25 -7 19 6 18 29 -3z m-888 -18 c-4 -8 -8 -15 -10 -15 -2 0 -4 7 -4 15 0 8 4
15 10 15 5 0 7 -7 4 -15z m56 -10 c0 -8 -4 -15 -10 -15 -5 0 -10 7 -10 15 0 8
5 15 10 15 6 0 10 -7 10 -15z m3290 -15 c0 -5 -4 -10 -10 -10 -5 0 -10 5 -10
10 0 6 5 10 10 10 6 0 10 -4 10 -10z m-56 -15 c3 -9 -1 -18 -10 -22 -19 -7
-26 0 -18 21 8 20 20 21 28 1z m1934 -53 c-30 -35 -31 -43 -5 -37 17 5 26 2
30 -9 8 -21 -3 -48 -17 -41 -6 3 -18 7 -26 11 -20 7 -44 58 -30 62 7 3 6 9 -2
20 -9 10 -10 16 -2 19 6 2 20 10 30 18 17 12 20 12 28 -6 6 -13 5 -24 -6 -37z
m-4338 19 c0 -6 -4 -13 -10 -16 -5 -3 -10 1 -10 9 0 9 5 16 10 16 6 0 10 -4
10 -9z m7332 -11 c61 0 64 -2 104 -43 94 -96 117 -178 64 -229 -48 -46 -104
-76 -131 -71 -13 2 -51 -3 -84 -11 -67 -18 -75 -19 -74 -8 5 29 -24 48 -33 21
-6 -18 -46 11 -60 43 -7 15 -16 24 -20 22 -5 -3 -17 5 -27 18 -14 16 -17 28
-10 40 8 15 5 18 -18 19 -15 0 -22 3 -15 6 6 2 12 11 12 19 0 18 49 66 60 59
5 -3 11 13 15 36 6 34 13 43 41 55 18 8 43 14 54 14 11 0 20 7 20 15 0 12 4
13 19 5 11 -5 48 -10 83 -10z m-9184 -38 c9 -7 8 -13 -7 -26 -11 -10 -23 -38
-27 -62 -5 -38 -10 -44 -30 -44 -13 0 -24 5 -24 10 0 6 4 10 8 10 12 0 32 46
32 73 0 21 17 47 30 47 3 0 11 -4 18 -8z m99 -14 c-3 -8 -6 -5 -6 6 -1 11 2
17 5 13 3 -3 4 -12 1 -19z m3547 -3 c3 -8 1 -15 -4 -15 -6 0 -10 7 -10 15 0 8
2 15 4 15 2 0 6 -7 10 -15z m802 6 c5 -5 18 -11 29 -14 11 -3 4 -5 -17 -6 -28
-1 -38 3 -38 14 0 17 11 20 26 6z m2822 -9 c2 -7 -2 -10 -12 -6 -9 3 -16 11
-16 16 0 13 23 5 28 -10z m-2863 -52 c-3 -4 0 -11 5 -13 6 -3 5 -4 -2 -3 -7 1
-15 11 -16 21 -3 11 0 15 7 10 6 -3 9 -10 6 -15z m2239 5 c-4 -8 -8 -15 -10
-15 -2 0 -4 7 -4 15 0 8 4 15 10 15 5 0 7 -7 4 -15z m3587 -36 c35 -36 35 -69
2 -84 -13 -5 -23 -13 -23 -17 0 -13 -55 -9 -68 4 -7 7 -12 33 -12 58 0 25 5
51 12 58 21 21 58 13 89 -19z m-10351 12 c0 -6 -4 -13 -10 -16 -5 -3 -10 1
-10 9 0 9 5 16 10 16 6 0 10 -4 10 -9z m6190 -11 c0 -5 -4 -10 -10 -10 -5 0
-10 5 -10 10 0 6 5 10 10 10 6 0 10 -4 10 -10z m498 -19 c-5 -24 -33 -19 -36
6 -3 17 1 20 18 16 12 -3 20 -12 18 -22z m-350 -1 c12 -12 22 -27 22 -35 0
-19 -5 -19 -25 1 -16 16 -51 12 -40 -5 3 -5 1 -12 -5 -16 -5 -3 -10 -1 -10 5
0 7 -6 10 -12 8 -13 -5 -18 -78 -5 -78 4 0 7 -8 7 -17 0 -15 -2 -15 -9 -4 -7
11 -14 9 -33 -14 -29 -33 -53 -26 -43 13 3 14 2 28 -3 31 -10 6 -15 38 -13 74
1 14 5 16 19 8 25 -13 62 -10 62 6 0 7 7 13 15 13 9 0 18 7 21 15 8 21 26 19
52 -5z m259 -2 c-3 -8 -6 -5 -6 6 -1 11 2 17 5 13 3 -3 4 -12 1 -19z m32 -5
c0 -25 -1 -26 -9 -8 -12 27 -12 35 0 35 6 0 10 -12 9 -27z m-119 1 c0 -8 -5
-12 -10 -9 -6 4 -8 11 -5 16 9 14 15 11 15 -7z m77 -29 c3 -10 -36 -40 -43
-33 -2 2 -1 14 3 26 6 23 33 27 40 7z m803 -5 c0 -5 -5 -10 -11 -10 -5 0 -7 5
-4 10 3 6 8 10 11 10 2 0 4 -4 4 -10z m-3545 -30 c3 -5 17 -10 29 -10 16 0 26
-7 29 -21 3 -12 3 -18 0 -15 -4 3 -13 0 -21 -7 -13 -10 -14 -9 -8 10 6 18 2
22 -24 28 -16 4 -30 11 -30 16 0 12 17 12 25 -1z m2515 0 c12 -7 13 -13 3 -27
-6 -10 -16 -17 -23 -15 -6 1 -9 -2 -5 -8 3 -6 11 -8 16 -5 5 4 9 2 9 -4 0 -13
-51 -52 -63 -48 -13 4 -17 47 -5 47 4 0 8 7 8 15 0 20 22 55 35 55 5 0 17 -5
25 -10z m1040 -17 c0 -33 -16 -61 -27 -50 -4 4 -2 17 5 27 7 11 12 27 12 35 0
8 2 15 5 15 3 0 5 -12 5 -27z m-1240 7 c0 -5 -4 -10 -10 -10 -5 0 -10 5 -10
10 0 6 5 10 10 10 6 0 10 -4 10 -10z m280 -24 c-32 -31 -72 -20 -51 13 8 12
12 12 25 2 14 -11 16 -11 16 5 0 14 3 15 12 6 10 -9 9 -15 -2 -26z m-3313 -23
c-3 -10 -5 -4 -5 12 0 17 2 24 5 18 2 -7 2 -21 0 -30z m3009 -18 c14 19 15 19
20 -3 4 -12 11 -22 16 -22 5 0 8 -15 6 -32 -2 -27 -7 -33 -27 -33 -13 0 -26 6
-28 13 -3 6 2 12 11 12 8 0 18 5 22 12 5 8 2 9 -11 5 -22 -9 -44 18 -44 53 l0
25 10 -25 c10 -25 11 -25 25 -5z m-2215 -41 c28 5 46 2 65 -10 14 -10 48 -21
75 -25 41 -6 56 -16 94 -55 34 -37 43 -53 39 -71 -4 -16 -2 -23 8 -23 8 0 23
-9 33 -20 10 -12 25 -18 32 -16 18 7 16 -15 -6 -104 -35 -133 -50 -182 -63
-197 -8 -10 -28 -14 -67 -12 -139 7 -168 1 -210 -36 -56 -51 -62 -47 -56 38
10 121 27 241 36 253 6 7 5 23 -1 39 -6 15 -8 37 -4 48 4 11 2 17 -3 14 -6 -4
-8 4 -5 18 2 14 1 33 -3 42 -4 10 -7 30 -6 45 1 15 -2 36 -8 47 -6 11 -8 28
-4 38 7 17 8 17 11 -1 3 -15 10 -17 43 -12z m-804 -51 c-3 -10 -5 -2 -5 17 0
19 2 27 5 18 2 -10 2 -26 0 -35z m6011 18 c12 -11 22 -30 22 -43 0 -22 -1 -22
-24 6 -21 27 -24 28 -33 12 -10 -17 -10 -17 -17 0 -4 11 -2 20 5 23 8 2 7 6
-2 12 -11 7 -9 9 6 9 11 -1 30 -9 43 -19z m103 -49 c-8 -15 -8 -22 2 -25 6 -2
9 -8 5 -12 -12 -12 -58 12 -58 30 0 9 9 15 25 15 14 0 25 5 25 12 0 6 3 9 6 6
3 -4 1 -15 -5 -26z m-6384 -225 c-4 -40 -13 -89 -21 -108 -19 -43 -19 -30 -1
46 8 33 15 77 15 98 0 20 3 37 6 37 4 0 4 -33 1 -73z m254 56 c-5 -10 -28 -37
-49 -59 -22 -23 -45 -50 -50 -60 -6 -11 -12 -14 -12 -7 0 11 107 143 117 143
2 0 -1 -8 -6 -17z m-471 -23 c0 -5 -4 -10 -10 -10 -5 0 -10 5 -10 10 0 6 5 10
10 10 6 0 10 -4 10 -10z m-38 -52 c-6 -6 -16 -8 -22 -6 -9 3 -7 9 6 22 13 13
19 15 22 6 2 -6 0 -16 -6 -22z m-124 -106 c2 -7 -3 -12 -12 -12 -9 0 -16 7
-16 16 0 17 22 14 28 -4z m4802 -17 c0 -5 -5 -3 -10 5 -5 8 -10 20 -10 25 0 6
5 3 10 -5 5 -8 10 -19 10 -25z m-5720 -214 c0 -5 -7 -12 -16 -15 -24 -9 -28
-7 -14 9 14 17 30 20 30 6z m140 -21 c0 -5 -4 -10 -9 -10 -6 0 -13 5 -16 10
-3 6 1 10 9 10 9 0 16 -4 16 -10z m1412 -122 c30 -1 82 -24 98 -43 7 -8 19
-15 26 -15 8 0 14 -4 14 -10 0 -5 -7 -10 -15 -10 -10 0 -15 -10 -15 -30 0 -16
5 -30 10 -30 6 0 10 -6 9 -12 -5 -41 2 -58 24 -58 43 0 50 -13 45 -83 -3 -58
-8 -69 -40 -105 -20 -22 -44 -57 -53 -78 -31 -70 -38 -83 -55 -102 -10 -10
-21 -34 -25 -53 -4 -19 -13 -41 -21 -50 -11 -12 -12 -20 -1 -42 14 -32 17 -33
43 -9 54 52 88 99 126 171 13 26 19 30 24 18 3 -9 12 -13 20 -10 8 3 25 2 39
-1 25 -6 25 -7 8 -31 -19 -25 -48 -41 -70 -37 -7 2 -13 -2 -13 -9 0 -6 8 -9
20 -6 11 3 20 1 20 -5 0 -6 -14 -8 -35 -4 -32 6 -35 5 -35 -18 0 -19 4 -23 19
-19 24 6 31 -6 20 -34 -9 -24 -44 -32 -51 -11 -3 8 -11 5 -23 -10 -11 -12 -25
-22 -33 -22 -7 0 -15 -7 -18 -15 -4 -8 -10 -13 -14 -10 -5 3 -11 1 -15 -5 -9
-14 -42 -13 -48 3 -4 9 -8 9 -16 -3 -5 -8 -7 -18 -4 -23 3 -5 -4 -6 -16 -2
-30 9 -92 -42 -133 -111 -18 -30 -36 -54 -40 -54 -3 0 -9 -13 -13 -30 -4 -16
-11 -30 -16 -30 -5 0 -9 -5 -9 -11 0 -12 -48 -70 -106 -129 -19 -20 -40 -46
-47 -58 -7 -12 -25 -41 -41 -64 -16 -24 -41 -60 -55 -81 -14 -21 -31 -46 -36
-56 -16 -29 -36 -51 -46 -51 -5 0 0 17 11 37 11 21 40 74 64 118 24 44 61 114
82 155 21 41 46 87 57 103 10 15 15 27 12 27 -4 0 1 12 10 27 17 25 27 44 93
183 15 30 35 66 45 79 9 13 17 33 17 43 0 11 7 32 14 46 8 15 24 48 35 75 11
26 24 47 29 47 5 0 9 17 9 39 0 26 8 49 26 73 15 19 27 42 27 50 0 9 7 18 15
22 18 6 20 36 3 36 -6 0 -2 10 11 21 14 13 21 29 18 40 -3 11 -1 19 4 19 10 0
45 80 41 94 -2 5 6 15 18 23 27 19 25 26 -10 42 -41 17 -73 8 -102 -30 -13
-17 -44 -53 -70 -81 -31 -32 -48 -59 -48 -75 0 -13 -3 -22 -8 -19 -4 2 -15 -2
-25 -9 -15 -11 -16 -17 -8 -34 16 -29 14 -32 -13 -25 -21 5 -25 1 -31 -25 -3
-17 -20 -42 -36 -55 -16 -14 -28 -31 -27 -38 2 -6 -3 -12 -10 -13 -7 0 -18
-11 -25 -25 -7 -14 -26 -32 -43 -40 -20 -10 -29 -21 -26 -32 2 -10 -10 -35
-27 -55 -17 -21 -31 -43 -31 -49 0 -17 -28 -25 -34 -11 -4 7 -4 2 -2 -10 2
-13 -4 -29 -15 -39 -10 -9 -19 -28 -19 -41 0 -12 -4 -23 -10 -23 -5 0 -10 5
-10 11 0 5 -4 7 -10 4 -27 -17 -7 19 148 260 25 39 73 113 108 165 34 52 94
149 134 215 40 66 84 136 98 156 25 34 27 35 54 22 15 -8 38 -15 50 -15z
m-1402 -28 c0 -5 -4 -10 -10 -10 -5 0 -10 5 -10 10 0 6 5 10 10 10 6 0 10 -4
10 -10z m2586 -100 c-37 -27 -69 -50 -71 -50 -2 0 -16 -11 -31 -25 -15 -14
-33 -25 -40 -25 -8 0 -22 -8 -33 -19 -25 -25 -120 -96 -148 -110 -25 -13 -31
-1 -10 21 21 22 52 72 57 93 3 11 12 20 20 21 35 2 40 5 40 18 0 15 55 27 68
14 4 -4 23 3 42 16 99 67 146 96 159 96 8 0 -16 -22 -53 -50z m-2416 0 c0 -5
-4 -10 -10 -10 -5 0 -10 5 -10 10 0 6 5 10 10 10 6 0 10 -4 10 -10z m224 -65
c-4 -8 -10 -15 -15 -15 -4 0 -6 7 -3 15 4 8 10 15 15 15 4 0 6 -7 3 -15z
m1271 -194 c3 -5 -2 -17 -11 -26 -19 -19 -40 -6 -31 19 7 17 32 21 42 7z
m1192 -51 c9 0 13 -6 9 -15 -6 -16 21 -35 41 -28 6 2 14 -1 18 -7 3 -5 -2 -13
-12 -17 -33 -12 -45 -31 -34 -51 12 -23 5 -32 -24 -32 -11 0 -26 -5 -33 -12
-9 -9 -12 -8 -12 7 0 10 -3 16 -6 12 -4 -3 -2 -19 4 -35 9 -26 7 -32 -19 -55
-16 -14 -30 -34 -32 -46 -4 -28 -12 -34 -44 -35 -29 -1 -48 -36 -19 -36 30 0
25 -18 -9 -34 -19 -9 -35 -23 -35 -31 0 -9 -10 -15 -23 -15 -16 0 -26 -9 -34
-31 -7 -17 -16 -28 -22 -25 -5 4 -15 -2 -21 -13 -6 -11 -16 -18 -23 -15 -17 6
-10 65 10 81 8 6 13 17 12 25 -2 15 24 74 44 101 8 9 21 17 29 17 20 0 30 38
17 62 -7 13 -6 18 3 18 8 0 20 10 28 21 8 12 25 34 38 49 12 15 22 34 22 42 0
7 8 21 18 29 9 9 28 30 42 48 14 17 31 29 38 26 8 -3 20 -5 29 -5z m-4174 -17
c15 -3 30 -9 32 -14 3 -4 19 -4 35 1 17 5 51 7 76 4 31 -2 43 0 38 7 -6 11
150 7 284 -7 l53 -6 -7 -46 c-4 -26 -14 -69 -23 -97 l-16 -50 -60 2 c-49 1
-155 11 -420 38 -142 14 -165 18 -165 29 0 14 28 93 41 119 7 12 18 17 29 14
11 -3 25 2 31 9 7 8 19 12 28 9 9 -4 28 -9 44 -12z m4733 -286 c-25 -52 -46
-97 -46 -102 0 -4 -15 -28 -34 -54 -18 -25 -46 -72 -60 -103 -15 -32 -32 -58
-37 -58 -5 0 -9 -8 -9 -19 0 -10 -6 -24 -14 -30 -8 -7 -17 -23 -21 -38 -3 -14
-19 -42 -34 -62 -30 -38 -95 -160 -106 -199 -3 -12 -11 -20 -16 -17 -5 4 -9
-1 -9 -10 0 -22 -30 -66 -41 -60 -9 6 5 43 30 83 11 18 16 20 22 10 6 -9 9 -5
9 12 0 28 155 342 235 475 13 22 32 58 43 80 23 49 88 152 101 159 5 4 13 21
17 39 7 27 9 28 12 10 2 -12 -17 -64 -42 -116z m-1691 91 c-5 -25 -4 -29 4
-18 6 8 11 10 11 4 0 -6 -7 -17 -16 -25 -10 -8 -13 -21 -9 -36 3 -15 -1 -29
-15 -43 -26 -26 -41 -25 -36 3 3 12 8 39 11 59 5 30 39 87 53 88 2 0 1 -15 -3
-32z m895 -17 c0 -11 -4 -23 -10 -26 -6 -4 -10 5 -10 19 0 14 5 26 10 26 6 0
10 -9 10 -19z m-4121 -41 c20 10 61 3 61 -11 0 -5 26 -9 58 -9 31 1 102 -2
157 -5 223 -14 239 -14 253 -3 10 9 16 8 23 -3 5 -8 9 -9 9 -2 0 6 15 11 35
11 24 0 33 -4 27 -11 -4 -7 -7 -30 -8 -52 -1 -46 -26 -142 -50 -197 -15 -34
-18 -36 -43 -27 -14 6 -51 11 -81 13 -30 1 -59 4 -65 8 -5 3 -41 6 -79 7 -38
1 -73 4 -79 8 -8 5 -57 13 -162 28 -56 8 -110 21 -132 34 -16 8 -23 8 -23 1 0
-6 -4 -8 -10 -5 -5 3 -10 15 -10 26 0 11 3 18 8 16 4 -3 8 5 8 17 2 28 54 136
66 136 4 0 8 8 9 18 0 10 3 12 6 5 3 -9 10 -10 22 -3z m4739 0 c9 0 11 -7 7
-19 -3 -11 -1 -22 5 -26 28 -18 -12 -129 -57 -158 -7 -4 -13 -15 -13 -23 0 -8
-11 -26 -24 -39 -13 -13 -26 -27 -28 -32 -11 -24 -51 -83 -56 -83 -17 0 -62
-50 -62 -68 0 -11 -13 -33 -30 -49 -16 -15 -30 -34 -30 -41 0 -8 -9 -12 -22
-10 -16 2 -22 -2 -20 -11 4 -20 -18 -62 -45 -84 -12 -10 -25 -26 -28 -37 -4
-11 -14 -24 -24 -29 -15 -8 -17 -6 -13 19 2 16 9 28 14 27 6 -1 16 20 23 47 7
27 20 53 29 58 9 5 16 15 16 22 0 8 10 16 21 19 20 5 21 11 16 57 -6 46 -4 53
23 80 19 19 28 39 28 58 -1 31 23 80 60 120 12 14 22 30 22 37 0 15 67 85 82
85 7 0 6 5 -2 15 -18 21 -3 38 21 24 17 -9 20 -8 18 8 -5 28 11 45 35 39 11
-3 27 -6 34 -6z m-1624 -65 c-4 -11 0 -15 16 -15 15 0 20 -5 17 -14 -3 -8 1
-17 10 -21 21 -7 6 -23 -27 -28 -16 -2 -33 5 -48 19 l-24 23 21 13 c12 7 21
18 21 25 0 7 4 13 10 13 5 0 7 -7 4 -15z m-814 -60 c-7 -9 -15 -13 -17 -11 -7
7 7 26 19 26 6 0 6 -6 -2 -15z m900 -40 c0 -8 5 -15 11 -15 5 0 -1 -10 -14
-22 -12 -13 -34 -38 -47 -57 -32 -47 -140 -154 -147 -147 -3 3 -12 1 -20 -5
-10 -9 -13 -8 -13 2 0 8 14 20 30 27 20 9 30 21 30 35 0 14 19 39 52 67 28 25
60 53 70 63 10 9 23 17 29 17 7 0 9 10 5 25 -4 14 -2 25 4 25 5 0 10 -7 10
-15z m-2008 -37 c-7 -7 -12 -8 -12 -2 0 6 3 14 7 17 3 4 9 5 12 2 2 -3 -1 -11
-7 -17z m2035 -53 c-15 -16 -22 -11 -13 10 3 9 10 13 16 10 6 -4 5 -11 -3 -20z
m13 -85 c0 -5 -5 -10 -11 -10 -5 0 -7 5 -4 10 3 6 8 10 11 10 2 0 4 -4 4 -10z
m678 -4 c-7 -8 -15 -12 -17 -11 -5 6 10 25 20 25 5 0 4 -6 -3 -14z m2 -48 c0
-17 -11 -28 -39 -40 -46 -22 -52 -22 -45 -3 4 8 16 15 28 15 14 0 28 10 36 25
16 31 20 31 20 3z m-694 -88 c-9 -55 -13 -73 -25 -104 -9 -22 -15 -26 -23 -18
-9 9 -9 15 0 24 7 7 12 22 12 35 0 13 6 32 12 43 10 15 10 27 1 49 -13 35 -4
50 15 24 8 -11 11 -31 8 -53z m-26 -5 c0 -8 -4 -15 -10 -15 -5 0 -7 7 -4 15 4
8 8 15 10 15 2 0 4 -7 4 -15z m-2077 -275 c-3 -11 -9 -20 -13 -20 -5 0 -12 -9
-15 -20 -3 -11 -10 -20 -15 -20 -13 0 0 31 24 57 26 28 25 28 19 3z m3144 -2
c15 -19 -18 -70 -37 -57 -13 7 -13 10 -1 18 11 7 11 9 0 13 -12 4 -12 7 0 21
16 20 25 21 38 5z m213 -62 c0 -13 -9 -35 -20 -49 -11 -14 -20 -29 -20 -35 0
-5 -11 -21 -24 -35 -13 -14 -22 -28 -20 -30 3 -3 -2 -7 -11 -10 -22 -9 -19 3
19 66 19 32 41 73 47 92 14 37 29 37 29 1z m-3410 -21 c-7 -9 -15 -13 -17 -11
-7 7 7 26 19 26 6 0 6 -6 -2 -15z m-36 -53 c-6 -4 -14 -16 -17 -26 -4 -10 -10
-16 -13 -13 -9 8 15 47 29 47 8 0 9 -3 1 -8z"/>
<path d="M8791 8631 c0 -7 -7 -11 -16 -7 -20 7 -20 -18 0 -34 20 -17 27 -8 22
27 -2 15 -5 22 -6 14z"/>
<path d="M8811 8494 c0 -11 3 -14 6 -6 3 7 2 16 -1 19 -3 4 -6 -2 -5 -13z"/>
<path d="M6721 4294 c0 -11 3 -14 6 -6 3 7 2 16 -1 19 -3 4 -6 -2 -5 -13z"/>
<path d="M7760 4253 c0 -16 19 -37 26 -30 16 16 12 37 -7 37 -10 0 -19 -3 -19
-7z"/>
<path d="M0 10760 c0 -13 7 -20 20 -20 13 0 20 7 20 20 0 13 -7 20 -20 20 -13
0 -20 -7 -20 -20z"/>
<path d="M80 10577 c0 -25 -3 -27 -40 -27 -29 0 -40 -4 -40 -15 0 -11 11 -15
39 -15 34 0 40 4 51 31 10 22 10 33 1 42 -8 8 -11 4 -11 -16z"/>
<path d="M17 10584 c-15 -15 -6 -24 24 -24 20 0 29 4 27 13 -5 14 -40 21 -51
11z"/>
<path d="M200 10551 c0 -6 5 -13 10 -16 6 -3 10 1 10 9 0 9 -4 16 -10 16 -5 0
-10 -4 -10 -9z"/>
<path d="M9440 10545 c0 -8 5 -15 10 -15 6 0 19 -9 30 -20 23 -23 40 -26 40
-6 0 8 -16 23 -36 35 -42 25 -44 25 -44 6z"/>
<path d="M165 10490 c-3 -5 1 -10 9 -10 9 0 16 5 16 10 0 6 -4 10 -9 10 -6 0
-13 -4 -16 -10z"/>
<path d="M0 10410 c0 -66 1 -70 19 -61 19 10 31 51 31 102 0 24 -4 29 -25 29
-24 0 -25 -2 -25 -70z"/>
<path d="M248 10473 c7 -3 16 -2 19 1 4 3 -2 6 -13 5 -11 0 -14 -3 -6 -6z"/>
<path d="M270 10360 c0 -5 5 -10 11 -10 5 0 7 5 4 10 -3 6 -8 10 -11 10 -2 0
-4 -4 -4 -10z"/>
<path d="M50 10315 c0 -9 7 -18 15 -21 8 -4 15 -12 15 -20 0 -17 16 -18 26 -2
4 6 0 16 -9 23 -22 16 -21 22 1 28 9 3 2 5 -15 6 -24 1 -33 -3 -33 -14z"/>
<path d="M0 9876 l0 -443 78 -6 c42 -4 140 -13 217 -21 77 -9 187 -20 246 -25
58 -6 118 -17 135 -25 16 -9 37 -13 47 -10 10 3 23 2 30 -4 11 -8 73 -22 159
-37 35 -5 38 -4 35 16 -3 28 45 45 64 23 8 -10 25 -13 58 -9 25 4 69 1 96 -5
57 -12 232 -31 285 -31 19 1 48 -4 63 -10 24 -10 30 -9 42 7 7 10 11 22 9 26
-3 5 2 8 10 8 10 0 13 -6 10 -15 -4 -8 -1 -15 5 -15 6 0 11 8 11 17 0 15 1 15
13 -2 16 -21 59 -15 89 12 13 12 26 13 55 7 21 -4 45 -7 53 -6 47 8 160 3 179
-7 17 -9 26 -10 36 -1 9 7 30 9 57 5 58 -9 124 -13 313 -21 88 -3 162 -10 165
-14 5 -7 108 -20 200 -25 25 -1 89 -8 143 -15 106 -14 116 -11 117 35 0 17 -7
20 -47 20 -27 1 -106 7 -178 14 -71 8 -156 13 -188 13 -32 0 -74 6 -94 14 -27
12 -38 12 -43 4 -5 -9 -17 -9 -46 -1 -22 6 -57 11 -80 11 -22 0 -44 3 -48 8
-4 4 -31 7 -59 8 -73 1 -201 13 -277 25 -36 6 -100 12 -143 14 -52 1 -82 6
-87 15 -5 8 -19 11 -38 7 -38 -8 -90 7 -108 30 -7 10 -14 33 -14 51 0 28 4 33
30 39 17 3 35 14 41 25 9 16 7 19 -13 16 -13 -1 -65 8 -116 20 -66 16 -97 20
-111 13 -10 -6 -20 -9 -22 -7 -2 2 -53 10 -114 16 -149 17 -146 16 -177 25
-16 4 -28 11 -28 16 0 5 12 15 28 22 15 6 36 20 46 29 11 10 31 18 45 19 14 0
41 1 60 1 18 0 37 -5 42 -13 7 -11 10 -9 15 9 5 17 13 22 38 21 17 0 25 -3 18
-6 -6 -2 -10 -9 -7 -14 4 -5 12 -3 19 4 8 6 12 15 9 20 -2 4 8 7 22 7 14 0 24
-4 20 -9 -5 -9 24 -31 39 -31 12 0 5 30 -6 31 -7 0 -4 4 6 8 26 10 30 41 5 41
-10 0 -19 -4 -19 -10 0 -5 -12 -10 -26 -10 -14 0 -23 4 -19 9 3 5 1 12 -4 15
-5 3 -107 13 -227 21 -121 8 -244 17 -274 20 -30 4 -75 8 -100 9 -25 2 -79 6
-120 10 -152 13 -177 15 -275 21 -55 4 -102 11 -105 15 -3 5 -17 11 -32 15
-20 5 -27 13 -25 29 1 15 -4 21 -18 21 -16 0 -19 -6 -17 -27 2 -19 -2 -28 -12
-28 -21 0 -30 19 -16 35 10 12 9 15 -8 15 -11 0 -25 -7 -32 -15 -13 -15 -50
-21 -50 -7 0 4 7 16 15 26 8 11 15 28 15 39 0 14 4 17 18 12 22 -9 61 -17 45
-9 -18 8 -16 44 2 44 9 0 18 -7 21 -15 9 -23 44 -19 44 5 0 12 -7 20 -18 20
-9 0 -23 9 -30 20 -9 15 -19 19 -37 14 -20 -5 -25 -2 -25 14 0 11 7 22 15 26
8 3 15 11 15 18 0 9 -3 9 -12 0 -14 -14 -48 -16 -48 -3 0 5 8 12 17 15 12 5
13 10 5 18 -9 9 -16 8 -29 -4 -22 -19 -43 -13 -43 13 0 12 5 16 15 13 8 -4 15
-1 15 5 0 6 -9 11 -20 11 -17 0 -20 7 -20 40 0 33 -3 40 -20 40 -20 0 -20 -7
-20 -444z m50 244 c0 -5 -4 -10 -10 -10 -5 0 -10 5 -10 10 0 6 5 10 10 10 6 0
10 -4 10 -10z m57 -36 c-3 -3 -12 -4 -19 -1 -8 3 -5 6 6 6 11 1 17 -2 13 -5z
m-47 -43 c0 -5 -7 -11 -15 -15 -15 -5 -20 5 -8 17 9 10 23 9 23 -2z m902 -336
c38 6 68 -6 68 -27 0 -14 -168 -8 -180 8 -16 19 17 35 48 23 14 -5 42 -7 64
-4z m-198 -1 c22 -9 10 -24 -20 -24 -15 0 -24 6 -24 15 0 16 17 19 44 9z m749
-191 c-7 -2 -19 -2 -25 0 -7 3 -2 5 12 5 14 0 19 -2 13 -5z m20 -45 c48 -25
-14 -39 -66 -15 -41 18 -34 37 11 30 20 -3 45 -10 55 -15z m-146 -144 c-3 -3
-12 -4 -19 -1 -8 3 -5 6 6 6 11 1 17 -2 13 -5z m76 -11 c-13 -2 -33 -2 -45 0
-13 2 -3 4 22 4 25 0 35 -2 23 -4z m62 -3 c3 -5 -1 -10 -10 -10 -9 0 -13 5
-10 10 3 6 8 10 10 10 2 0 7 -4 10 -10z"/>
<path d="M153 10237 c4 -13 44 -19 51 -8 3 5 -8 11 -24 13 -18 3 -29 0 -27 -5z"/>
<path d="M258 10243 c-10 -2 -18 -9 -18 -14 0 -11 -3 -12 45 6 30 11 34 14 15
13 -14 0 -33 -2 -42 -5z"/>
<path d="M189 10169 c-10 -6 -5 -9 18 -9 17 0 33 -4 35 -9 2 -5 13 -5 27 0 13
5 21 12 19 15 -10 10 -84 12 -99 3z"/>
<path d="M9515 10170 c-3 -5 -1 -10 4 -10 6 0 11 5 11 10 0 6 -2 10 -4 10 -3
0 -8 -4 -11 -10z"/>
<path d="M240 10021 c0 -5 -8 -12 -17 -14 -11 -3 -7 -5 10 -6 27 -1 36 12 17
24 -5 3 -10 2 -10 -4z"/>
<path d="M3363 9998 c-26 -13 -31 -41 -7 -36 17 3 53 49 38 47 -5 0 -19 -5
-31 -11z"/>
<path d="M295 9960 c3 -5 10 -10 16 -10 5 0 9 5 9 10 0 6 -7 10 -16 10 -8 0
-12 -4 -9 -10z"/>
<path d="M9745 9960 c3 -5 8 -10 11 -10 2 0 4 5 4 10 0 6 -5 10 -11 10 -5 0
-7 -4 -4 -10z"/>
<path d="M3275 9688 c-10 -25 1 -49 20 -42 19 8 19 15 1 40 -14 18 -15 18 -21
2z"/>
<path d="M9943 9580 c-1 -13 4 -20 17 -20 13 0 18 7 17 20 -1 11 -8 20 -17 20
-9 0 -16 -9 -17 -20z"/>
<path d="M8413 9553 c-21 -8 -15 -33 8 -33 19 0 49 21 49 34 0 7 -40 6 -57 -1z"/>
<path d="M3166 9485 l-27 -25 28 0 c23 0 28 5 29 25 1 14 1 25 -1 25 -1 0 -14
-11 -29 -25z"/>
<path d="M3101 9379 c-12 -19 -21 -39 -21 -45 0 -7 -7 -25 -15 -40 -8 -16 -15
-42 -15 -58 0 -24 2 -27 15 -16 15 12 43 67 65 128 7 17 16 32 20 32 4 0 11 7
14 16 5 13 4 14 -7 6 -10 -9 -16 -9 -25 0 -8 8 -16 2 -31 -23z"/>
<path d="M167 9353 c6 -15 69 -34 89 -26 20 8 84 -6 81 -18 -1 -5 36 -11 85
-14 48 -3 138 -15 200 -26 62 -11 124 -22 138 -23 48 -6 216 -28 314 -42 95
-14 120 -13 100 5 -11 10 -126 42 -168 46 -129 14 -358 52 -491 82 -38 9 -115
18 -170 20 -55 2 -119 4 -141 6 -30 2 -40 -1 -37 -10z"/>
<path d="M987 9312 c-15 -6 -13 -9 13 -19 16 -6 30 -8 30 -3 0 5 16 4 36 -2
20 -5 38 -7 41 -4 3 2 -11 8 -31 11 -20 4 -36 11 -36 16 0 10 -27 11 -53 1z"/>
<path d="M1745 9310 c-3 -5 -1 -10 4 -10 6 0 11 5 11 10 0 6 -2 10 -4 10 -3 0
-8 -4 -11 -10z"/>
<path d="M1688 9263 c6 -2 18 -2 25 0 6 3 1 5 -13 5 -14 0 -19 -2 -12 -5z"/>
<path d="M4278 9203 c7 -3 16 -2 19 1 4 3 -2 6 -13 5 -11 0 -14 -3 -6 -6z"/>
<path d="M1240 9195 c0 -11 54 -26 69 -19 13 5 11 8 -9 14 -31 10 -60 12 -60
5z"/>
<path d="M1350 9170 c20 -13 63 -13 55 0 -3 6 -21 10 -38 10 -24 0 -28 -3 -17
-10z"/>
<path d="M1421 9156 c10 -9 79 -14 74 -5 -4 5 -22 9 -42 9 -20 0 -34 -2 -32
-4z"/>
<path d="M1578 9123 c7 -3 16 -2 19 1 4 3 -2 6 -13 5 -11 0 -14 -3 -6 -6z"/>
<path d="M1618 9113 c6 -2 18 -2 25 0 6 3 1 5 -13 5 -14 0 -19 -2 -12 -5z"/>
<path d="M4640 9090 c0 -5 5 -10 11 -10 5 0 7 5 4 10 -3 6 -8 10 -11 10 -2 0
-4 -4 -4 -10z"/>
<path d="M4765 9070 c-3 -5 -1 -10 4 -10 6 0 11 5 11 10 0 6 -2 10 -4 10 -3 0
-8 -4 -11 -10z"/>
<path d="M4478 9014 c-7 -7 2 -44 11 -44 3 0 12 4 20 9 12 8 12 12 2 25 -14
17 -24 20 -33 10z"/>
<path d="M5635 8990 c-3 -5 -1 -10 4 -10 6 0 11 5 11 10 0 6 -2 10 -4 10 -3 0
-8 -4 -11 -10z"/>
<path d="M5257 8913 c-12 -11 -8 -23 8 -23 8 0 15 7 15 15 0 16 -12 20 -23 8z"/>
<path d="M4945 8890 c-3 -5 -1 -10 4 -10 6 0 11 5 11 10 0 6 -2 10 -4 10 -3 0
-8 -4 -11 -10z"/>
<path d="M5478 8883 c7 -3 16 -2 19 1 4 3 -2 6 -13 5 -11 0 -14 -3 -6 -6z"/>
<path d="M2508 8833 c7 -3 16 -2 19 1 4 3 -2 6 -13 5 -11 0 -14 -3 -6 -6z"/>
<path d="M3000 8670 c0 -5 5 -10 10 -10 6 0 10 5 10 10 0 6 -4 10 -10 10 -5 0
-10 -4 -10 -10z"/>
<path d="M4466 8641 c-18 -7 -18 -8 -3 -14 9 -3 17 -2 17 3 0 5 10 11 23 13
18 4 19 4 2 5 -11 0 -29 -3 -39 -7z"/>
<path d="M4710 8620 c-8 -5 -11 -12 -7 -16 4 -4 13 -2 19 4 15 15 7 24 -12 12z"/>
<path d="M5920 8178 c-14 -5 -60 -10 -102 -10 -43 0 -78 -5 -78 -10 0 -5 -33
-7 -82 -3 -46 4 -92 7 -103 6 -11 0 -37 -1 -57 -2 -21 -1 -38 -5 -38 -10 0 -5
-13 -9 -29 -9 -16 0 -34 -6 -40 -14 -7 -8 -28 -17 -49 -21 -20 -4 -47 -16 -59
-27 -12 -11 -32 -22 -45 -23 -13 -1 -27 -3 -31 -4 -5 0 -7 -11 -5 -24 1 -14
-8 -36 -25 -56 -15 -18 -27 -37 -27 -42 0 -5 -5 -9 -12 -9 -18 0 -118 -112
-118 -133 0 -10 -4 -15 -10 -12 -5 3 -18 1 -29 -4 -14 -8 -21 -8 -25 2 -3 9
-9 7 -19 -5 -7 -10 -25 -22 -38 -27 -21 -9 -19 -10 19 -10 23 -1 42 -5 42 -11
0 -5 6 -10 14 -10 21 0 29 -18 36 -72 6 -47 6 -47 -18 -41 -21 5 -24 3 -18
-12 3 -10 1 -24 -5 -31 -6 -8 -9 -21 -5 -29 3 -9 2 -13 -4 -10 -6 3 -10 1 -10
-4 0 -20 -39 -11 -54 11 -16 22 -16 22 -16 -10 0 -21 5 -32 14 -32 21 0 46
-45 46 -85 0 -19 4 -35 8 -35 5 0 16 -18 24 -39 17 -41 87 -101 119 -101 10 0
22 -6 26 -12 9 -15 40 -36 65 -44 9 -3 19 -15 21 -26 5 -17 12 -20 41 -16 20
2 37 1 38 -4 2 -4 20 -3 40 1 29 7 45 5 73 -10 20 -11 40 -17 45 -14 5 3 14
-4 20 -15 6 -11 20 -20 30 -20 21 0 53 -15 83 -39 11 -9 50 -16 102 -19 80 -4
85 -3 85 16 0 18 7 21 53 21 83 2 107 5 107 15 0 13 33 35 53 36 9 0 26 9 36
19 16 16 17 21 5 32 -14 15 -9 59 8 59 5 0 6 5 3 10 -3 6 -17 10 -31 10 -13 0
-24 5 -24 10 0 6 14 10 31 10 22 0 32 6 36 19 6 22 110 44 220 45 62 1 75 4
94 24 30 33 35 122 8 153 -11 13 -18 27 -16 33 5 14 -55 67 -68 62 -6 -2 -17
9 -24 25 -7 16 -17 29 -23 29 -6 0 -26 11 -44 25 -18 14 -39 25 -46 25 -8 0
-20 6 -27 13 -10 9 -15 9 -18 0 -3 -8 -14 -6 -39 8 -19 10 -45 19 -58 19 -33
0 -57 10 -50 21 3 5 1 9 -5 9 -5 0 -13 -4 -16 -10 -3 -5 -11 -10 -16 -10 -6 0
-7 5 -4 10 4 6 -18 10 -57 11 -35 0 -57 3 -50 6 9 3 10 9 2 18 -13 16 13 40
35 31 19 -7 32 20 29 57 -2 15 1 27 7 27 5 0 9 -7 9 -15 0 -8 5 -15 10 -15 6
0 10 9 10 19 0 26 11 32 60 34 22 1 40 6 40 12 0 5 4 4 9 -3 6 -10 17 -11 42
-4 37 10 62 6 53 -9 -10 -18 24 -20 61 -5 50 21 77 20 105 -4 13 -11 30 -20
39 -21 10 0 6 -4 -9 -11 l-25 -11 25 -7 c16 -4 28 -2 33 6 5 8 18 11 35 8 20
-4 33 1 51 20 31 33 16 53 -42 59 -35 3 -38 5 -19 11 23 9 31 38 10 35 -23 -3
-38 1 -36 9 7 26 -17 52 -63 67 -27 9 -47 20 -44 24 2 4 -11 24 -29 44 -36 39
-29 38 -176 43 -25 1 -52 4 -60 7 -8 3 -26 1 -40 -5z m-284 -693 l22 -65 -36
0 c-41 0 -121 35 -129 57 -11 28 77 87 112 76 6 -2 20 -32 31 -68z m154 55 c0
-5 -5 -10 -11 -10 -5 0 -7 5 -4 10 3 6 8 10 11 10 2 0 4 -4 4 -10z m224 -83
c14 -8 23 -17 19 -20 -3 -4 0 -7 8 -7 28 -1 -67 -30 -98 -30 -39 0 -40 3 -12
41 22 32 43 36 83 16z"/>
<path d="M3930 8145 c-14 -17 -46 -20 -55 -5 -8 14 -21 13 -37 -3 -7 -8 -26
-17 -42 -21 -15 -4 -30 -16 -33 -26 -4 -16 -12 -19 -44 -16 -21 2 -39 0 -39
-5 0 -5 -9 -9 -21 -9 -22 0 -61 -39 -52 -52 2 -5 13 -8 24 -8 11 0 32 -9 47
-20 15 -11 48 -22 73 -25 76 -9 181 -33 192 -44 6 -6 20 -11 30 -11 13 0 17
-5 13 -16 -3 -9 -6 -20 -6 -25 0 -5 -12 -10 -27 -10 -22 -1 -24 -3 -7 -6 32
-6 27 -52 -6 -59 -49 -10 -100 -27 -100 -34 0 -4 -13 -10 -29 -13 -36 -7 -125
-48 -129 -59 -2 -4 -10 -8 -17 -8 -15 0 -65 -42 -65 -54 0 -4 -9 -17 -21 -29
-15 -16 -19 -29 -14 -52 9 -44 7 -89 -5 -93 -5 -2 -10 -13 -10 -25 1 -20 2
-20 13 -5 10 12 17 14 30 6 12 -6 28 -6 49 1 17 6 50 11 74 11 34 0 47 -5 66
-28 27 -33 66 -46 85 -30 11 8 21 4 44 -19 l29 -31 -46 -41 c-26 -23 -49 -39
-52 -37 -2 3 -22 -4 -43 -15 -33 -16 -39 -17 -39 -4 0 8 5 15 10 15 6 0 10 4
10 8 0 5 -14 9 -31 10 -30 1 -30 0 -14 -18 10 -11 19 -30 20 -42 4 -38 5 -39
13 -34 4 2 9 -5 9 -17 2 -22 87 -107 107 -108 6 0 31 -3 55 -6 29 -3 41 -2 37
5 -3 6 -1 14 5 17 7 5 3 14 -10 26 -12 11 -21 27 -21 37 1 16 1 16 11 0 5 -10
16 -18 23 -18 8 0 20 -13 27 -29 12 -23 18 -27 37 -20 12 5 22 12 22 17 0 5
24 14 53 20 28 6 66 16 82 23 17 7 33 12 37 11 4 -1 24 9 44 23 20 14 47 25
58 25 12 0 31 7 42 15 22 17 70 20 79 5 10 -15 25 -12 32 8 8 23 44 62 57 62
13 0 76 70 76 85 0 14 46 55 61 55 6 0 9 9 6 19 -3 13 -1 18 8 14 10 -3 12 2
8 16 -4 15 2 27 21 42 14 11 26 27 26 34 0 20 -39 82 -55 89 -8 3 -15 16 -15
30 0 14 -13 38 -31 55 -23 23 -31 42 -34 73 -3 38 -7 44 -36 54 -19 7 -28 13
-21 13 23 2 14 59 -13 77 -20 13 -25 24 -25 59 0 59 -8 75 -36 75 -17 0 -27 8
-34 24 -9 24 -51 43 -95 44 -18 0 -55 6 -80 12 -5 1 -14 1 -20 -1 -27 -7 -111
-3 -122 7 -12 12 -59 12 -129 0 -33 -6 -43 -4 -47 8 -8 20 -21 20 -37 1z m628
-265 c-2 -6 -8 -6 -18 0 -13 9 -13 11 0 20 15 10 25 0 18 -20z m-558 -70 c0
-5 -4 -10 -10 -10 -5 0 -10 5 -10 10 0 6 5 10 10 10 6 0 10 -4 10 -10z m-176
-145 c8 -22 -2 -41 -30 -54 -13 -6 -27 -18 -30 -26 -4 -8 -13 -15 -21 -15 -9
0 -21 -6 -27 -14 -6 -7 -23 -16 -38 -20 -33 -7 -37 8 -14 53 19 36 39 52 90
72 53 22 63 22 70 4z m101 -150 c15 -24 24 -49 21 -54 -11 -18 -136 10 -136
30 0 17 52 58 87 68 1 1 14 -19 28 -44z m376 19 c10 -28 -1 -43 -39 -50 l-32
-6 23 41 c23 44 36 47 48 15z m-361 -249 c10 -12 10 -15 -4 -15 -9 0 -16 7
-16 15 0 8 2 15 4 15 2 0 9 -7 16 -15z"/>
<path d="M8118 8133 c7 -3 16 -2 19 1 4 3 -2 6 -13 5 -11 0 -14 -3 -6 -6z"/>
<path d="M7755 8095 c64 -17 123 -19 108 -4 -6 6 -44 12 -84 14 l-74 3 50 -13z"/>
<path d="M8385 8070 c14 -6 16 -9 5 -11 -8 -1 5 -5 30 -9 25 -4 59 -10 75 -12
17 -3 23 -3 15 -1 -8 3 -19 9 -24 14 -6 5 -25 9 -42 9 -18 0 -36 5 -39 10 -3
6 -14 10 -23 9 -14 0 -13 -2 3 -9z"/>
<path d="M3081 8054 c0 -11 3 -14 6 -6 3 7 2 16 -1 19 -3 4 -6 -2 -5 -13z"/>
<path d="M8625 8012 c13 -12 175 -42 175 -32 0 4 -28 13 -62 19 -35 7 -76 14
-93 18 -20 4 -27 2 -20 -5z"/>
<path d="M8811 7976 c6 -6 157 -44 199 -50 19 -2 123 -23 230 -46 241 -51 301
-63 462 -94 70 -13 132 -27 138 -31 5 -3 10 -2 10 4 0 6 -12 13 -27 17 -16 3
-39 9 -53 14 -30 11 -102 22 -150 24 -19 1 -44 7 -55 13 -11 7 -45 16 -75 22
-30 6 -109 22 -175 37 -66 14 -131 28 -145 31 -304 61 -373 73 -359 59z"/>
<path d="M3610 7955 c7 -8 16 -15 21 -15 5 0 9 7 9 15 0 9 -9 15 -21 15 -18 0
-19 -2 -9 -15z"/>
<path d="M3911 7844 c0 -11 3 -14 6 -6 3 7 2 16 -1 19 -3 4 -6 -2 -5 -13z"/>
<path d="M10198 7673 c-38 -10 -7 -33 67 -49 17 -4 36 -12 44 -18 8 -6 17 -11
20 -10 3 0 30 -10 58 -23 29 -14 64 -26 77 -27 14 -1 31 -7 38 -12 7 -6 32
-16 56 -22 23 -7 61 -17 85 -24 23 -6 47 -15 52 -19 6 -3 24 -9 40 -11 17 -3
38 -9 48 -13 15 -6 17 -1 17 37 l0 44 -77 18 c-43 9 -127 29 -188 43 -60 13
-130 31 -154 39 -25 8 -52 14 -61 14 -9 0 -33 9 -55 20 -22 11 -42 19 -45 19
-3 -1 -13 -3 -22 -6z"/>
<path d="M5344 6686 c-3 -8 -1 -23 5 -35 23 -42 6 -219 -26 -267 -20 -31 -11
-41 32 -39 57 4 102 55 70 79 -16 11 -14 15 18 34 28 16 35 26 33 46 -1 14 -7
31 -13 38 -6 7 -16 32 -22 55 -19 69 -82 127 -97 89z"/>
<path d="M4344 6440 c-18 -6 -41 -25 -55 -45 -25 -36 -29 -37 -91 -19 -14 4
-18 -1 -18 -24 0 -16 -7 -43 -15 -60 -12 -24 -21 -30 -41 -28 -14 2 -29 8 -33
15 -6 9 -11 8 -21 -4 -16 -19 -36 -19 -44 0 -3 8 -15 15 -26 15 -11 0 -20 -7
-20 -15 0 -10 -10 -15 -30 -15 -16 0 -30 5 -30 10 0 6 4 10 9 10 5 0 11 16 13
35 3 24 0 35 -9 35 -7 0 -13 4 -13 9 0 5 -16 -6 -35 -25 -20 -19 -42 -34 -50
-34 -10 0 -15 -10 -15 -31 0 -18 -4 -28 -10 -24 -17 10 -49 -5 -44 -20 3 -8
-3 -29 -14 -47 -20 -33 -38 -110 -33 -137 2 -8 -4 -20 -11 -25 -8 -6 -17 -22
-21 -36 -3 -14 -9 -36 -13 -49 -5 -17 -4 -22 4 -17 7 4 12 2 12 -5 0 -10 3
-10 12 -1 22 22 38 13 38 -19 0 -18 4 -28 10 -24 18 11 22 -24 6 -56 -15 -30
-13 -75 2 -65 11 6 8 -157 -3 -174 -10 -16 -17 -129 -8 -143 8 -13 33 13 33
35 0 26 39 21 54 -7 15 -27 28 -36 41 -25 15 12 10 147 -6 166 -10 13 -9 16 9
21 12 3 22 8 22 12 0 10 57 71 66 71 5 0 15 9 22 20 7 11 19 20 27 20 8 0 19
9 25 20 9 17 20 20 60 19 40 -2 57 3 91 27 37 26 50 29 108 27 46 -1 83 -9
124 -27 31 -14 57 -24 57 -22 0 3 15 0 33 -5 17 -6 59 -15 92 -20 33 -5 69
-11 80 -13 103 -20 154 -27 209 -27 54 -1 65 -4 69 -19 7 -28 -39 -68 -61 -54
-24 16 -69 -2 -76 -30 -3 -13 -16 -26 -28 -30 -22 -6 -22 -7 -4 -17 12 -7 39
-9 75 -4 31 4 64 8 73 9 10 1 21 5 24 9 4 4 22 7 40 7 18 0 35 4 39 9 3 6 13
10 23 9 9 0 30 3 45 6 42 10 126 11 175 4 24 -4 40 -3 37 2 -3 5 -1 11 5 15 5
3 10 0 11 -7 0 -7 3 -33 6 -58 3 -25 7 -66 7 -92 1 -28 5 -46 11 -44 6 2 9 9
8 15 -6 25 49 10 83 -24 41 -41 53 -43 91 -11 15 12 35 21 43 19 8 -3 1 8 -16
24 -37 33 -34 53 6 53 19 0 33 7 40 21 18 33 49 59 70 59 24 0 27 32 5 50 -9
7 -12 16 -8 19 15 11 33 61 33 91 0 24 -4 30 -21 30 -17 0 -20 4 -15 24 4 15
1 26 -7 29 -9 3 -9 7 1 19 9 11 10 18 2 23 -5 3 -10 1 -10 -6 0 -7 -8 -5 -20
6 -18 16 -20 16 -20 2 0 -10 -4 -17 -8 -17 -4 0 -8 34 -7 76 0 42 -3 78 -7 80
-4 3 -14 -8 -22 -23 -8 -15 -15 -23 -16 -17 0 5 -14 20 -31 33 -24 18 -33 20
-44 11 -8 -7 -12 -17 -8 -23 4 -6 -3 -8 -21 -3 -46 11 -81 16 -68 10 10 -5 9
-9 -5 -20 -17 -13 -17 -14 4 -20 14 -4 20 -11 16 -21 -4 -9 2 -16 17 -20 l23
-6 -23 -17 c-21 -16 -22 -21 -11 -50 10 -32 9 -35 -21 -61 -33 -29 -72 -37
-83 -19 -3 6 -13 10 -21 10 -8 0 -51 18 -96 40 -94 47 -153 59 -183 36 -16
-12 -17 -16 -5 -17 8 -1 -7 -5 -35 -9 -27 -4 -55 -4 -60 1 -6 4 -34 5 -62 3
-45 -5 -53 -3 -63 16 -11 21 -12 21 -25 3 -8 -10 -15 -25 -15 -34 0 -17 -36
-33 -45 -19 -2 4 -19 11 -37 15 -18 4 -27 9 -20 12 6 2 10 9 7 13 -3 5 -15 0
-26 -11 -21 -21 -46 -21 -41 0 1 6 -9 11 -23 11 -14 0 -24 -3 -23 -7 2 -5 0
-9 -4 -10 -25 -9 -58 -1 -58 12 0 8 -3 15 -7 15 -43 2 -158 22 -167 29 -6 5
-24 10 -41 12 -16 2 -35 7 -40 10 -15 11 -69 3 -73 -10 -12 -36 -79 12 -69 51
4 12 1 28 -4 35 -8 8 -7 16 1 25 6 7 19 29 29 48 15 28 26 36 59 42 56 9 82
25 82 48 0 11 -4 20 -10 20 -5 0 2 11 15 25 l23 26 27 -25 26 -24 -21 -20
c-18 -17 -20 -23 -9 -40 7 -11 18 -18 25 -15 6 2 15 0 19 -6 3 -6 17 -11 31
-11 21 0 23 3 16 17 -8 13 -4 21 14 35 23 19 24 19 54 -3 16 -13 30 -28 30
-35 0 -7 9 -15 19 -19 11 -3 22 -12 25 -20 3 -8 22 -21 42 -30 48 -20 107 -10
161 26 49 34 51 34 75 12 36 -32 140 -19 186 24 7 7 19 10 27 7 8 -4 15 -2 15
4 0 5 16 17 36 27 30 14 38 15 46 4 5 -9 6 -3 2 16 -6 25 -5 28 7 18 17 -14
34 -3 68 45 12 18 31 32 42 32 18 0 20 6 17 48 -3 50 -13 56 -63 39 -14 -5
-29 2 -52 23 -18 17 -41 30 -52 30 -12 0 -21 4 -21 9 0 5 -23 20 -51 34 -51
25 -89 26 -89 2 0 -8 -8 -11 -20 -8 -11 3 -38 -4 -60 -16 -22 -11 -47 -21 -54
-21 -8 0 -16 -7 -20 -15 -7 -18 -52 -20 -59 -2 -4 7 -9 3 -13 -11 -6 -20 -12
-23 -35 -18 -16 3 -29 2 -29 -3 0 -20 -47 5 -88 48 -24 25 -55 51 -68 57 -34
18 -104 25 -140 14z m-44 -170 c0 -12 -28 -25 -36 -17 -9 9 6 27 22 27 8 0 14
-5 14 -10z m-80 -26 c0 -8 -5 -12 -10 -9 -6 4 -8 11 -5 16 9 14 15 11 15 -7z
m-240 -10 c17 3 30 2 30 -3 0 -12 -48 -23 -71 -16 -11 4 -19 2 -19 -4 0 -6 7
-11 16 -11 13 0 14 -3 5 -13 -6 -8 -8 -17 -5 -20 8 -8 -39 -3 -53 6 -7 5 -7
16 0 40 10 33 13 34 40 25 15 -6 41 -8 57 -4z m526 -21 c-10 -10 -19 5 -10 18
6 11 8 11 12 0 2 -7 1 -15 -2 -18z m-646 -57 c0 -3 -4 -8 -10 -11 -5 -3 -10
-1 -10 4 0 6 5 11 10 11 6 0 10 -2 10 -4z m1660 -201 c0 -8 -2 -15 -4 -15 -2
0 -6 7 -10 15 -3 8 -1 15 4 15 6 0 10 -7 10 -15z m-23 -31 c-3 -3 -12 -4 -19
-1 -8 3 -5 6 6 6 11 1 17 -2 13 -5z m100 -78 c-3 -8 -1 -31 4 -51 14 -49 8
-60 -19 -35 -26 24 -31 80 -7 80 8 0 15 5 15 10 0 6 3 10 6 10 3 0 4 -6 1 -14z
m-812 -15 c3 -5 1 -12 -5 -16 -5 -3 -10 1 -10 9 0 18 6 21 15 7z m235 -131 c0
-5 -2 -10 -4 -10 -3 0 -8 5 -11 10 -3 6 -1 10 4 10 6 0 11 -4 11 -10z m580
-100 c0 -13 -11 -13 -30 0 -12 8 -11 10 8 10 12 0 22 -4 22 -10z m-162 -104
c31 -10 28 -28 -5 -24 -21 2 -29 9 -31 28 -2 14 1 20 5 14 4 -6 18 -14 31 -18z"/>
<path d="M5160 6120 c0 -5 5 -10 10 -10 6 0 10 5 10 10 0 6 -4 10 -10 10 -5 0
-10 -4 -10 -10z"/>
<path d="M5360 6084 c0 -8 5 -12 10 -9 6 4 8 11 5 16 -9 14 -15 11 -15 -7z"/>
<path d="M5212 6078 c-20 -20 -14 -24 23 -20 37 4 46 16 19 26 -22 8 -28 8
-42 -6z"/>
<path d="M5585 6040 c3 -5 8 -10 11 -10 2 0 4 5 4 10 0 6 -5 10 -11 10 -5 0
-7 -4 -4 -10z"/>
<path d="M4698 5913 c7 -3 16 -2 19 1 4 3 -2 6 -13 5 -11 0 -14 -3 -6 -6z"/>
<path d="M4674 5879 c-3 -6 -2 -15 2 -19 12 -12 38 5 30 19 -9 14 -23 14 -32
0z"/>
<path d="M4384 5492 c-10 -2 -26 -6 -34 -9 -8 -4 -38 -5 -66 -4 -61 3 -71 -7
-75 -75 -3 -60 5 -77 33 -68 19 6 20 3 15 -30 -5 -32 -4 -35 16 -33 16 1 22
-3 22 -19 0 -11 8 -28 18 -38 9 -10 17 -13 17 -7 0 6 9 11 20 11 17 0 19 -6
16 -60 -2 -45 1 -60 11 -61 7 -1 18 -3 23 -4 6 -1 13 -3 16 -4 4 0 2 -7 -3
-13 -11 -14 -13 -48 -3 -48 3 0 14 6 24 13 22 16 18 48 -9 62 -12 6 -21 22
-23 43 -3 31 11 45 21 20 4 -10 6 -10 6 0 1 18 48 15 55 -4 9 -23 8 -26 -6
-18 -9 5 -9 2 1 -9 11 -14 11 -17 0 -17 -12 0 -12 -2 0 -9 7 -5 21 -6 31 -4
11 3 25 -6 38 -22 27 -35 52 -29 77 17 20 37 34 43 121 51 18 1 38 8 45 14 8
5 35 13 61 15 50 6 75 26 100 81 7 15 18 27 25 27 6 0 34 22 60 48 26 27 55
51 64 54 31 12 10 73 -21 63 -10 -3 -21 -1 -24 4 -4 6 -13 8 -21 4 -8 -3 -15
-1 -15 5 0 6 -21 9 -50 8 -28 -2 -53 1 -56 6 -3 4 -59 6 -125 4 -66 -3 -132
-1 -147 3 -15 4 -40 5 -56 2 -16 -3 -64 -4 -106 -1 -42 3 -86 4 -96 2z"/>
<path d="M5252 5478 c5 -15 28 -23 28 -10 0 5 -7 13 -16 16 -10 4 -14 1 -12
-6z"/>
<path d="M5500 5341 c0 -6 5 -13 10 -16 6 -3 10 1 10 9 0 9 -4 16 -10 16 -5 0
-10 -4 -10 -9z"/>
<path d="M5460 5300 c0 -6 -8 -10 -17 -11 -16 0 -15 -1 2 -8 16 -7 14 -9 -13
-14 -36 -7 -41 -26 -14 -50 22 -19 40 -23 75 -14 22 6 27 13 27 38 0 17 4 28
9 25 11 -7 21 18 13 30 -10 13 -82 16 -82 4z"/>
<path d="M5271 5284 c0 -11 3 -14 6 -6 3 7 2 16 -1 19 -3 4 -6 -2 -5 -13z"/>
<path d="M5320 5243 c-42 -17 -42 -17 -34 -37 5 -13 14 -15 35 -11 21 5 31 2
35 -9 9 -23 24 -9 24 20 0 42 -20 54 -60 37z"/>
<path d="M5384 5144 c3 -9 6 -18 6 -21 0 -3 7 0 15 7 21 18 19 30 -6 30 -15 0
-19 -4 -15 -16z"/>
<path d="M5915 5151 c-6 -11 9 -23 19 -14 9 9 7 23 -3 23 -6 0 -12 -4 -16 -9z"/>
<path d="M2732 5090 c0 -14 2 -19 5 -12 2 6 2 18 0 25 -3 6 -5 1 -5 -13z"/>
<path d="M2782 5065 c0 -16 2 -22 5 -12 2 9 2 23 0 30 -3 6 -5 -1 -5 -18z"/>
<path d="M4347 5033 c-5 -7 -5 -18 -2 -23 4 -6 1 -17 -5 -25 -10 -12 -9 -15 6
-15 16 0 16 -2 4 -10 -12 -8 -12 -10 3 -16 27 -10 30 0 15 53 -9 30 -17 43
-21 36z"/>
<path d="M2765 4974 c-3 -25 -4 -48 -1 -52 3 -3 6 5 6 17 0 14 4 20 12 15 7
-4 8 -3 4 4 -4 7 -2 12 3 12 6 0 11 5 11 11 0 5 -5 7 -12 3 -8 -5 -9 0 -6 14
4 12 3 22 -2 22 -4 0 -11 -21 -15 -46z"/>
<path d="M5900 4981 c0 -6 5 -13 10 -16 6 -3 10 1 10 9 0 9 -4 16 -10 16 -5 0
-10 -4 -10 -9z"/>
<path d="M5940 4970 c0 -5 5 -10 11 -10 5 0 7 5 4 10 -3 6 -8 10 -11 10 -2 0
-4 -4 -4 -10z"/>
<path d="M4536 4931 c-4 -7 -5 -15 -2 -18 9 -9 19 4 14 18 -4 11 -6 11 -12 0z"/>
<path d="M5622 4932 c-13 -2 -21 -9 -19 -15 4 -13 36 -11 50 3 12 11 -3 17
-31 12z"/>
<path d="M5790 4895 c-10 -12 -9 -15 8 -15 11 0 25 7 32 15 10 12 9 15 -8 15
-11 0 -25 -7 -32 -15z"/>
<path d="M2753 4865 c0 -22 2 -30 4 -17 2 12 2 30 0 40 -3 9 -5 -1 -4 -23z"/>
<path d="M3920 4876 c-6 -8 -10 -24 -8 -34 2 -16 7 -18 26 -11 19 7 21 12 12
28 -8 16 -6 20 13 24 20 4 19 4 -4 6 -15 0 -32 -6 -39 -13z"/>
<path d="M2701 4864 c0 -11 3 -14 6 -6 3 7 2 16 -1 19 -3 4 -6 -2 -5 -13z"/>
<path d="M2742 4795 c0 -16 2 -22 5 -12 2 9 2 23 0 30 -3 6 -5 -1 -5 -18z"/>
<path d="M2732 4715 c0 -16 2 -22 5 -12 2 9 2 23 0 30 -3 6 -5 -1 -5 -18z"/>
<path d="M2600 4674 c0 -8 5 -12 10 -9 6 4 8 11 5 16 -9 14 -15 11 -15 -7z"/>
<path d="M2498 4629 c-18 -10 -25 -49 -9 -49 14 0 33 28 29 44 -2 11 -7 12
-20 5z"/>
<path d="M4000 4274 c0 -8 5 -12 10 -9 6 4 8 11 5 16 -9 14 -15 11 -15 -7z"/>
<path d="M2477 4223 c6 -16 8 -16 23 1 9 12 8 15 -8 13 -12 0 -18 -6 -15 -14z"/>
<path d="M2518 4028 c-14 -14 -15 -18 -4 -18 8 0 17 7 20 16 9 23 4 24 -16 2z"/>
<path d="M712 3985 c0 -16 2 -22 5 -12 2 9 2 23 0 30 -3 6 -5 -1 -5 -18z"/>
<path d="M2340 3990 c0 -5 5 -10 10 -10 6 0 10 5 10 10 0 6 -4 10 -10 10 -5 0
-10 -4 -10 -10z"/>
<path d="M864 3979 c-3 -6 -1 -16 5 -22 8 -8 11 -5 11 11 0 24 -5 28 -16 11z"/>
<path d="M1080 3960 c0 -5 5 -10 10 -10 6 0 10 5 10 10 0 6 -4 10 -10 10 -5 0
-10 -4 -10 -10z"/>
<path d="M2641 3904 c0 -11 3 -14 6 -6 3 7 2 16 -1 19 -3 4 -6 -2 -5 -13z"/>
<path d="M993 3883 c-9 -3 -13 -26 -13 -64 0 -74 16 -70 26 7 7 59 6 64 -13
57z"/>
<path d="M981 3724 c0 -11 3 -14 6 -6 3 7 2 16 -1 19 -3 4 -6 -2 -5 -13z"/>
<path d="M955 3610 c-3 -5 -1 -10 4 -10 6 0 11 5 11 10 0 6 -2 10 -4 10 -3 0
-8 -4 -11 -10z"/>
<path d="M930 3510 c0 -5 5 -10 10 -10 6 0 10 5 10 10 0 6 -4 10 -10 10 -5 0
-10 -4 -10 -10z"/>
<path d="M926 3458 c-5 -16 -5 -36 0 -45 7 -16 8 -15 11 5 3 12 3 32 0 45 -3
21 -4 20 -11 -5z"/>
<path d="M747 3344 c-9 -25 -14 -50 -11 -55 9 -15 90 -10 103 5 10 11 8 17 -6
25 -17 10 -17 12 0 25 25 20 21 29 -13 24 -20 -3 -30 0 -30 9 0 30 -27 10 -43
-33z"/>
<path d="M1070 3376 c0 -7 7 -19 15 -26 13 -11 15 -8 15 14 0 16 -5 26 -15 26
-8 0 -15 -6 -15 -14z"/>
<path d="M890 3335 c0 -14 -4 -25 -10 -25 -13 0 -13 -27 -1 -35 6 -3 29 -1 53
4 23 6 47 6 53 2 5 -5 31 -9 58 -9 40 -1 47 1 47 18 0 16 -7 20 -31 20 -22 0
-30 4 -26 13 8 21 -28 39 -43 22 -10 -12 -17 -12 -52 1 -51 18 -48 18 -48 -11z"/>
</g>
</svg>
